<?xml version="1.0" encoding="UTF-8"?>
<svg id="Ebene_2" data-name="Ebene 2" xmlns="http://www.w3.org/2000/svg" viewBox="0 0 542.06 312.17">
  <defs>
    <style>
      .cls-1 {
        fill: #085eff;
      }

      .cls-1, .cls-2, .cls-3, .cls-4, .cls-5, .cls-6 {
        stroke-width: 0px;
      }

      .cls-2 {
        fill: #002491;
      }

      .cls-3 {
        fill: #0095ff;
      }

      .cls-4 {
        fill: #29d0ff;
      }

      .cls-5 {
        fill: #0065ff;
      }

      .cls-6 {
        fill: #0037e3;
      }
    </style>
  </defs>
  <g id="_Ńëîé_1" data-name="Ńëîé 1">
    <g>
      <path class="cls-6" d="m533.13,189.36c-7.39,56.03-118.59,100.7-255.84,102.01-2.18.02-4.36.03-6.55.03-.59,0-1.19,0-1.78,0h-.18c-143.47-.5-259.49-48.34-260.26-107.4l10.29-27.41,29.36-75.54h445.72l25.71,71.89h0c0,.06.03.17.07.34.27,1.21,1.3,5.41,2.98,7.89l6.44,17.36,3.8,10.26.22.58Z"/>
      <path class="cls-6" d="m542.06,201.7c0,66.7-121.35,110.47-271.03,110.47S0,268.39,0,201.7s121.35-86.17,271.03-86.17,271.03,19.47,271.03,86.17Z"/>
      <path class="cls-6" d="m533.54,183.4c0,2-.13,3.98-.4,5.96-7.51,56.88-121.99,102.04-262.1,102.04S9.31,243.36,8.54,183.99c-.01-.2-.01-.4-.01-.6,0-10.43,3.59-19.29,10.3-26.81,31.65-35.47,132.58-41.06,252.22-41.06s213.39,5.2,248.58,37.4c9.03,8.26,13.92,18.28,13.92,30.46Z"/>
      <path class="cls-6" d="m519.77,153.35s-.05-.05-.08-.07c-.04-.17-.06-.28-.07-.33l.15.4Z"/>
      <path class="cls-1" d="m271.03.23C147.94.23,48.16,36.99,48.16,82.33s99.79,82.1,222.88,82.1,222.88-36.76,222.88-82.1S394.12.23,271.03.23Zm132,137.96c-36.19,9.98-82.07,15.95-131.99,15.95s-95.79-5.96-131.99-15.95c-48.6-13.38-79.74-34.01-79.74-57.15,0-40.37,94.8-73.09,211.74-73.09s211.73,32.73,211.73,73.09c0,23.13-31.13,43.76-79.73,57.15Z"/>
      <g>
        <path class="cls-6" d="m482.53,80.81c0,23.13-31.13,43.76-79.73,57.15-36.19,9.98-82.07,15.95-131.99,15.95s-95.79-5.96-131.99-15.95c-48.6-13.38-79.74-34.01-79.74-57.15,0-40.37,94.8-73.09,211.74-73.09s211.73,32.73,211.73,73.09Z"/>
        <path class="cls-2" d="m270.81,154.14c-48.55,0-94.21-5.52-132.05-15.96-50.79-13.98-79.91-34.89-79.91-57.37,0-19.63,22.08-38.06,62.17-51.9,40.02-13.81,93.21-21.42,149.8-21.42s109.77,7.61,149.79,21.42c40.09,13.84,62.17,32.27,62.17,51.9,0,22.48-29.12,43.39-79.9,57.37-37.87,10.44-83.53,15.96-132.05,15.96Zm0-146.19c-116.63,0-211.51,32.69-211.51,72.86,0,11.23,7.25,22.01,21.55,32.04,13.67,9.59,33.74,18.2,58.03,24.88,37.8,10.43,83.42,15.94,131.93,15.94s94.11-5.51,131.93-15.94c24.29-6.69,44.35-15.29,58.02-24.88,14.3-10.03,21.54-20.81,21.54-32.04,0-40.18-94.88-72.86-211.5-72.86Z"/>
      </g>
      <path class="cls-5" d="m420.7,132.74c-4.64,1.53-12.89,4.07-17.92,5.45-36.19,9.98-82.07,15.95-131.99,15.95s-95.79-5.96-131.99-15.95c-5.03-1.38-15.19-4.75-19.83-6.29,3.37-4.92,8.44-9.31,14.5-13.67,1.16,2.09,16.64,7.22,16.64,7.22,16.96-10.67,28.05-13.58,42.22-17.64,14.84-4.25,23.5-5.82,43.74-7.93,0,0-7.65-10.49-9.36-14.19,14.34-1.86,29.22-2.83,44.09-2.83,33.82,0,67.65,5.01,95.26,14.1,13,4.28,23.85,9.2,32.24,14.63,10.33,6.69,17.8,13.48,22.42,21.14Z"/>
      <path class="cls-1" d="m403.03,138.19c-36.19,9.98-82.07,15.95-131.99,15.95s-95.79-5.96-131.99-15.95c4.63-17.99,61.96-40.16,131.99-40.16s127.36,22.18,131.99,40.16Z"/>
      <path class="cls-1" d="m533.18,179.64c.68-8.08-6.77-20.36-13.56-26.71,2.81,7.57,7.74,14.56,9.44,22.44,2.35,10.92-.09,22.28-6.56,31.26-8.91,12.37-20.47,22.84-33.39,30.69-36.91,22.4-81.53,34.42-123.78,41.13-55.09,8.75-111.8,9.57-167.18,3.01-45.17-5.35-92.37-16.29-133.1-37.2-16.1-8.26-31.52-19.02-43.16-33.09-7.24-8.75-10.4-18.91-9.83-30.47.5-10.15,4.73-18.31,8.17-27.58-17.64,16.48-14.06,43.33-.93,61.28,10.17,13.9,24.62,24.29,39.49,32.66,39.63,22.33,85.88,33.04,130.6,39.03,48.45,6.49,97.71,7.07,146.32,1.98,45.66-4.78,92.29-14.28,133.97-34.16,28.07-13.39,66.77-38.05,63.51-74.28Z"/>
      <path class="cls-5" d="m390.31,301.92c11.62-2.33,41.91-9.47,59.05-15.22,27.82-9.34,46.04-20.51,55.07-26.28l-5.4-23.44-5.12-2.74-42.56-103.9c-6.33,3.23-18.34,8.6-37.05,14.54-19.21,6.1-32.67,8.56-44.27,10.62l13.23,119.78,5.49,4.81,1.57,21.82Z"/>
      <path class="cls-3" d="m236.06,99.88c-20.24,2.11-28.9,3.67-43.74,7.93-14.17,4.06-25.27,6.96-42.22,17.64,0,0-15.48-5.12-16.64-7.22,3.05-2.2,6.36-4.39,9.82-6.62,8.39-5.43,19.23-10.35,32.23-14.64,15.47-5.09,32.9-8.91,51.18-11.27,1.71,3.7,9.36,14.19,9.36,14.19Z"/>
      <path class="cls-5" d="m226.7,85.7c-18.28,2.37-35.71,6.18-51.18,11.27-13,4.28-23.85,9.2-32.23,14.64-3.46,2.24-6.77,4.43-9.82,6.62-9.97-17.97-24.45-84.48-24.45-84.48,14.38-6,26.27-9.39,42.92-13.41,15.12-3.65,44.44-8.79,58.99-9.72,0,0,8.57,58.63,15.7,74.91.02.06.05.11.08.17Z"/>
      <path class="cls-6" d="m403.03,138.24c-.83.23-.82.23-1.66.45-13.96-21.24-66.29-38.78-130.73-38.78s-115.82,16.77-130.78,38.45c-.61-.17-.2.04-.81-.12,4.63-17.98,61.96-40.16,131.99-40.16s127.36,22.17,131.99,40.16Z"/>
      <path class="cls-3" d="m450.34,260.03c-7.73,3.01-27.51,10.11-42.88,14.31-12.39,3.39-21.98,4.59-19.68,2.6,1.26-1.08,9.29-2.81,19.52-5.74,13.63-3.91,31.16-9.43,41.66-13.45,2.18-.83,14.5-5.98,25.44-11.17,11.69-5.55,21.92-11.07,20.56-9.07-2.76,4.02-30.09,16.85-44.63,22.52Z"/>
      <path class="cls-3" d="m411.4,144.31c-48.95,15.1-125.15,21.24-120.92,14.95,3.83-5.7,56.11-2.01,121.85-21,36.21-10.46,60.14-28.23,71.99-45.22,4.49-6.43,5.11.56,2.16,5.91-10.8,19.56-54.68,39.08-75.08,45.37Z"/>
      <path class="cls-4" d="m189.32,106.93c-13.66,3.21-25.89,8.44-34.74,13.3-5.25,2.88-5.87,5.63-4.19,4.5,9.65-6.55,20.56-11.25,40.1-16.64,10.94-3.02,24.9-5.84,34.57-7.18,7.21-1,11.78-1.21,10.29-1.79-1.5-.58-11.31.24-22.05,2-9.65,1.58-18.21,4.46-23.98,5.82Z"/>
      <path class="cls-3" d="m493.45,81.87c.02.57-.01,1.15-.05,1.72-2.48-44.55-100.83-80.85-222.37-80.85S51.14,39.04,48.67,83.59c-.04-.57-.05-1.14-.05-1.72C48.61,37.37,147.94.69,271.03.69s221.19,35.73,222.42,81.18Z"/>
      <path class="cls-4" d="m156.51,12.87c-4.47.91-60.23,15.48-52.69,19.75,2.28,1.29,9-3.27,12.58-4.31,11.69-3.39,23.86-7.9,36.46-10.74,22.97-5.17,41.46-8.27,53.56-9.38,7.81-.72,11.41-2.31,5.34-3-11.03-1.27-47.05,6.01-55.24,7.68Z"/>
      <path class="cls-2" d="m270.6,291.71c-27.28,0-54.44-1.8-81.25-5.39-54.9-7.35-96.42-19.76-130.68-39.06-17.88-10.07-30.82-20.78-39.56-32.73-6.74-9.22-10.8-20.64-11.12-31.32-.36-12.08,3.81-22.54,12.08-30.27l.71-.66-.34.91c-.74,1.98-1.52,3.93-2.27,5.82-2.83,7.07-5.5,13.75-5.89,21.69-.57,11.58,2.72,21.78,9.77,30.31,10.41,12.59,24.91,23.71,43.09,33.03,36.01,18.48,80.77,30.99,133.02,37.18,56.33,6.67,112.56,5.66,167.12-3.01,50.32-7.99,91.94-21.82,123.7-41.1,13.1-7.95,24.62-18.54,33.33-30.62,6.47-8.98,8.84-20.31,6.52-31.08-1.02-4.73-3.25-9.22-5.41-13.57-1.42-2.86-2.9-5.83-4.01-8.84l-.34-.91.71.66c7.11,6.64,14.28,19.02,13.63,26.87,1.44,16.14-5.31,31.58-20.08,45.88-10.59,10.25-25.25,19.88-43.56,28.62-36.42,17.37-80.27,28.55-134.04,34.18-21.7,2.27-43.45,3.4-65.12,3.4ZM19.66,153.98c-16.91,16.62-12.98,42.78-.18,60.28,8.7,11.9,21.59,22.56,39.41,32.6,34.2,19.27,75.67,31.66,130.51,39,48.07,6.44,97.28,7.1,146.27,1.98,53.72-5.62,97.52-16.78,133.89-34.14,30.64-14.62,66.51-39.33,63.38-74.06v-.02s0-.02,0-.02c.63-7.45-5.96-19.09-12.74-25.81,1.05,2.66,2.36,5.28,3.63,7.83,2.17,4.37,4.42,8.89,5.45,13.68,2.35,10.9-.05,22.36-6.6,31.44-8.74,12.13-20.31,22.76-33.46,30.75-31.82,19.31-73.49,33.16-123.87,41.16-54.6,8.67-110.87,9.69-167.24,3.01-52.31-6.19-97.12-18.72-133.18-37.22-18.23-9.36-32.78-20.51-43.23-33.15-7.13-8.62-10.46-18.93-9.88-30.63.4-8.02,3.08-14.73,5.92-21.84.63-1.58,1.28-3.21,1.91-4.86Z"/>
      <path class="cls-4" d="m412.33,144.77c-7.75,2.08-55.79,13.47-51.56,7.17,3.83-5.7,31.43-8.19,51.58-13.69,3.01-.82,22.56-9.07,34.42-12.37,7.56-2.1,12.06-1.39,6.94,1.95-9.3,6.06-33.3,14.77-41.37,16.94Z"/>
      <path class="cls-2" d="m271.03,164.66c-59.56,0-115.56-8.55-157.68-24.06-42.19-15.54-65.43-36.24-65.43-58.27s23.24-42.73,65.43-58.27C155.48,8.55,211.47,0,271.03,0s115.56,8.55,157.68,24.06c42.19,15.54,65.43,36.24,65.43,58.27s-23.24,42.73-65.43,58.27c-42.12,15.52-98.12,24.06-157.68,24.06Zm0-164.2C148.26.46,48.39,37.19,48.39,82.33s99.88,81.88,222.65,81.88,222.65-36.73,222.65-81.88S393.8.46,271.03.46Zm0,153.91c-48.55,0-94.21-5.52-132.05-15.96-50.79-13.98-79.91-34.89-79.91-57.37,0-19.63,22.08-38.06,62.17-51.9,40.02-13.81,93.21-21.42,149.8-21.42s109.77,7.61,149.79,21.42c40.09,13.84,62.17,32.27,62.17,51.9,0,22.48-29.12,43.39-79.9,57.37h0c-37.87,10.44-83.53,15.96-132.05,15.96Zm0-146.19c-116.63,0-211.51,32.69-211.51,72.86,0,11.23,7.25,22.01,21.55,32.04,13.67,9.59,33.74,18.2,58.03,24.88,37.8,10.43,83.42,15.94,131.93,15.94s94.11-5.51,131.93-15.94h0c24.29-6.69,44.35-15.29,58.02-24.88,14.3-10.03,21.54-20.81,21.54-32.04,0-40.18-94.88-72.86-211.5-72.86Z"/>
    </g>
  </g>
</svg>