<?xml version="1.0" encoding="UTF-8"?>
<svg id="Ebene_2" data-name="Ebene 2" xmlns="http://www.w3.org/2000/svg" viewBox="0 0 542.07 420.43">
  <defs>
    <style>
      .cls-1 {
        fill: #d1593e;
      }

      .cls-1, .cls-2, .cls-3, .cls-4, .cls-5, .cls-6, .cls-7, .cls-8, .cls-9, .cls-10, .cls-11, .cls-12, .cls-13, .cls-14, .cls-15, .cls-16, .cls-17 {
        stroke-width: 0px;
      }

      .cls-2 {
        fill: #e46a50;
      }

      .cls-3 {
        fill: #a19b39;
      }

      .cls-4 {
        fill: #9c3110;
      }

      .cls-5 {
        fill: #085eff;
      }

      .cls-6 {
        fill: #002491;
      }

      .cls-7 {
        fill: #fff;
      }

      .cls-8 {
        fill: #f8c45b;
      }

      .cls-9 {
        fill: #deaa40;
      }

      .cls-10 {
        fill: #0095ff;
      }

      .cls-11 {
        fill: #29d0ff;
      }

      .cls-12 {
        fill: #0065ff;
      }

      .cls-13 {
        fill: #a65b44;
      }

      .cls-14 {
        fill: #0037e3;
      }

      .cls-15 {
        fill: #85802b;
      }

      .cls-16 {
        fill: #1d1d1b;
      }

      .cls-17 {
        fill: #b36c55;
      }
    </style>
  </defs>
  <g id="_Ńëîé_1" data-name="Ńëîé 1">
    <g>
      <g>
        <path class="cls-14" d="m532.61,243.46c-7.38,55.97-118.47,100.6-255.58,101.91-2.18.02-4.36.03-6.54.03-.59,0-1.18,0-1.78,0h-.18c-143.33-.5-259.23-48.29-260-107.3l10.28-27.38,29.33-75.47h445.28l25.69,71.82h0c0,.06.03.17.07.34.27,1.21,1.29,5.4,2.98,7.88l6.43,17.34,3.8,10.25.22.58Z"/>
        <path class="cls-14" d="m541.53,255.79c0,66.63-121.23,110.36-270.77,110.36S0,322.42,0,255.79s121.23-86.08,270.77-86.08,270.77,19.45,270.77,86.08Z"/>
        <path class="cls-14" d="m533.01,237.5c0,2-.13,3.98-.4,5.95-7.5,56.82-121.86,101.94-261.84,101.94S9.3,297.41,8.53,238.1c-.01-.2-.01-.4-.01-.6,0-10.42,3.59-19.27,10.28-26.78,31.62-35.43,132.45-41.02,251.97-41.02s213.18,5.19,248.34,37.36c9.02,8.25,13.91,18.27,13.91,30.43Z"/>
        <path class="cls-14" d="m519.26,207.49s-.05-.05-.08-.07c-.04-.17-.06-.28-.07-.33l.15.4Z"/>
        <path class="cls-5" d="m270.77,54.52c-122.97,0-222.66,36.72-222.66,82.02s99.69,82.02,222.66,82.02,222.66-36.72,222.66-82.02-99.69-82.02-222.66-82.02Zm131.87,137.82c-36.15,9.97-81.99,15.93-131.86,15.93s-95.7-5.96-131.86-15.93c-48.55-13.37-79.66-33.98-79.66-57.09,0-40.33,94.7-73.02,211.53-73.02s211.52,32.69,211.52,73.02c0,23.11-31.1,43.72-79.66,57.09Z"/>
        <g>
          <path class="cls-14" d="m482.06,135.02c0,23.11-31.1,43.72-79.66,57.09-36.15,9.97-81.99,15.93-131.86,15.93s-95.7-5.96-131.86-15.93c-48.55-13.37-79.66-33.98-79.66-57.09,0-40.33,94.7-73.02,211.53-73.02s211.52,32.69,211.52,73.02Z"/>
          <path class="cls-6" d="m270.54,208.28c-48.5,0-94.12-5.51-131.92-15.94-50.74-13.97-79.83-34.86-79.83-57.31,0-19.61,22.06-38.02,62.11-51.85,39.98-13.8,93.12-21.4,149.65-21.4s109.66,7.6,149.64,21.4c40.05,13.83,62.11,32.24,62.11,51.85,0,22.45-29.09,43.34-79.82,57.31-37.83,10.43-83.45,15.94-131.92,15.94Zm0-146.04c-116.51,0-211.3,32.65-211.3,72.79,0,11.22,7.24,21.99,21.53,32.01,13.66,9.58,33.71,18.18,57.97,24.86,37.76,10.42,83.34,15.93,131.8,15.93s94.01-5.51,131.8-15.93c24.26-6.68,44.31-15.28,57.96-24.86,14.28-10.02,21.52-20.79,21.52-32.01,0-40.14-94.78-72.79-211.29-72.79Z"/>
        </g>
        <path class="cls-12" d="m420.29,186.9c-4.64,1.53-12.88,4.06-17.9,5.44-36.15,9.97-81.99,15.93-131.86,15.93s-95.7-5.96-131.86-15.93c-5.03-1.38-15.18-4.75-19.81-6.29,3.36-4.91,8.44-9.3,14.49-13.65,1.16,2.09,16.62,7.21,16.62,7.21,16.94-10.66,28.03-13.57,42.18-17.62,14.82-4.25,23.48-5.81,43.69-7.92,0,0-7.64-10.48-9.35-14.17,14.33-1.86,29.19-2.82,44.04-2.82,33.79,0,67.58,5,95.16,14.08,12.99,4.28,23.83,9.19,32.21,14.62,10.32,6.68,17.78,13.46,22.4,21.12Z"/>
        <path class="cls-5" d="m402.63,192.34c-36.15,9.97-81.99,15.93-131.86,15.93s-95.7-5.95-131.86-15.93c4.63-17.97,61.89-40.12,131.86-40.12s127.23,22.15,131.86,40.12Z"/>
        <path class="cls-5" d="m532.65,233.75c.68-8.07-6.76-20.34-13.54-26.68,2.81,7.57,7.73,14.55,9.43,22.41,2.35,10.91-.09,22.26-6.55,31.23-8.9,12.36-20.45,22.82-33.36,30.65-36.87,22.38-81.45,34.39-123.66,41.09-55.04,8.74-111.69,9.56-167.02,3.01-45.13-5.34-92.28-16.28-132.97-37.16-16.08-8.25-31.49-19-43.12-33.06-7.23-8.74-10.39-18.9-9.82-30.44.5-10.14,4.73-18.3,8.16-27.55-17.63,16.47-14.05,43.29-.93,61.22,10.16,13.89,24.6,24.27,39.45,32.63,39.59,22.3,85.8,33.01,130.47,38.99,48.4,6.48,97.61,7.06,146.18,1.98,45.61-4.77,92.2-14.26,133.83-34.12,28.04-13.38,66.71-38.01,63.45-74.21Z"/>
        <path class="cls-12" d="m389.92,355.91c11.61-2.33,41.87-9.46,58.99-15.21,27.8-9.33,46-20.49,55.02-26.25l-5.4-23.42-5.11-2.74-42.52-103.8c-6.32,3.22-18.32,8.59-37.01,14.53-19.19,6.1-32.64,8.55-44.23,10.61l13.22,119.66,5.48,4.8,1.56,21.8Z"/>
        <path class="cls-10" d="m235.83,154.07c-20.22,2.11-28.87,3.67-43.69,7.92-14.15,4.05-25.24,6.96-42.18,17.62,0,0-15.46-5.12-16.62-7.21,3.05-2.19,6.35-4.38,9.81-6.62,8.38-5.43,19.22-10.34,32.2-14.62,15.46-5.09,32.86-8.9,51.13-11.26,1.71,3.69,9.35,14.17,9.35,14.17Z"/>
        <path class="cls-12" d="m226.48,139.9c-18.27,2.36-35.67,6.17-51.13,11.26-12.99,4.28-23.82,9.19-32.2,14.62-3.46,2.23-6.76,4.42-9.81,6.62-9.96-17.95-24.42-84.4-24.42-84.4,14.36-5.99,26.24-9.38,42.88-13.4,15.1-3.64,44.4-8.78,58.93-9.71,0,0,8.56,58.57,15.68,74.84.02.06.05.11.08.17Z"/>
        <path class="cls-14" d="m402.63,192.39c-.83.23-.82.23-1.66.45-13.94-21.22-66.23-38.74-130.61-38.74s-115.71,16.75-130.65,38.41c-.61-.17-.2.04-.81-.12,4.63-17.97,61.9-40.12,131.86-40.12s127.23,22.15,131.86,40.12Z"/>
        <path class="cls-10" d="m449.9,314.06c-7.72,3.01-27.48,10.1-42.83,14.29-12.38,3.38-21.95,4.58-19.66,2.6,1.25-1.08,9.28-2.81,19.5-5.74,13.62-3.9,31.13-9.42,41.62-13.43,2.17-.83,14.49-5.97,25.42-11.16,11.68-5.54,21.9-11.05,20.54-9.06-2.75,4.02-30.06,16.84-44.59,22.5Z"/>
        <path class="cls-10" d="m410.99,198.46c-48.9,15.08-125.02,21.22-120.8,14.93,3.83-5.7,56.06-2,121.73-20.98,36.17-10.45,60.08-28.2,71.92-45.18,4.48-6.43,5.1.56,2.16,5.9-10.78,19.54-54.63,39.04-75.01,45.33Z"/>
        <path class="cls-11" d="m189.13,161.11c-13.65,3.2-25.87,8.44-34.7,13.28-5.24,2.88-5.86,5.63-4.18,4.49,9.64-6.54,20.54-11.24,40.06-16.62,10.93-3.01,24.88-5.84,34.53-7.17,7.21-.99,11.77-1.21,10.28-1.78-1.49-.57-11.3.24-22.03,2-9.64,1.58-18.2,4.46-23.95,5.81Z"/>
        <path class="cls-10" d="m492.96,136.08c.02.57-.01,1.15-.05,1.72-2.47-44.51-100.73-80.77-222.15-80.77S51.09,93.29,48.62,137.79c-.04-.57-.05-1.14-.05-1.72,0-44.45,99.23-81.1,222.2-81.1s220.97,35.69,222.2,81.1Z"/>
        <path class="cls-11" d="m156.36,67.15c-4.47.91-60.17,15.46-52.64,19.73,2.28,1.29,8.99-3.27,12.57-4.31,11.68-3.39,23.83-7.89,36.42-10.72,22.95-5.16,41.42-8.26,53.5-9.37,7.8-.72,11.4-2.31,5.33-3-11.02-1.27-47,6-55.19,7.67Z"/>
        <path class="cls-6" d="m270.33,345.71c-27.26,0-54.39-1.79-81.17-5.38-54.85-7.34-96.33-19.74-130.55-39.02-17.86-10.06-30.79-20.76-39.52-32.7-6.74-9.21-10.79-20.62-11.11-31.29-.36-12.07,3.81-22.52,12.07-30.24l.71-.66-.34.91c-.74,1.98-1.51,3.93-2.27,5.81-2.82,7.06-5.49,13.73-5.88,21.67-.57,11.57,2.71,21.76,9.77,30.28,10.4,12.58,24.89,23.68,43.04,33,35.98,18.46,80.69,30.96,132.89,37.14,56.28,6.66,112.45,5.65,166.95-3.01,50.27-7.98,91.85-21.8,123.58-41.06,13.09-7.94,24.6-18.52,33.29-30.59,6.46-8.97,8.83-20.29,6.51-31.05-1.02-4.72-3.25-9.21-5.41-13.55-1.42-2.86-2.89-5.82-4.01-8.83l-.34-.91.71.66c7.1,6.64,14.26,19,13.62,26.85,1.44,16.13-5.31,31.55-20.06,45.83-10.58,10.24-25.22,19.86-43.52,28.59-36.38,17.36-80.19,28.53-133.91,34.14-21.68,2.27-43.41,3.4-65.06,3.4ZM19.64,208.12c-16.89,16.61-12.97,42.73-.17,60.22,8.69,11.89,21.57,22.54,39.37,32.57,34.17,19.25,75.6,31.63,130.38,38.97,48.02,6.43,97.19,7.1,146.12,1.98,53.67-5.61,97.42-16.77,133.76-34.1,30.61-14.6,66.44-39.29,63.32-73.98v-.02s0-.02,0-.02c.62-7.44-5.95-19.07-12.73-25.78,1.05,2.66,2.36,5.28,3.62,7.82,2.17,4.37,4.42,8.88,5.45,13.66,2.35,10.89-.05,22.34-6.59,31.41-8.73,12.12-20.29,22.74-33.43,30.72-31.78,19.29-73.42,33.13-123.75,41.12-54.55,8.66-110.76,9.68-167.08,3.01-52.26-6.19-97.02-18.7-133.05-37.19-18.21-9.35-32.74-20.49-43.19-33.12-7.13-8.62-10.45-18.91-9.87-30.6.4-8.02,3.08-14.72,5.92-21.82.63-1.58,1.28-3.21,1.91-4.86Z"/>
        <path class="cls-11" d="m411.92,198.92c-7.75,2.08-55.74,13.45-51.51,7.17,3.83-5.7,31.4-8.18,51.53-13.68,3.01-.82,22.54-9.07,34.39-12.36,7.55-2.1,12.05-1.39,6.93,1.95-9.29,6.06-33.26,14.76-41.33,16.92Z"/>
        <path class="cls-6" d="m270.77,218.79c-59.5,0-115.44-8.54-157.52-24.04-42.15-15.53-65.36-36.2-65.36-58.21s23.21-42.68,65.36-58.21c42.08-15.5,98.02-24.04,157.52-24.04s115.44,8.54,157.52,24.04c42.15,15.53,65.37,36.2,65.37,58.21s-23.21,42.69-65.37,58.21c-42.08,15.5-98.02,24.04-157.52,24.04Zm0-164.04c-122.65,0-222.43,36.69-222.43,81.79s99.78,81.79,222.43,81.79,222.43-36.69,222.43-81.79-99.78-81.79-222.43-81.79Zm0,153.76c-48.5,0-94.12-5.51-131.92-15.94-50.74-13.97-79.83-34.86-79.83-57.31,0-19.61,22.06-38.02,62.11-51.85,39.98-13.8,93.12-21.4,149.65-21.4s109.66,7.6,149.64,21.4c40.05,13.83,62.11,32.24,62.11,51.85,0,22.45-29.09,43.34-79.82,57.31h0c-37.83,10.43-83.45,15.94-131.92,15.94Zm0-146.04c-116.51,0-211.3,32.65-211.3,72.79,0,11.22,7.24,21.99,21.53,32.01,13.66,9.58,33.71,18.18,57.97,24.86,37.76,10.42,83.34,15.93,131.8,15.93s94.01-5.51,131.8-15.93h0c24.26-6.68,44.31-15.28,57.96-24.86,14.28-10.02,21.52-20.79,21.52-32.01,0-40.14-94.78-72.79-211.29-72.79Z"/>
      </g>
      <path class="cls-4" d="m496.49,153.81c-5.01,10.44-18.92,10.49-29.24,4.63-.05,1.18-.24,2.37-.61,3.55l-15.55,11.15c-2.31.14-14.87,4.29-16.93,6.18-3.24,13.91-25.23,25.44-37.8,14.48l-5.42,1.49c-.11-.02-.21-.05-.32-.07l-3.16.87c-2.86-.47-6.11-.31-5.71,1.07-4.57,0-9.21.58-13.87,1.4-5.94,14.35-22.3,13.41-32.99,6.04-9.02,1.06-18.12,1.89-27.13,2.24-8.33,5.75-19.93,7.59-27.47,1.12-3.48-.02-6.96-.08-10.42-.14-2.33-.01-4.65-.03-6.97-.06,0-.01,0-.02.01-.03-.61,0-1.22,0-1.83,0,0,0,0,.01.01.02-.19,0-.39,0-.58,0-2.69.22-5.43.3-8.21.3-2.7,1.77-6,3.11-9.97,3.82-7.6,1.47-12.85.06-16.17-2.96-6.72,2.64-15.08.2-21.63-4.79-2.03-.25-4.06-.51-6.08-.77-.06,0-.11-.02-.17-.02-.18.22.2-.19,0,0l-4.59-.93c-9.67,6.28-27.14,4.16-34.19-5.61-1.06-.24-2.13-.49-3.19-.75-7.97-1.79-15.9-3.83-23.67-6.18-.35.22-.73.43-1.14.61l-3.39-1.28c-.09.05-.18.1-.27.14l-9.47-3.33c-2.13,1.02-4.55,1.81-7.29,2.31-14.7,2.83-20.61-5.07-20.8-14.6-3.45-1.97-7.58-4.55-11.34-7.49l-2.09-1.32c-.35-.39-.7-.8-1.04-1.2-4.33-3.62-7.29-6.62-8.88-8.32-11.29,2.03-23.45-2.4-24.77-17.13-.47-5.27,1.48-9.42,4.81-12.44,4.11-6.23,13.4-7.31,21.67-5.77.27.03-8.34-14.68-2.21-24.53,2.79-4.49,6.85-6.63,11.32-7.04,5.86-2.08,12.44.85,17.75,5.48-.73-3.9-.08-8.28,2.54-12.99,2.56-4.62,6.52-6.96,10.96-7.6,5.41-2.23,11.68-.05,17.02,3.85-.62-3.19-.23-6.56,1.53-9.93,3.15-6.01,10.05-8.64,17.41-8.6.33-2.74,1.34-5.63,3.2-8.62,2.79-4.49,6.85-6.63,11.33-7.04,4.12-1.47,8.61-.44,12.76,1.9.33-1.26.82-2.48,1.46-3.64,2.11-7.13,10.76-11.27,19.09-12.55,2.88-.54,5.81-.66,8.59-.27,2.36.25,4.42.82,5.94,1.68.47-1.48,1.17-2.87,2.08-4.17,2.62-6.98,11.44-10.11,19.84-10.45,1.73-.18,3.45-.22,5.12-.11.15-.98.35-1.99.65-3.04,1.41-5.09,4.71-8.29,8.88-9.94,6.05-4.37,15.12-2.12,22.32,2.24,5.2,2.7,9.46,6.73,11.23,11.55.19-.14.38-.29.58-.43,6.61-5.22,15.54-8.72,22.19-5.41,4.61,1.18,8.48,4.17,10.5,9.47,1.43,3.74,1.75,7.2,1.23,10.34.75-.88,1.59-1.68,2.53-2.39,4.65-5.84,14-6.1,22.1-3.83,7.9,1.66,14.78,6.25,16.31,13.47.14.69.24,1.36.3,2.03,11.41-.29,23.01,5.62,21.14,17.45,3.96-4.51,10.65-6.27,17.47-5.8,8.41.02,17.34,2.8,20.23,9.68,2.7,3.59,3.86,8.03,2.42,13.12-.11.4-.24.8-.37,1.19,13.37-7.62,38.64-1.76,33.1,16.73.25-.26.51-.52.79-.78,5.43-4.99,13.69-4.73,21.09-1.5,7.92,2.86,15.38,8.49,15.78,15.95,1.33,4.29.92,8.86-2.15,13.16-1.25,1.76-2.6,3.19-4,4.36,4.28,1.45,8.47,4.39,11.85,7.8,2.13,2.02,3.95,4.31,5.27,6.79,1.34,2.33,2.13,4.57,2.19,6.44.47,3.21.06,6.54-1.52,9.83Z"/>
      <g>
        <path class="cls-13" d="m58.85,328.89c-21.07,20.97-49.58-6.47-30.66-25.98,13.33-13.74,53.6,3.68,30.66,25.98Z"/>
        <path class="cls-17" d="m24.06,313.34c-.82,27.98,31.85,14.64,39.27.31,5.27-10.18-38.48-27.15-39.27-.31Z"/>
      </g>
      <g>
        <path class="cls-15" d="m414.99,341.77c-14.73,26.52,32.63,42.8,39.84,19.5,5.69-18.36-29.13-38.79-39.84-19.5Z"/>
        <path class="cls-3" d="m418.65,341.25c-13.6,24.47,21.54,27.65,34.73,18.33,9.37-6.62-21.68-41.81-34.73-18.33Z"/>
      </g>
      <g>
        <path class="cls-9" d="m172.6,370.91c-20.62,22.26,21.51,49.33,34.06,28.42,9.89-16.48-19.06-44.6-34.06-28.42Z"/>
        <path class="cls-8" d="m176.28,371.28c-19.03,20.54,14.35,31.98,29.37,26.07,10.67-4.2-11.11-45.77-29.37-26.07Z"/>
      </g>
      <g>
        <path class="cls-1" d="m106.64,389.08c15.5,26.08-31.37,43.73-39.26,20.64-6.22-18.19,27.99-39.61,39.26-20.64Z"/>
        <path class="cls-2" d="m102.97,388.67c14.3,24.07-20.73,28.26-34.18,19.33-9.55-6.34,20.46-42.42,34.18-19.33Z"/>
      </g>
      <g>
        <path class="cls-13" d="m538.95,333.79c15.5,26.08-31.37,43.73-39.26,20.64-6.22-18.19,27.99-39.61,39.26-20.64Z"/>
        <path class="cls-17" d="m535.27,333.38c14.3,24.07-20.73,28.26-34.18,19.33-9.55-6.34,20.46-42.42,34.18-19.33Z"/>
      </g>
      <g>
        <path class="cls-15" d="m63.47,357.58c29.26-5.29,23.05-44.37-3.78-40.01-18.9,3.08-27.64,46.07,3.78,40.01Z"/>
        <path class="cls-3" d="m70.61,320.14c23.42,15.34-6.2,34.5-22.21,32.39-11.37-1.5-.26-47.1,22.21-32.39Z"/>
      </g>
      <g>
        <path class="cls-9" d="m105.18,243.01c20.34,21.68,49.77-4.77,31.53-24.91-12.85-14.19-53.69,1.84-31.53,24.91Z"/>
        <path class="cls-8" d="m140.48,228.66c-.14,27.99-32.33,13.54-39.25-1.04-4.92-10.36,39.39-25.82,39.25,1.04Z"/>
      </g>
      <g>
        <path class="cls-9" d="m82.21,293c-8.29,28.55-46.52,18.33-39.4-7.9,5.02-18.48,48.69-22.72,39.4,7.9Z"/>
        <path class="cls-8" d="m44.24,296.22c12.83,24.88,34.95-2.6,34.51-18.73-.31-11.46-46.82-5.14-34.51,18.73Z"/>
      </g>
      <g>
        <path class="cls-13" d="m110.06,369.66c-27.17,12.06-43.99-23.77-19.35-35.22,17.36-8.07,48.74,22.59,19.35,35.22Z"/>
        <path class="cls-17" d="m83.13,342.7c-10.76,25.84,24.51,25.06,36.56,14.32,8.56-7.63-26.23-39.12-36.56-14.32Z"/>
      </g>
      <g>
        <path class="cls-1" d="m144.55,384.27c29.21-5.54,22.66-44.58-4.13-39.97-18.87,3.24-27.23,46.31,4.13,39.97Z"/>
        <path class="cls-2" d="m151.36,346.77c23.56,15.13-5.9,34.55-21.92,32.58-11.38-1.4-.68-47.09,21.92-32.58Z"/>
      </g>
      <g>
        <g>
          <g>
            <path class="cls-13" d="m460.86,124.95c-10.15,31.3-57.02-1.7-37.86-23.51,13.26-15.09,43.77,5.56,37.86,23.51Z"/>
            <path class="cls-16" d="m445,139.81c-9.98,0-21.22-7.29-26.14-17.17-4-8.03-3.07-16.03,2.63-22.52,6.21-7.06,16.85-7.83,27.13-1.96,9.69,5.54,17.65,16.73,14.14,27.41-2.78,8.57-8.57,13.6-16.3,14.18-.48.04-.98.05-1.47.05Zm-10.1-41.6c-3.82,0-7.52,1.28-10.4,4.56-6.15,7-3.93,14.34-2.06,18.09,4.42,8.86,15.07,15.55,23.73,14.91,6.09-.45,10.51-4.4,12.79-11.43h0c2.85-8.65-4.05-17.96-12.33-22.7-3.5-2-7.68-3.44-11.73-3.44Z"/>
          </g>
          <path class="cls-17" d="m456.81,126.95c-18.45,21.05-33.29-10.95-28.97-26.5,3.07-11.05,46.68,6.3,28.97,26.5Z"/>
        </g>
        <path class="cls-3" d="m101.5,138.25c-7.61,26.94-34.77,4.42-37.55-11.48-1.98-11.3,44.86-14.36,37.55,11.48Z"/>
        <path class="cls-15" d="m108.85,164.84c-1.96,6.94-6,10.99-10.86,12.85,0,0-10.47-4.8-19.05-11.51-8.89-6.94-13.37-12.37-13.37-12.37.3-1.07.72-2.15,1.28-3.23,8.91-17.03,48-6.97,42,14.26Z"/>
        <g>
          <g>
            <path class="cls-7" d="m250.15,100.55c-14.73,26.52,32.63,42.8,39.84,19.5,5.69-18.36-29.13-38.79-39.84-19.5Z"/>
            <path class="cls-16" d="m272.97,133.25c-9.3,0-19.16-4.67-24.13-11.81-4.52-6.48-4.68-14.24-.44-21.86,4.87-8.77,14.87-11.24,26.08-6.45,11.26,4.81,20.86,16.42,17.42,27.51-2.09,6.76-7.39,11.13-14.92,12.3-1.31.2-2.65.3-4,.3Zm-9.21-38.46c-4.68,0-9.14,1.82-11.87,6.73h0c-4.42,7.96-2.32,13.98.23,17.63,4.8,6.88,15.45,11.21,24.24,9.84,4.2-.65,9.65-2.84,11.72-9.53,2.77-8.94-5.54-18.54-15.17-22.65-2.86-1.22-6.05-2.02-9.15-2.02Z"/>
          </g>
          <g>
            <path class="cls-7" d="m253.81,100.03c-13.6,24.47,21.54,27.65,34.73,18.33,9.37-6.62-21.68-41.81-34.73-18.33Z"/>
            <path class="cls-16" d="m270.56,125.16c-6.72,0-13.32-1.66-17.49-5.4-3.12-2.8-7.4-9.21-1.02-20.71,4.69-8.45,11.23-9.48,15.88-8.85,10.68,1.43,21.85,13.04,23.98,21.7,1.19,4.83-.88,7.14-2.23,8.09-4.63,3.27-11.95,5.16-19.13,5.16Zm-16.75-25.13l1.75.97c-3.84,6.91-3.78,12.23.19,15.79,7.16,6.42,23.89,5.41,31.63-.06,1.13-.8.97-2.54.65-3.87-1.79-7.26-11.85-17.52-20.62-18.7-4.98-.66-8.96,1.63-11.85,6.83l-1.75-.97Z"/>
          </g>
        </g>
        <g>
          <path class="cls-15" d="m426.8,142.49c-10.1,18.18,8.97,31.54,24.29,30.65l15.55-11.15c5.69-18.36-29.13-38.79-39.84-19.5Z"/>
          <path class="cls-3" d="m430.46,141.97c-13.6,24.47,21.54,27.65,34.73,18.33,9.37-6.62-21.68-41.81-34.73-18.33Z"/>
        </g>
        <g>
          <path class="cls-9" d="m186.45,111.22c-8.25,29.2-53.31,7.35-42-14.26,8.91-17.03,48-6.97,42,14.26Z"/>
          <path class="cls-8" d="m184.22,108.27c-7.61,26.94-34.77,4.42-37.55-11.48-1.98-11.3,44.86-14.36,37.55,11.48Z"/>
        </g>
        <path class="cls-15" d="m439.44,149.42c-14.88,25.74-49.56,6.66-36.36-17.1,9.3-16.74,52.71-10.4,36.36,17.1Z"/>
        <g>
          <path class="cls-13" d="m218.07,131.24c-12.36,25.18-52.01,1.62-41.46-17.93,11.13-20.64,51.88-3.3,41.46,17.93Z"/>
          <path class="cls-17" d="m219.56,127.94c-12.34,25.13-35-1.91-34.87-18.05.09-11.47,46.71-6.06,34.87,18.05Z"/>
        </g>
        <g>
          <path class="cls-1" d="m417.5,130.24c-8.25,29.2-53.31,7.35-42-14.26,8.91-17.03,48-6.97,42,14.26Z"/>
          <path class="cls-2" d="m415.27,127.29c-7.61,26.94-34.77,4.42-37.55-11.48-1.98-11.3,44.86-14.36,37.55,11.48Z"/>
        </g>
        <g>
          <path class="cls-15" d="m297.9,107.93c10,26.21-34.26,39.15-41.38,18.12-7.51-22.21,32.95-40.21,41.38-18.12Z"/>
          <path class="cls-3" d="m294.35,106.9c9.98,26.16-25.25,24.3-36.98,13.21-8.33-7.88,27.4-38.31,36.98-13.21Z"/>
        </g>
        <path class="cls-13" d="m298.56,132.23c7.39,27,34.73,4.7,37.64-11.18,2.07-11.28-44.74-14.73-37.64,11.18Z"/>
        <g>
          <path class="cls-9" d="m403.24,156.05c-8.25,29.2-53.31,7.35-42-14.26,8.91-17.03,48-6.97,42,14.26Z"/>
          <path class="cls-8" d="m401.01,153.1c-7.61,26.94-34.77,4.42-37.55-11.48-1.98-11.3,44.86-14.36,37.55,11.48Z"/>
        </g>
        <g>
          <path class="cls-13" d="m230.91,165.64c.02,28,32.27,13.68,39.26-.86,4.97-10.34-39.28-25.99-39.26.86Z"/>
          <path class="cls-17" d="m235.78,167.83c.02,28,32.27,13.68,39.26-.86,4.97-10.34-39.28-25.99-39.26.86Z"/>
        </g>
        <g>
          <path class="cls-9" d="m398.47,176.58c12.91,24.9,52.03.47,41.05-18.84-11.59-20.38-51.94-2.16-41.05,18.84Z"/>
          <path class="cls-8" d="m400.06,173.24c12.89,24.85,34.95-2.68,34.47-18.82-.34-11.46-46.83-5.03-34.47,18.82Z"/>
        </g>
        <g>
          <path class="cls-15" d="m326.04,128.75c-14.73,26.52,32.63,42.8,39.84,19.5,5.69-18.36-29.13-38.79-39.84-19.5Z"/>
          <path class="cls-3" d="m331.34,129.49c-13.6,24.47,21.54,27.65,34.73,18.33,9.37-6.62-21.68-41.81-34.73-18.33Z"/>
        </g>
        <path class="cls-3" d="m298.83,147.47c-13.6,24.47,21.54,27.65,34.73,18.33,9.37-6.62-21.68-41.81-34.73-18.33Z"/>
        <path class="cls-17" d="m285.11,174c-13.6,24.47,21.54,27.65,34.73,18.33,9.37-6.62-21.68-41.81-34.73-18.33Z"/>
        <g>
          <path class="cls-13" d="m353.68,203c-3.5-10.11-.99-16.79,1.74-20.62,4-5.62,11.39-8.98,19.75-8.98,11.21,0,24.05,5.29,28.05,19.03,0,0-18.27,4.41-24.89,5.74-7.37,1.49-24.65,4.83-24.65,4.83Z"/>
          <path class="cls-17" d="m399.76,193.42c-13.91,1.7-28.36,6.76-42.42,8.3-10.22-29.5,35.02-33.69,42.42-8.3Z"/>
        </g>
        <g>
          <path class="cls-9" d="m164.75,118.64c-16.03,25.76,30.47,44.36,38.83,21.44,6.59-18.06-27.17-40.18-38.83-21.44Z"/>
          <path class="cls-8" d="m168.43,118.31c-14.79,23.77,20.15,28.68,33.78,20.03,9.68-6.15-19.59-42.83-33.78-20.03Z"/>
        </g>
        <path class="cls-13" d="m260.78,207.71c-12.23,1.02-25.6-.55-37.98-1.88,4.91-15.78,32.16-11.41,37.98,1.88Z"/>
        <g>
          <path class="cls-9" d="m262.6,146.54c-8.12,29.23,41.73,33.98,43.3,9.64,1.23-19.18-37.39-30.9-43.3-9.64Z"/>
          <path class="cls-8" d="m266.04,145.19c-7.5,26.97,27.41,21.84,38.05,9.7,7.56-8.62-30.86-35.58-38.05-9.7Z"/>
        </g>
        <g>
          <path class="cls-1" d="m383.1,168.33c-8.25,29.2-53.31,7.35-42-14.26,8.91-17.03,48-6.97,42,14.26Z"/>
          <path class="cls-2" d="m380.87,165.38c-7.61,26.94-34.77,4.42-37.55-11.48-1.98-11.3,44.86-14.36,37.55,11.48Z"/>
        </g>
        <path class="cls-3" d="m168.35,198.53c-12.1-2.36-24.28-5.21-36.08-8.82,7.48-8.23,35.15-5.68,36.08,8.82Z"/>
        <g>
          <path class="cls-1" d="m289.49,197.1c-2.94,5.09-6.66,8.42-10.62,10.32l-16.95.23c-9.54-4.16-15.66-15.27-8.79-27.65,9.3-16.74,52.71-10.4,36.36,17.1Z"/>
          <path class="cls-2" d="m250.81,191.4c6.5,27.23,34.56,5.85,37.99-9.92,2.44-11.2-44.23-16.2-37.99,9.92Z"/>
        </g>
        <g>
          <path class="cls-13" d="m236.11,197.11c-10.15,31.3-57.02-1.7-37.86-23.51,13.26-15.09,43.77,5.56,37.86,23.51Z"/>
          <path class="cls-17" d="m232.06,199.12c-18.45,21.05-33.29-10.95-28.97-26.5,3.07-11.05,46.68,6.3,28.97,26.5Z"/>
        </g>
        <path class="cls-13" d="m347.83,202.94c-14.53,1.98-29.41,3.69-44.03,4.02-6.62-26.47,47.94-35.75,44.03-4.02Z"/>
        <g>
          <path class="cls-15" d="m202.61,152.5c9.36,28.86,53.56,5.3,41.42-15.86-9.56-16.68-48.23-5.13-41.42,15.86Z"/>
          <path class="cls-3" d="m204.72,149.46c8.64,26.63,34.91,3.08,37.08-12.91,1.54-11.36-45.37-12.63-37.08,12.91Z"/>
        </g>
        <g>
          <path class="cls-1" d="m348.95,184.68c-12.36,25.18-52.01,1.62-41.46-17.93,11.13-20.64,51.88-3.3,41.46,17.93Z"/>
          <path class="cls-2" d="m347.29,181.38c-12.34,25.13-35-1.91-34.87-18.05.09-11.47,46.71-6.06,34.87,18.05Z"/>
        </g>
        <g>
          <path class="cls-13" d="m174.54,169.23c8.01,29.26,53.25,7.78,42.12-13.92-8.78-17.1-47.94-7.36-42.12,13.92Z"/>
          <path class="cls-17" d="m176.79,166.3c7.39,27,34.73,4.7,37.64-11.18,2.07-11.28-44.74-14.73-37.64,11.18Z"/>
        </g>
        <g>
          <path class="cls-1" d="m157.92,178.99c-11.01,28.27,38.12,37.99,42.11,13.92,3.15-18.96-34.11-34.48-42.11-13.92Z"/>
          <path class="cls-2" d="m161.48,177.98c-10.16,26.09,25.09,24.47,36.89,13.46,8.38-7.82-27.15-38.49-36.89-13.46Z"/>
        </g>
        <g>
          <path class="cls-9" d="m242.35,211.85c29.25-5.29,23.05-44.37-3.78-40.01-18.9,3.08-27.64,46.07,3.78,40.01Z"/>
          <path class="cls-8" d="m249.49,174.42c23.42,15.34-6.2,34.5-22.21,32.39-11.37-1.5-.26-47.1,22.21-32.39Z"/>
        </g>
        <g>
          <path class="cls-13" d="m135.08,187.72c-1.03,1.11-2.09,2.06-3.58,2.72l-33.61-12.75c-2.65-6.47-2.66-13.77,2.6-19.02,16.58-16.58,50.65,11.69,34.59,29.05Z"/>
          <path class="cls-17" d="m134.43,184.08c-2.27,2.46-4.48,4.16-6.58,5.22l-16.83-5.93c-5-7.49-7.14-19.05-4.83-26.57,3.37-10.96,46.49,7.57,28.24,27.28Z"/>
        </g>
        <g>
          <path class="cls-1" d="m308.59,39.7c.02,30.34,49.32,21.54,44.29-2.33-3.96-18.81-44.31-19.73-44.29,2.33Z"/>
          <path class="cls-2" d="m311.54,37.47c.02,28,32.27,13.68,39.26-.86,4.97-10.34-39.28-25.99-39.26.86Z"/>
        </g>
        <g>
          <path class="cls-15" d="m243.77,42.11c-14.77,26.58,32.68,42.62,39.84,19.5,5.69-18.36-29.13-38.79-39.84-19.5Z"/>
          <path class="cls-3" d="m249.65,42.14c-13.6,24.47,21.54,27.65,34.73,18.33,9.37-6.62-21.68-41.81-34.73-18.33Z"/>
        </g>
        <g>
          <path class="cls-1" d="m444.32,98.07c-14.88,25.74-49.56,6.66-36.36-17.1,9.3-16.74,52.71-10.4,36.36,17.1Z"/>
          <path class="cls-2" d="m406.68,92.11c6.5,27.23,34.56,5.85,37.99-9.92,2.44-11.2-44.23-16.2-37.99,9.92Z"/>
        </g>
        <g>
          <path class="cls-9" d="m414.45,73.84c-8.25,29.2-53.31,7.35-42-14.26,8.91-17.03,48-6.97,42,14.26Z"/>
          <path class="cls-8" d="m412.22,70.89c-7.61,26.94-34.77,4.42-37.55-11.48-1.98-11.3,44.86-14.36,37.55,11.48Z"/>
        </g>
        <g>
          <path class="cls-9" d="m207.49,39.11c9.36,28.86,53.56,5.3,41.42-15.86-9.56-16.68-48.23-5.13-41.42,15.86Z"/>
          <path class="cls-8" d="m209.61,36.08c8.64,26.63,34.91,3.08,37.08-12.91,1.54-11.36-45.37-12.63-37.08,12.91Z"/>
        </g>
        <g>
          <path class="cls-13" d="m310.72,19.79c10,26.21-34.26,39.15-41.38,18.12-7.51-22.21,32.95-40.21,41.38-18.12Z"/>
          <path class="cls-17" d="m310.33,18.76c9.98,26.16-25.25,24.3-36.98,13.21-8.33-7.88,27.4-38.31,36.98-13.21Z"/>
        </g>
        <g>
          <path class="cls-9" d="m287.72,62.89c8.01,29.26,53.25,7.78,42.12-13.92-8.78-17.1-47.94-7.36-42.12,13.92Z"/>
          <path class="cls-8" d="m289.97,59.97c7.39,27,34.73,4.7,37.64-11.18,2.07-11.28-44.74-14.73-37.64,11.18Z"/>
        </g>
        <g>
          <path class="cls-15" d="m370.89,65.69c-14.88,25.74-49.56,6.66-36.36-17.1,9.3-16.74,52.71-10.4,36.36,17.1Z"/>
          <path class="cls-3" d="m333.25,59.73c6.5,27.23,34.56,5.85,37.99-9.92,2.44-11.2-44.23-16.2-37.99,9.92Z"/>
        </g>
        <g>
          <path class="cls-13" d="m405.35,107.21c-8.25,29.2-53.31,7.35-42-14.26,8.91-17.03,48-6.97,42,14.26Z"/>
          <path class="cls-17" d="m403.12,104.27c-7.61,26.94-34.77,4.42-37.55-11.48-1.98-11.3,44.86-14.36,37.55,11.48Z"/>
        </g>
        <g>
          <path class="cls-15" d="m200.48,106.7c.02,30.34,49.32,21.54,44.29-2.33-3.96-18.81-44.31-19.73-44.29,2.33Z"/>
          <path class="cls-3" d="m203.42,104.46c.02,28,32.27,13.68,39.26-.86,4.97-10.34-39.28-25.99-39.26.86Z"/>
        </g>
        <g>
          <path class="cls-15" d="m385.55,129.07c12.91,24.9,52.03.47,41.05-18.84-11.59-20.38-51.94-2.16-41.05,18.84Z"/>
          <path class="cls-3" d="m387.14,125.73c12.89,24.85,34.95-2.68,34.47-18.82-.34-11.46-46.83-5.03-34.47,18.82Z"/>
        </g>
        <g>
          <path class="cls-15" d="m274.4,198.63c9.36,28.86,53.56,5.3,41.42-15.86-9.56-16.68-48.23-5.13-41.42,15.86Z"/>
          <path class="cls-3" d="m276.51,195.6c8.64,26.63,34.91,3.08,37.08-12.91,1.54-11.36-45.37-12.63-37.08,12.91Z"/>
        </g>
        <g>
          <path class="cls-1" d="m317.41,74.1c-14.73,26.52,32.63,42.8,39.84,19.5,5.69-18.36-29.13-38.79-39.84-19.5Z"/>
          <path class="cls-2" d="m321.07,75.74c-13.6,24.47,21.54,27.65,34.73,18.33,9.37-6.62-21.68-41.81-34.73-18.33Z"/>
        </g>
        <g>
          <path class="cls-1" d="m347.68,73.09c-14.73,26.52,32.63,42.8,39.84,19.5,5.69-18.36-29.13-38.79-39.84-19.5Z"/>
          <path class="cls-2" d="m351.34,72.57c-13.6,24.47,21.54,27.65,34.73,18.33,9.37-6.62-21.68-41.81-34.73-18.33Z"/>
        </g>
        <g>
          <path class="cls-13" d="m280.08,62.92c-14.73,26.52,32.63,42.8,39.84,19.5,5.69-18.36-29.13-38.79-39.84-19.5Z"/>
          <path class="cls-17" d="m286.89,62.4c-13.6,24.47,21.54,27.65,34.73,18.33,9.37-6.62-21.68-41.81-34.73-18.33Z"/>
        </g>
        <g>
          <path class="cls-1" d="m288.18,117.49c-14.73,26.52,32.63,42.8,39.84,19.5,5.69-18.36-29.13-38.79-39.84-19.5Z"/>
          <path class="cls-2" d="m291.84,116.98c-13.6,24.47,21.54,27.65,34.73,18.33,9.37-6.62-21.68-41.81-34.73-18.33Z"/>
        </g>
        <g>
          <path class="cls-1" d="m122.55,98.07c-16.03,25.76,30.47,44.36,38.83,21.44,6.59-18.06-27.17-40.18-38.83-21.44Z"/>
          <path class="cls-2" d="m126.23,97.73c-14.79,23.77,20.15,28.68,33.78,20.03,9.68-6.15-19.59-42.83-33.78-20.03Z"/>
        </g>
        <g>
          <path class="cls-1" d="m235.02,12.31c-8.12,29.23,41.73,33.98,43.3,9.64,1.23-19.18-37.39-30.9-43.3-9.64Z"/>
          <path class="cls-2" d="m238.46,10.95c-7.5,26.97,27.41,21.84,38.05,9.7,7.56-8.62-30.86-35.58-38.05-9.7Z"/>
        </g>
        <g>
          <path class="cls-9" d="m380.05,117.7c-8.25,29.2-53.31,7.35-42-14.26,8.91-17.03,48-6.97,42,14.26Z"/>
          <path class="cls-8" d="m377.81,114.76c-7.61,26.94-34.77,4.42-37.55-11.48-1.98-11.3,44.86-14.36,37.55,11.48Z"/>
        </g>
        <g>
          <path class="cls-15" d="m338.47,110.41c-12.36,25.18-52.01,1.62-41.46-17.93,11.13-20.64,51.88-3.3,41.46,17.93Z"/>
          <path class="cls-3" d="m336.8,107.11c-12.34,25.13-35-1.91-34.87-18.05.09-11.47,46.71-6.06,34.87,18.05Z"/>
        </g>
        <g>
          <path class="cls-1" d="m272.51,140.04c-14.88,25.74-49.56,6.66-36.36-17.1,9.3-16.74,52.71-10.4,36.36,17.1Z"/>
          <path class="cls-2" d="m234.87,134.08c6.5,27.23,34.56,5.85,37.99-9.92,2.44-11.2-44.23-16.2-37.99,9.92Z"/>
        </g>
        <g>
          <path class="cls-1" d="m179.38,156.64c-10.15,31.3-57.02-1.7-37.86-23.51,13.26-15.09,43.77,5.56,37.86,23.51Z"/>
          <path class="cls-2" d="m175.32,158.64c-18.45,21.05-33.29-10.95-28.97-26.5,3.07-11.05,46.68,6.3,28.97,26.5Z"/>
        </g>
        <g>
          <path class="cls-15" d="m143.49,138.89c-10.15,31.3-57.02-1.7-37.86-23.51,13.26-15.09,43.77,5.56,37.86,23.51Z"/>
          <path class="cls-3" d="m139.43,140.89c-18.45,21.05-33.29-10.95-28.97-26.5,3.07-11.05,46.68,6.3,28.97,26.5Z"/>
        </g>
        <g>
          <path class="cls-1" d="m66.43,95.47c-16.03,25.76,30.47,44.36,38.83,21.44,6.59-18.06-27.17-40.18-38.83-21.44Z"/>
          <path class="cls-2" d="m70.11,95.14c-14.79,23.77,20.15,28.68,33.78,20.03,9.68-6.15-19.59-42.83-33.78-20.03Z"/>
        </g>
        <g>
          <path class="cls-13" d="m98.39,79c-18.07,24.37,35.71,41.47,42.93,18.17,5.69-18.36-27.82-38.54-42.93-18.17Z"/>
          <path class="cls-17" d="m104.86,80.39c-13.6,24.47,21.54,27.65,34.73,18.33,9.37-6.62-21.68-41.81-34.73-18.33Z"/>
        </g>
        <g>
          <path class="cls-1" d="m245.73,61.53c9.36,28.86,53.56,5.3,41.42-15.86-9.56-16.68-48.23-5.13-41.42,15.86Z"/>
          <path class="cls-2" d="m247.85,58.5c8.64,26.63,34.91,3.08,37.08-12.91,1.54-11.36-45.37-12.63-37.08,12.91Z"/>
        </g>
        <g>
          <path class="cls-1" d="m294.92,96.79c-14.88,25.74-49.56,6.66-36.36-17.1,9.3-16.74,52.71-10.4,36.36,17.1Z"/>
          <path class="cls-2" d="m257.28,90.83c6.5,27.23,34.56,5.85,37.99-9.92,2.44-11.2-44.23-16.2-37.99,9.92Z"/>
        </g>
        <g>
          <path class="cls-13" d="m415.95,141.47c-13.09,24.81,29.28,43.01,38.89,22.98,10.14-21.14-27.85-43.9-38.89-22.98Z"/>
          <path class="cls-17" d="m419.59,140.87c-13.07,24.76,22.13,27.18,35.11,17.58,9.22-6.82-22.57-41.34-35.11-17.58Z"/>
        </g>
        <g>
          <path class="cls-15" d="m482.69,118.58c-17.62,24.7-52.66-11.08-34.72-27.6,14.14-13.02,47.54,9.64,34.72,27.6Z"/>
          <path class="cls-3" d="m481.58,115.06c-16.26,22.79-34.22-7.58-31.47-23.49,1.95-11.3,47.07,1.62,31.47,23.49Z"/>
        </g>
        <g>
          <path class="cls-1" d="m420.86,138.93c16.02,23.03,51.65-6.25,38.28-23.98-14.12-18.72-51.79,4.56-38.28,23.98Z"/>
          <path class="cls-2" d="m422.01,135.42c15.99,22.98,34.31-7.17,31.75-23.11-1.82-11.32-47.09,1.06-31.75,23.11Z"/>
        </g>
        <g>
          <path class="cls-9" d="m457.6,130.83c-13.09,24.81,29.28,43.01,38.89,22.98,10.14-21.14-27.85-43.9-38.89-22.98Z"/>
          <path class="cls-8" d="m461.25,130.23c-13.07,24.76,22.13,27.18,35.11,17.58,9.22-6.82-22.57-41.34-35.11-17.58Z"/>
        </g>
        <g>
          <path class="cls-13" d="m77.44,139.75c-15.02,26.36,32.63,42.8,39.84,19.5,5.69-18.36-25.78-44.19-39.84-19.5Z"/>
          <path class="cls-17" d="m84.25,139.23c-13.6,24.47,21.54,27.65,34.73,18.33,9.37-6.62-21.68-41.81-34.73-18.33Z"/>
        </g>
        <g>
          <path class="cls-9" d="m42.16,138.22c2.71,30.22,51.04,17.08,43.91-6.25-5.61-18.39-45.88-15.73-43.91,6.25Z"/>
          <path class="cls-8" d="m44.9,135.73c2.5,27.88,33.35,10.77,39.03-4.34,4.03-10.73-41.43-22.41-39.03,4.34Z"/>
        </g>
        <g>
          <path class="cls-9" d="m124.31,153.13c-18.97,23.68,24.99,47.67,36.01,25.9,8.68-17.15-22.21-43.12-36.01-25.9Z"/>
          <path class="cls-8" d="m128,153.24c-17.51,21.85,16.6,30.87,31.16,23.9,10.34-4.95-14.36-44.86-31.16-23.9Z"/>
        </g>
        <g>
          <path class="cls-1" d="m173.49,55.37c12.36,25.18,52.01,1.62,41.46-17.93-11.13-20.64-51.88-3.3-41.46,17.93Z"/>
          <path class="cls-2" d="m175.15,52.07c12.34,25.13,35-1.91,34.87-18.05-.09-11.47-46.71-6.06-34.87,18.05Z"/>
        </g>
        <g>
          <path class="cls-15" d="m148.17,50.01c-16.03,25.76,30.47,44.36,38.83,21.44,6.59-18.06-27.17-40.18-38.83-21.44Z"/>
          <path class="cls-3" d="m151.85,49.67c-14.79,23.77,20.15,28.68,33.78,20.03,9.68-6.15-19.59-42.83-33.78-20.03Z"/>
        </g>
        <g>
          <path class="cls-13" d="m169.56,81.5c-8.25,29.2-53.31,7.35-42-14.26,8.91-17.03,48-6.97,42,14.26Z"/>
          <path class="cls-17" d="m167.33,78.55c-7.61,26.94-34.77,4.42-37.55-11.48-1.98-11.3,44.86-14.36,37.55,11.48Z"/>
        </g>
        <g>
          <path class="cls-13" d="m176.82,91.12c8.01,29.26,53.25,7.78,42.12-13.92-8.78-17.1-47.94-7.36-42.12,13.92Z"/>
          <path class="cls-17" d="m182.23,88.19c7.39,27,34.73,4.7,37.64-11.18,2.07-11.28-44.74-14.73-37.64,11.18Z"/>
        </g>
        <g>
          <path class="cls-1" d="m111.08,188.27c29.25-5.29,23.05-44.37-3.78-40.01-18.9,3.08-27.64,46.07,3.78,40.01Z"/>
          <path class="cls-2" d="m118.22,150.83c23.42,15.34-6.2,34.5-22.21,32.39-11.37-1.5-.26-47.1,22.21-32.39Z"/>
        </g>
        <g>
          <path class="cls-13" d="m246.55,79.01c-26.13,29.86-58.52-34.54-18.89-34.72,13.9-.07,29.15,23.01,18.89,34.72Z"/>
          <path class="cls-17" d="m245.8,75.39c-18.45,21.05-35-13.45-28.13-28.05,6.32-13.42,45.83,7.85,28.13,28.05Z"/>
        </g>
        <g>
          <path class="cls-1" d="m391.61,187.6c12.91,24.9,52.03.47,41.05-18.84-11.59-20.39-51.94-2.16-41.05,18.84Z"/>
          <path class="cls-2" d="m393.2,184.26c12.89,24.85,34.95-2.68,34.47-18.82-.34-11.46-46.83-5.03-34.47,18.82Z"/>
        </g>
        <g>
          <path class="cls-9" d="m368.87,195.73c-8.25,29.2-53.31,7.35-42-14.26,8.91-17.03,48-6.97,42,14.26Z"/>
          <path class="cls-8" d="m366.64,192.79c-7.61,26.94-34.77,4.42-37.55-11.48-1.98-11.3,44.86-14.36,37.55,11.48Z"/>
        </g>
        <g>
          <path class="cls-9" d="m262.59,110.16c-26.13,29.86-58.52-34.54-18.89-34.72,13.9-.07,29.15,23.01,18.89,34.72Z"/>
          <path class="cls-8" d="m261.84,106.54c-18.45,21.05-35-13.45-28.13-28.05,6.32-13.42,45.83,7.85,28.13,28.05Z"/>
        </g>
      </g>
      <g>
        <path class="cls-1" d="m81.81,332.81c27.4,11.54,43.53-24.6,18.68-35.58-17.51-7.74-48.31,23.51-18.68,35.58Z"/>
        <path class="cls-2" d="m108.23,305.35c11.25,25.63-24.03,25.51-36.29,15.01-8.71-7.46,25.49-39.6,36.29-15.01Z"/>
      </g>
      <g>
        <path class="cls-9" d="m129.27,359.96c29.25-5.29,23.05-44.37-3.78-40.01-18.9,3.08-27.64,46.07,3.78,40.01Z"/>
        <path class="cls-8" d="m136.41,322.52c23.42,15.34-6.2,34.5-22.21,32.39-11.37-1.5-.26-47.1,22.21-32.39Z"/>
      </g>
      <g>
        <path class="cls-15" d="m86.3,274.66c29.25-5.29,23.05-44.37-3.78-40.01-18.9,3.08-27.64,46.07,3.78,40.01Z"/>
        <path class="cls-3" d="m93.44,237.23c23.42,15.34-6.2,34.5-22.21,32.39-11.37-1.5-.26-47.1,22.21-32.39Z"/>
      </g>
      <g>
        <path class="cls-13" d="m295.47,408.69c27.2,12,43.94-23.86,19.27-35.26-17.38-8.03-48.7,22.7-19.27,35.26Z"/>
        <path class="cls-17" d="m322.35,381.67c10.82,25.82-24.45,25.11-36.53,14.4-8.58-7.61,26.15-39.17,36.53-14.4Z"/>
      </g>
      <g>
        <path class="cls-13" d="m84.19,297.17c-20.15-21.86,8.37-49.3,27.14-29.64,13.22,13.85-5.73,53.42-27.14,29.64Z"/>
        <path class="cls-17" d="m101.06,263c-27.93-1.89-15.85,31.26-1.81,39.23,9.97,5.66,28.61-37.41,1.81-39.23Z"/>
      </g>
      <g>
        <path class="cls-15" d="m130.4,323.64c29.25-5.29,23.05-44.37-3.78-40.01-18.9,3.08-27.64,46.07,3.78,40.01Z"/>
        <path class="cls-3" d="m137.54,286.21c23.42,15.34-6.2,34.5-22.21,32.39-11.37-1.5-.26-47.1,22.21-32.39Z"/>
      </g>
      <g>
        <path class="cls-1" d="m124.79,287.93c-29.44-4.16-24.74-43.45,2.23-40.12,19,2.35,29.4,44.97-2.23,40.12Z"/>
        <path class="cls-2" d="m116.22,250.8c-22.81,16.23,7.53,34.23,23.44,31.51,11.3-1.94-1.55-47.07-23.44-31.51Z"/>
      </g>
    </g>
  </g>
</svg>