<?xml version="1.0" encoding="UTF-8"?>
<svg id="Ebene_2" data-name="Ebene 2" xmlns="http://www.w3.org/2000/svg" viewBox="0 0 542.07 312.17">
  <defs>
    <style>
      .cls-1 {
        fill: #d1593e;
      }

      .cls-1, .cls-2, .cls-3, .cls-4, .cls-5, .cls-6, .cls-7, .cls-8, .cls-9, .cls-10, .cls-11, .cls-12, .cls-13, .cls-14, .cls-15, .cls-16 {
        stroke-width: 0px;
      }

      .cls-2 {
        fill: #e46a50;
      }

      .cls-3 {
        fill: #a19b39;
      }

      .cls-4 {
        fill: #085eff;
      }

      .cls-5 {
        fill: #002491;
      }

      .cls-6 {
        fill: #f8c45b;
      }

      .cls-7 {
        fill: #deaa40;
      }

      .cls-8 {
        fill: #0095ff;
      }

      .cls-9 {
        fill: #29d0ff;
      }

      .cls-10 {
        fill: #944128;
      }

      .cls-11 {
        fill: #0065ff;
      }

      .cls-12 {
        fill: #a65b44;
      }

      .cls-13 {
        fill: #0037e3;
      }

      .cls-14 {
        fill: #85802b;
      }

      .cls-15 {
        fill: #1d1d1b;
      }

      .cls-16 {
        fill: #b36c55;
      }
    </style>
  </defs>
  <g id="_Ńëîé_1" data-name="Ńëîé 1">
    <g>
      <g>
        <path class="cls-13" d="m533.13,189.36c-7.39,56.03-118.59,100.7-255.84,102.01-2.18.02-4.36.03-6.55.03-.59,0-1.19,0-1.78,0h-.18c-143.47-.5-259.49-48.34-260.26-107.4l10.29-27.41,29.36-75.54h445.72l25.71,71.89h0c0,.06.03.17.07.34.27,1.21,1.3,5.41,2.98,7.89l6.44,17.36,3.8,10.26.22.58Z"/>
        <path class="cls-13" d="m542.07,201.7c0,66.7-121.35,110.47-271.03,110.47S0,268.39,0,201.7s121.35-86.17,271.03-86.17,271.03,19.47,271.03,86.17Z"/>
        <path class="cls-13" d="m533.54,183.4c0,2-.13,3.98-.4,5.96-7.5,56.88-121.99,102.04-262.1,102.04S9.31,243.36,8.54,183.99c-.01-.2-.01-.4-.01-.6,0-10.43,3.59-19.29,10.3-26.81,31.65-35.47,132.58-41.06,252.22-41.06s213.39,5.2,248.58,37.4c9.03,8.26,13.92,18.28,13.92,30.46Z"/>
        <path class="cls-13" d="m519.77,153.35s-.05-.05-.08-.07c-.04-.17-.06-.28-.07-.33l.15.4Z"/>
        <path class="cls-4" d="m271.03.23C147.94.23,48.16,36.99,48.16,82.33s99.79,82.1,222.88,82.1,222.88-36.76,222.88-82.1S394.12.23,271.03.23Zm132,137.96c-36.19,9.98-82.07,15.95-131.99,15.95s-95.79-5.96-131.99-15.95c-48.6-13.38-79.74-34.01-79.74-57.15,0-40.37,94.8-73.09,211.74-73.09s211.73,32.73,211.73,73.09c0,23.13-31.13,43.76-79.73,57.15Z"/>
        <g>
          <path class="cls-13" d="m482.53,80.81c0,23.13-31.13,43.76-79.73,57.15-36.19,9.98-82.07,15.95-131.99,15.95s-95.79-5.96-131.99-15.95c-48.6-13.38-79.74-34.01-79.74-57.15,0-40.37,94.8-73.09,211.74-73.09s211.73,32.73,211.73,73.09Z"/>
          <path class="cls-5" d="m270.81,154.14c-48.55,0-94.21-5.52-132.05-15.96-50.79-13.98-79.91-34.89-79.91-57.37,0-19.63,22.08-38.06,62.17-51.9,40.02-13.81,93.21-21.42,149.8-21.42s109.77,7.61,149.79,21.42c40.09,13.84,62.17,32.27,62.17,51.9,0,22.48-29.12,43.39-79.9,57.37-37.87,10.44-83.53,15.96-132.05,15.96Zm0-146.19c-116.62,0-211.51,32.69-211.51,72.86,0,11.23,7.25,22.01,21.55,32.04,13.67,9.59,33.74,18.2,58.03,24.88,37.8,10.43,83.42,15.94,131.93,15.94s94.11-5.51,131.93-15.94c24.29-6.69,44.35-15.29,58.02-24.88,14.3-10.03,21.54-20.81,21.54-32.04,0-40.18-94.88-72.86-211.5-72.86Z"/>
        </g>
        <path class="cls-11" d="m420.7,132.74c-4.64,1.53-12.89,4.07-17.92,5.45-36.19,9.98-82.07,15.95-131.99,15.95s-95.79-5.96-131.99-15.95c-5.03-1.38-15.19-4.75-19.83-6.29,3.37-4.92,8.44-9.31,14.5-13.67,1.16,2.09,16.64,7.22,16.64,7.22,16.96-10.67,28.05-13.58,42.22-17.64,14.84-4.25,23.5-5.82,43.74-7.93,0,0-7.65-10.49-9.36-14.19,14.34-1.86,29.22-2.83,44.09-2.83,33.82,0,67.65,5.01,95.26,14.1,13,4.28,23.85,9.2,32.24,14.63,10.33,6.69,17.8,13.48,22.42,21.14Z"/>
        <path class="cls-4" d="m403.03,138.19c-36.19,9.98-82.07,15.95-131.99,15.95s-95.79-5.96-131.99-15.95c4.63-17.99,61.96-40.16,131.99-40.16s127.36,22.18,131.99,40.16Z"/>
        <path class="cls-4" d="m533.18,179.64c.68-8.08-6.77-20.36-13.56-26.71,2.81,7.57,7.74,14.56,9.44,22.44,2.36,10.92-.09,22.28-6.56,31.26-8.91,12.37-20.47,22.84-33.39,30.69-36.91,22.4-81.53,34.42-123.78,41.13-55.09,8.75-111.8,9.57-167.18,3.01-45.17-5.35-92.37-16.29-133.1-37.2-16.1-8.26-31.52-19.02-43.16-33.09-7.24-8.75-10.4-18.91-9.83-30.47.5-10.15,4.73-18.31,8.17-27.58-17.64,16.48-14.06,43.33-.93,61.28,10.17,13.9,24.62,24.29,39.49,32.66,39.63,22.33,85.88,33.04,130.6,39.03,48.45,6.49,97.71,7.07,146.32,1.98,45.66-4.78,92.29-14.28,133.97-34.16,28.07-13.39,66.77-38.05,63.51-74.28Z"/>
        <path class="cls-11" d="m390.31,301.92c11.62-2.33,41.91-9.47,59.05-15.22,27.82-9.34,46.04-20.51,55.07-26.28l-5.4-23.44-5.12-2.74-42.56-103.9c-6.33,3.23-18.34,8.6-37.05,14.54-19.21,6.1-32.67,8.56-44.27,10.62l13.23,119.78,5.49,4.81,1.57,21.82Z"/>
        <path class="cls-8" d="m236.06,99.88c-20.24,2.11-28.9,3.67-43.74,7.93-14.17,4.06-25.27,6.96-42.22,17.64,0,0-15.48-5.12-16.64-7.22,3.05-2.2,6.36-4.39,9.82-6.62,8.39-5.43,19.23-10.35,32.23-14.64,15.47-5.09,32.9-8.91,51.18-11.27,1.71,3.7,9.36,14.19,9.36,14.19Z"/>
        <path class="cls-11" d="m226.7,85.7c-18.28,2.37-35.71,6.18-51.18,11.27-13,4.28-23.85,9.2-32.23,14.64-3.46,2.24-6.77,4.43-9.82,6.62-9.97-17.97-24.45-84.48-24.45-84.48,14.38-6,26.27-9.39,42.92-13.41,15.12-3.65,44.44-8.79,58.99-9.72,0,0,8.57,58.63,15.7,74.91.02.06.05.11.08.17Z"/>
        <path class="cls-13" d="m403.03,138.24c-.83.23-.82.23-1.66.45-13.96-21.24-66.29-38.78-130.73-38.78s-115.82,16.77-130.78,38.45c-.61-.17-.2.04-.81-.12,4.63-17.98,61.96-40.16,131.99-40.16s127.36,22.17,131.99,40.16Z"/>
        <path class="cls-8" d="m450.34,260.03c-7.73,3.01-27.51,10.11-42.88,14.31-12.39,3.39-21.98,4.59-19.68,2.6,1.26-1.08,9.29-2.81,19.52-5.74,13.63-3.91,31.16-9.43,41.66-13.45,2.18-.83,14.5-5.98,25.44-11.17,11.69-5.55,21.92-11.07,20.56-9.07-2.76,4.02-30.09,16.85-44.63,22.52Z"/>
        <path class="cls-8" d="m411.4,144.31c-48.95,15.1-125.15,21.24-120.92,14.95,3.83-5.7,56.11-2.01,121.85-21,36.21-10.46,60.14-28.23,71.99-45.22,4.49-6.43,5.11.56,2.16,5.91-10.8,19.56-54.68,39.08-75.08,45.37Z"/>
        <path class="cls-9" d="m189.32,106.93c-13.66,3.21-25.89,8.44-34.74,13.3-5.25,2.88-5.87,5.63-4.19,4.5,9.65-6.55,20.56-11.25,40.1-16.64,10.94-3.02,24.9-5.84,34.57-7.18,7.21-1,11.78-1.21,10.29-1.79-1.5-.58-11.31.24-22.05,2-9.65,1.58-18.21,4.46-23.98,5.82Z"/>
        <path class="cls-8" d="m493.45,81.87c.02.57-.01,1.15-.05,1.72-2.48-44.55-100.83-80.85-222.37-80.85S51.14,39.04,48.67,83.59c-.04-.57-.05-1.14-.05-1.72C48.61,37.37,147.94.69,271.03.69s221.19,35.73,222.42,81.18Z"/>
        <path class="cls-9" d="m156.51,12.87c-4.47.91-60.23,15.48-52.69,19.75,2.28,1.29,9-3.27,12.58-4.31,11.69-3.39,23.86-7.9,36.46-10.74,22.97-5.17,41.46-8.27,53.56-9.38,7.81-.72,11.41-2.31,5.34-3-11.03-1.27-47.05,6.01-55.24,7.68Z"/>
        <path class="cls-5" d="m270.6,291.71c-27.28,0-54.44-1.8-81.25-5.39-54.9-7.35-96.42-19.76-130.68-39.06-17.88-10.07-30.82-20.78-39.56-32.73-6.74-9.22-10.8-20.64-11.12-31.32-.36-12.08,3.81-22.54,12.08-30.27l.71-.66-.34.91c-.74,1.98-1.52,3.93-2.27,5.82-2.83,7.07-5.5,13.75-5.89,21.69-.57,11.58,2.72,21.78,9.77,30.31,10.41,12.59,24.91,23.71,43.09,33.03,36.01,18.48,80.77,30.99,133.02,37.18,56.33,6.67,112.56,5.66,167.12-3.01,50.32-7.99,91.94-21.82,123.7-41.1,13.1-7.95,24.62-18.54,33.33-30.62,6.47-8.98,8.84-20.31,6.52-31.08-1.02-4.73-3.25-9.22-5.41-13.57-1.42-2.86-2.9-5.83-4.01-8.84l-.34-.91.71.66c7.11,6.64,14.28,19.02,13.63,26.87,1.44,16.14-5.31,31.58-20.08,45.88-10.59,10.25-25.25,19.88-43.56,28.62-36.42,17.37-80.27,28.55-134.04,34.18-21.7,2.27-43.45,3.4-65.12,3.4ZM19.66,153.98c-16.91,16.62-12.98,42.78-.17,60.28,8.7,11.9,21.59,22.56,39.41,32.6,34.2,19.27,75.67,31.66,130.51,39,48.07,6.44,97.28,7.1,146.27,1.98,53.72-5.62,97.52-16.78,133.89-34.14,30.64-14.62,66.51-39.33,63.38-74.06v-.02s0-.02,0-.02c.63-7.45-5.96-19.09-12.74-25.81,1.05,2.66,2.36,5.28,3.63,7.83,2.17,4.37,4.42,8.89,5.45,13.68,2.35,10.9-.05,22.36-6.6,31.44-8.74,12.13-20.31,22.76-33.46,30.75-31.82,19.31-73.49,33.16-123.87,41.16-54.6,8.67-110.87,9.69-167.24,3.01-52.31-6.19-97.12-18.72-133.18-37.22-18.23-9.36-32.78-20.51-43.23-33.15-7.13-8.62-10.46-18.93-9.88-30.63.4-8.02,3.08-14.73,5.92-21.84.63-1.58,1.28-3.21,1.91-4.86Z"/>
        <path class="cls-9" d="m412.33,144.77c-7.75,2.08-55.79,13.47-51.56,7.17,3.83-5.7,31.43-8.19,51.58-13.69,3.01-.82,22.56-9.07,34.42-12.37,7.56-2.1,12.06-1.39,6.94,1.95-9.3,6.06-33.3,14.77-41.37,16.94Z"/>
        <path class="cls-5" d="m271.03,164.66c-59.56,0-115.56-8.55-157.68-24.06-42.19-15.54-65.43-36.24-65.43-58.27s23.24-42.73,65.43-58.27C155.48,8.55,211.47,0,271.03,0s115.56,8.55,157.68,24.06c42.19,15.54,65.43,36.24,65.43,58.27s-23.24,42.73-65.43,58.27c-42.12,15.52-98.12,24.06-157.68,24.06Zm0-164.2C148.26.46,48.39,37.19,48.39,82.33s99.88,81.88,222.65,81.88,222.65-36.73,222.65-81.88S393.8.46,271.03.46Zm0,153.91c-48.55,0-94.21-5.52-132.05-15.96-50.79-13.98-79.91-34.89-79.91-57.37,0-19.63,22.08-38.06,62.17-51.9,40.02-13.81,93.21-21.42,149.8-21.42s109.77,7.61,149.79,21.42c40.09,13.84,62.17,32.27,62.17,51.9,0,22.48-29.12,43.39-79.9,57.37h0c-37.87,10.44-83.53,15.96-132.05,15.96Zm0-146.19c-116.62,0-211.51,32.69-211.51,72.86,0,11.23,7.25,22.01,21.55,32.04,13.67,9.59,33.74,18.2,58.03,24.88,37.8,10.43,83.42,15.94,131.93,15.94s94.11-5.51,131.93-15.94h0c24.29-6.69,44.35-15.29,58.02-24.88,14.3-10.03,21.54-20.81,21.54-32.04,0-40.18-94.88-72.86-211.5-72.86Z"/>
      </g>
      <g>
        <path class="cls-10" d="m264.12,154.81s0,.02,0,.04c0,0-.21-.01-.56-.04h.57Z"/>
        <path class="cls-10" d="m439.43,124.16c-.01.09-.03.17-.05.26-.02.12-.04.25-.07.37-1.82.83-3.68,1.65-5.6,2.45-3.14,1.32-6.41,2.59-9.8,3.83-1.32.48-2.66.96-4.02,1.42-.11.04-.23.08-.35.12-.03,0-.06.02-.08.03-.14.05-.28.09-.41.14-1.07.37-2.14.73-3.23,1.08,0,0,0,0,0,0-4.47,1.46-9.12,2.85-13.95,4.17h0s0,0-.01,0c0,.01,0,.03.01.05-.83.23-.82.23-1.66.45,0-.01-.02-.03-.03-.05,0,0,0,0,0,0-2.85.77-5.76,1.51-8.73,2.22-.26.06-.53.13-.79.19-1.34.32-2.69.63-4.05.94-.62.14-1.24.28-1.86.41h0c-.85.19-1.7.38-2.56.56-.86.19-1.72.37-2.59.55-.93.2-1.87.39-2.81.57-1.25.25-2.52.5-3.79.74-1.91.36-3.83.72-5.78,1.07-.65.11-1.3.23-1.95.34-1.31.22-2.61.45-3.93.66-2.23.36-4.48.72-6.75,1.05-1.08.16-2.18.32-3.27.48-.12.01-.24.03-.35.05-.12.01-.25.03-.37.05-.65.09-1.31.18-1.96.27-1.15.16-2.3.31-3.46.46-1.21.15-2.42.31-3.63.46-.69.09-1.39.17-2.09.25-.53.06-1.05.12-1.59.19-.52.06-1.04.12-1.57.18-.87.09-1.75.19-2.62.28-.92.1-1.84.2-2.77.29-.85.09-1.71.18-2.57.26-1.43.14-2.86.28-4.31.4-.04,0-.07,0-.11,0-.67.06-1.34.12-2.01.18-.45.04-.91.08-1.36.12-.83.07-1.65.14-2.49.2-2.6.21-5.22.4-7.86.57-1.53.1-3.08.19-4.63.28-.8.05-1.6.09-2.4.13h-.02c-.11,0-.23.01-.34.02-1.07.06-2.14.11-3.22.16-1.07.05-2.15.1-3.23.14-1.32.06-2.64.11-3.96.15-.96.04-1.92.07-2.89.1-1.14.03-2.28.06-3.42.1h-.03c-1.15.03-2.31.05-3.46.07-.37,0-.74.02-1.12.02-.77.02-1.54.02-2.31.04-.39,0-.77,0-1.16.01-.39,0-.78.01-1.16.01-.41,0-.82,0-1.23.01h-.21c-1.84.01-3.7.02-5.55.02-1.56,0-3.11-.01-4.67-.03-.25,0-.51,0-.76,0h-.06s-.07,0-.11,0c-.62,0-1.25-.01-1.87-.02h-.13c-.29,0-.57,0-.83.01h-.13s0-.02,0-.02c-.25,0-.51-.01-.75-.02-.39,0-.77-.02-1.16-.02-.39,0-.77-.02-1.16-.02-1.95-.04-3.9-.08-5.83-.15-.58-.01-1.16-.03-1.74-.05-.78-.02-1.56-.05-2.34-.08-.15,0-.3,0-.45-.01-.82-.03-1.64-.06-2.45-.1-.21,0-.43-.02-.64-.03-.6-.02-1.2-.05-1.79-.08-.06,0-.12,0-.17,0-.47-.02-.94-.04-1.41-.07-.85-.04-1.7-.08-2.55-.13-.18,0-.37-.01-.56-.03-.18,0-.37-.02-.56-.03-.28-.01-.57-.03-.85-.05-1.95-.1-3.9-.21-5.83-.34-.4-.03-.8-.05-1.19-.08-2.13-.14-4.24-.3-6.34-.47-2.68-.21-5.34-.44-7.97-.68-5.68-.52-11.27-1.13-16.75-1.81-.15-.02-.3-.04-.45-.06-1.97-.25-3.92-.5-5.86-.77-6.65-.91-13.13-1.93-19.43-3.06-.09-.03-.17-.06-.26-.09h0s0,0,0,0c-.34-.12-.68-.24-1.01-.37t0,0c-.17-.06-.34-.12-.5-.18-.88-.35-1.71-.7-2.48-1.07h0s0,0,0-.02c-.02-.05-.05-.1-.09-.14,0,0,0-.01-.01-.02-.24-.28-.73-.55-1.44-.82-4.19-1.62-16.03-3.24-28.31-5.4h0c-.31-.05-.62-.11-.93-.16t0,0c-.52-.09-1.06-.19-1.58-.28h0c-.54-.1-1.08-.2-1.63-.3-.12-.02-.24-.04-.36-.06-.93-.18-3.41-.91-3.29-1.01-.98-.3-1.96-.6-2.93-.9-3.55-1.11-7-2.26-10.32-3.45-.02,0-.03,0-.05-.01-3.47-1.24-6.8-2.52-10.01-3.85-.58-.24-1.16-.48-1.74-.72-.71-.3-1.41-.6-2.1-.9-.11-.09-.22-.18-.33-.27h0c-.84-.7-1.63-1.39-2.36-2.06-8.15-7.46-9.16-13.09,2.85-20.22,1.92-1.15,4.18-2.33,6.79-3.56.25-.12.52-.22.79-.29.08-.03.17-.05.25-.07,4.4-1.04,10.73,2.94,14.33,3.47.45.07.85.08,1.21.03h0s.06,0,.1-.01c1.49-.3,2.86-.71,4.13-1.21,6.09-2.37,9.94-6.52,14.49-7.36,1.25-.24,2.56-.22,3.99.16h0c.99.26,2.03.69,3.16,1.34,2.13,1.22,4.83-.28,4.81-2.73-.02-3.28,1.08-6.1,2.94-8.44,0,0,0-.01.01-.02,1.25-1.57,2.83-2.91,4.65-4.04.9-.56,1.82-1.06,2.81-1.46.01-.02.03-.03.04-.04,3.8-1.69,8.21-2.54,12.49-2.5h0c1.22.01,2.43.1,3.61.26,2.03,1.12,3.95,2.38,5.73,3.78,1.49,1.16,2.9,2.41,4.22,3.75.01.01.03.03.04.05l.17.17s.06.07.1.11c1.54,1.59,2.95,3.31,4.23,5.15,0,0,.02.03.03.04.02.02.04.04.05.06,0,0,.01.02.02.03.39.09.77.17,1.13.22t0,0c1.99.3,3.58.08,4.8-.66,0,0,0,0,0,0t0,0c.49-.3.91-.69,1.27-1.16,1.03-1.34,1.54-3.38,1.54-6.1.58-.56,1.17-1.1,1.78-1.6,1.57-1.32,3.24-2.43,5.01-3.35.01,0,.03-.02.05-.02,2.23-1.16,4.63-2.01,7.19-2.56.11-.03.21-.05.31-.07,3.6.38,6.93,1.31,10.01,2.76.29.14.58.29.88.44,1.56.8,3.06,1.75,4.48,2.85.18.14.36.28.54.42.17.13.33.26.49.4.17.13.33.27.49.41.64.56,1.27,1.16,1.88,1.78.23.23.46.46.68.7h0c.77.07,1.53.09,2.27.07,2.78-.08,5.42-.72,8-1.49,2.6-.78,5.13-1.69,7.65-2.27,1.78-.41,3.56-.66,5.36-.59h0c.49.02.99.06,1.48.14h0c.69.1,1.39.26,2.09.47,1.27.39,2.55.99,3.86,1.85.82.53,1.64,1.17,2.47,1.92,1.67,1.51,4.38.57,4.68-1.66,0-.04,0-.07.02-.11.1-.7.23-1.36.41-1.98.84-3.03,2.51-5.17,4.72-6.64,1.49-1,3.22-1.68,5.1-2.11h0c6.34-1.48,14.33-.15,20.23,1.52.61.28,1.18.59,1.74.92h0c1.28.75,2.42,1.62,3.45,2.63,0,0,.02.01.02.02.01.01.03.03.05.05.15.15.29.3.44.45.92.97,1.73,2.05,2.44,3.23.29.48.56.97.81,1.49.61,1.96,1.32,3.38,2.12,4.24.42.44.86.74,1.33.89.09.03.19.06.28.07h0c.63.13,1.3,0,2.02-.38,1.06-.55,2.21-1.65,3.46-3.27-.24-.08-.04-.09.51-.03,3.87.37,24.88,3.69,26.55,3.97h0s0,0,0,0c0,0,.02,0,.03,0,0,0,.02,0,.03,0h0s.02,0,.02,0c2.7.38,6.51-.14,10.88-.83.29-.05.6-.09.9-.14,12.17-1.92,28.25-4.69,36.84,6.67.44.57,1.05,1.02,1.78,1.37.45.21.94.39,1.46.54,2.6.73,5.98.76,8.45,1.06.36.04.73.09,1.08.14.13.01.26.03.39.05,11.52,1.62,17.59,5.34,20.52,10.14,3.06,5,2.7,11.19,1.54,17.43Z"/>
        <g>
          <g>
            <path class="cls-7" d="m407.51,104.17c-8.47,29.78-54.41,7.41-42.83-14.63,9.13-17.36,48.99-7.03,42.83,14.63Z"/>
            <path class="cls-6" d="m405.24,101.16c-7.82,27.47-35.49,4.44-38.3-11.78-2-11.53,45.79-14.58,38.3,11.78Z"/>
          </g>
          <g>
            <path class="cls-12" d="m239.86,124.01c-.03,30.96,50.29,22.06,45.2-2.3-4.01-19.2-45.18-20.21-45.2,2.3Z"/>
            <path class="cls-15" d="m259.03,107.52c-2.65,0-5.17.37-7.33,1.22-5.24,2.05-7.9,6.43-7.91,13h0c0,8.54,3.05,13.76,8.85,15.09,1.02.23,2.09.34,3.19.35,9.77.02,22.34-8.5,26.27-16.65.89-1.84-.34-3.74-1.52-5.02-4.08-4.41-13.43-7.97-21.55-7.98Z"/>
          </g>
          <g>
            <path class="cls-1" d="m303.16,152.9h-.02c-.11,0-.23.01-.34.02-1.07.06-2.14.11-3.22.16-1.07.05-2.15.1-3.23.14-1.32.06-2.64.11-3.96.15-.96.04-1.92.07-2.89.1-1.14.03-2.28.06-3.42.1h-.03c-1.15.03-2.31.05-3.46.07-.37,0-.74.02-1.12.02-.77.02-1.54.02-2.31.04-.39,0-.77,0-1.16.01-.39,0-.78.01-1.16.01-.41,0-.82,0-1.23.01h-.21c-1.84.01-3.7.02-5.55.02-1.56,0-3.11-.01-4.67-.03-.25,0-.51,0-.76,0h-.06s-.07,0-.11,0c-.62,0-1.25-.01-1.87-.02h-.13c-.29,0-.57,0-.83.01h-.13s0-.02,0-.02h0c0-.06.01-.11.03-.16,0-.03,0-.05,0-.07.47-2.52,1.33-4.64,2.48-6.41,1.04-1.59,2.32-2.89,3.78-3.92.04-.03.08-.06.13-.09,2.19-1.52,4.79-2.44,7.57-2.84.12-.02.25-.04.37-.05.76-.1,1.54-.15,2.33-.17h0c1.59-.04,3.23.07,4.86.33,1.52.24,3.04.59,4.54,1.06,6.15,1.92,11.88,5.73,15.23,10.72.09.13.17.26.26.4,0,0,0,0,0,.01.04.06.08.13.12.19.04.07.09.15.13.22,0,0,0,0,0,.01Z"/>
            <path class="cls-2" d="m264.12,154.81s0,.02,0,.04c0,0-.21-.01-.56-.04h.57Z"/>
            <path class="cls-2" d="m264.41,153.71h0,0s-.06,0-.06,0c-.04,0-.07,0-.11,0-.62,0-1.25-.01-1.87-.02.62,0,1.3-.01,2.04-.01,0,.01,0,.02,0,.04Z"/>
            <path class="cls-2" d="m303.13,152.9c-.11,0-.23.01-.34.02-1.07.06-2.14.11-3.22.16-1.07.05-2.15.1-3.23.14-1.32.06-2.64.11-3.96.15-.96.04-1.92.07-2.89.1-1.14.03-2.28.06-3.42.1h-.03c-1.15.03-2.31.05-3.46.07-.37,0-.74.02-1.12.02-.77.02-1.54.02-2.31.04-.39,0-.77,0-1.16.01-.39,0-.78.01-1.16.01-.41,0-.82,0-1.23.01h-.21c-4.68-.05-8.26-.07-10.97-.06.01-.06.03-.12.06-.19.6-2.06,1.41-3.89,2.39-5.49,2.7-4.41,6.69-7.05,11.12-8.04h0c1.43-.32,2.92-.47,4.42-.44,1.92.03,3.86.34,5.78.92,5.53,1.67,10.83,5.6,14.45,11.62.08.13.16.26.23.39,0,0,0,0,0,.01.04.06.08.13.11.19.05.07.09.15.12.22,0,0,0,0,0,.01Z"/>
          </g>
          <g>
            <path class="cls-1" d="m440.27,124.01h0c-.07.08-.15.17-.22.25h0c-.1.11-.2.22-.31.33-.14.07-.28.13-.42.2-1.82.83-3.68,1.65-5.6,2.45-3.14,1.32-6.41,2.59-9.8,3.83-1.32.48-2.66.96-4.02,1.42-.11.04-.23.08-.35.12-.03,0-.06.02-.08.03-.14.05-.28.09-.41.14-1.07.37-2.14.73-3.23,1.08,0,0,0,0,0,0-.04,0-.07-.01-.1-.02h0c-.17-.03-.34-.06-.51-.09-5.34-.99-10.2-4.2-13.44-10.47-.19-.36-.36-.73-.52-1.09-.39-.89-.7-1.78-.91-2.66-.35-1.39-.48-2.75-.43-4.08.02-.68.1-1.36.22-2.03.25-1.41.7-2.77,1.33-4.07.05-.11.1-.22.16-.34,0,0,0,0,0,0,.03-.06.06-.11.08-.17,0,0,0,0,0,0,.13-.25.27-.5.42-.75.33-.58.7-1.15,1.11-1.7,0,0,0,0,0,0s0,0,0,0,0,0,0,0c1.31-1.78,2.94-3.41,4.8-4.84,2.73-2.1,5.94-3.78,9.33-4.91,1.12-.37,2.26-.68,3.41-.92.03,0,.06-.01.08-.02,2.89-.6,5.83-.79,8.63-.48.01,0,.02,0,.04,0,2.41.27,4.72.9,6.82,1.95h0c2.95,1.48,5.49,3.76,7.32,7,3.83,6.77,1.64,14.14-3.42,19.88Z"/>
            <path class="cls-2" d="m403.39,119.88c13.1,25.38,35.66-2.67,35.2-19.14-.33-11.7-47.77-5.21-35.2,19.14Z"/>
          </g>
          <g>
            <path class="cls-1" d="m322.7,87.85c-15.08,27.04,33.21,43.73,40.62,19.97,5.83-18.73-29.65-39.63-40.62-19.97Z"/>
            <path class="cls-2" d="m326.43,87.33c-13.92,24.95,21.93,28.25,35.4,18.77,9.57-6.73-22.05-42.7-35.4-18.77Z"/>
          </g>
          <g>
            <path class="cls-12" d="m282.68,77.15c-15.08,27.04,33.21,43.73,40.62,19.97,5.83-18.73-29.65-39.63-40.62-19.97Z"/>
            <path class="cls-16" d="m286.41,76.63c-13.92,24.95,21.93,28.25,35.4,18.77,9.57-6.73-22.05-42.7-35.4-18.77Z"/>
          </g>
          <g>
            <path class="cls-14" d="m283.09,120.97c-15.08,27.04,33.21,43.73,40.62,19.97,5.83-18.73-29.65-39.63-40.62-19.97Z"/>
            <path class="cls-3" d="m286.83,120.44c-13.92,24.95,21.93,28.25,35.4,18.77,9.57-6.73-22.05-42.7-35.4-18.77Z"/>
          </g>
          <path class="cls-16" d="m384.73,142.26c-.85.19-1.7.38-2.56.56-.86.19-1.72.37-2.59.55-.93.2-1.87.39-2.81.57-1.25.25-2.52.5-3.79.74-1.91.36-3.83.72-5.78,1.07-.65.11-1.3.23-1.95.34-1.31.22-2.61.45-3.93.66-2.23.36-4.48.72-6.75,1.05-1.08.16-2.18.32-3.27.48-.12.01-.24.03-.35.05-.12.01-.25.03-.37.05-.65.09-1.31.18-1.96.27-1.15.16-2.3.31-3.46.46-1.21.15-2.42.31-3.63.46,0,0,0-.02,0-.03-.02-.07-.05-.15-.06-.22-.79-2.8-1.06-5.34-.9-7.62.09-1.41.35-2.73.75-3.95.6-1.84,1.53-3.46,2.71-4.85,1.61-1.89,3.69-3.36,6.05-4.41,1.06-.47,2.17-.86,3.33-1.16,1.24-.32,2.53-.55,3.85-.68,4.71-.47,9.8.3,14.38,2.31,3.33,1.46,6.4,3.57,8.86,6.34,0,0,0,0,0,0,1.32,1.47,2.45,3.12,3.37,4.97.28.56.54,1.13.77,1.72.03.07.06.14.08.21,0,.02.02.03.02.05Z"/>
          <g>
            <path class="cls-12" d="m162.06,82.91c-16.4,26.26,31.01,45.32,39.58,21.95,6.75-18.41-27.65-41.04-39.58-21.95Z"/>
            <path class="cls-16" d="m165.82,82.57c-15.13,24.23,20.51,29.3,34.43,20.5,9.89-6.25-19.91-43.74-34.43-20.5Z"/>
          </g>
          <g>
            <path class="cls-1" d="m128.53,100.97c-16.4,26.26,31.01,45.32,39.58,21.95,6.75-18.41-27.65-41.04-39.58-21.95Z"/>
            <path class="cls-2" d="m132.29,100.63c-15.13,24.23,20.51,29.3,34.43,20.5,9.89-6.25-19.91-43.74-34.43-20.5Z"/>
          </g>
          <g>
            <path class="cls-7" d="m238.89,90.14c-8.34,29.81,42.52,34.75,44.16,9.91,1.29-19.57-38.09-31.59-44.16-9.91Z"/>
            <path class="cls-6" d="m242.4,88.76c-7.7,27.51,27.93,22.33,38.81,9.97,7.73-8.79-31.42-36.36-38.81-9.97Z"/>
          </g>
          <g>
            <path class="cls-14" d="m386.82,114.83c-8.47,29.78-54.41,7.41-42.83-14.63,9.13-17.36,48.99-7.03,42.83,14.63Z"/>
            <path class="cls-3" d="m384.55,111.82c-7.82,27.48-35.49,4.44-38.3-11.78-2-11.53,45.79-14.58,38.3,11.78Z"/>
          </g>
          <g>
            <path class="cls-14" d="m201.66,137.83c0,.47-.01.94-.03,1.38-.16,4.31-1.07,7.51-2.52,9.76-.06.08-.11.17-.17.24-.04.06-.08.13-.13.19,0,0-.01.02-.02.03-.15-.02-.3-.04-.45-.06-1.97-.25-3.92-.5-5.86-.77-6.65-.91-13.13-1.93-19.43-3.06-.42-.08-.84-.15-1.25-.23-.03-.02-.05-.04-.07-.06-.11-.08-.21-.16-.31-.24-.06-.04-.11-.08-.16-.12-1.27-1.02-2.5-2.09-3.66-3.22-.05-.04-.09-.08-.14-.13-.5-.48-1-.98-1.47-1.47-.79-.82-1.55-1.67-2.26-2.52-.17-.2-.33-.4-.5-.61-1.35-1.67-2.53-3.39-3.48-5.08-1.42-2.53-2.34-5.02-2.57-7.31h0c-.08-.83-.08-1.63.02-2.39.12-.9.38-1.75.78-2.55,0-.01,0-.03.02-.04,0,0,0-.02,0-.02.01-.02.02-.05.04-.07.18-.33.38-.66.61-.97.22-.3.47-.59.74-.87,1.76-1.79,4.61-3.12,8.8-3.74.08-.01.16-.03.23-.04.04,0,.09-.01.13-.02.04,0,.08,0,.11-.01t0,0c.77-.1,1.58-.19,2.43-.24h0c.15,0,.31-.02.46-.03h0c.06,0,.11,0,.16,0,.64-.03,1.3-.05,1.99-.06.39,0,.79,0,1.2.03h0c.37.02.75.06,1.14.11h0c1.98.24,4.07.81,6.18,1.62.31.12.62.24.93.38,0,0,0,0,0,0,.56.23,1.12.49,1.68.76.63.31,1.26.64,1.89.99.53.29,1.05.6,1.56.93.3.18.58.37.87.56,0,0,0,0,.01,0,1.13.75,2.23,1.56,3.27,2.42,2.04,1.68,3.88,3.56,5.36,5.56.12.16.23.32.35.48.61.86,1.15,1.74,1.62,2.64h0c1.33,2.55,2.02,5.22,1.83,7.85Z"/>
            <path class="cls-3" d="m200.04,136.24c-.37,1.68-1.08,3.43-2.19,5.27-1.71,2.85-3.45,5.13-5.16,6.89-.06.06-.11.12-.17.17,0,0-.02.02-.03.03-6.65-.91-13.13-1.93-19.43-3.06-.42-.08-.84-.15-1.25-.23-.79-.14-1.57-.29-2.34-.44-.01-.01-.02-.03-.04-.05h0c-.05-.07-.1-.14-.14-.22-.17-.26-.35-.52-.51-.79h0s0,0,0-.02c-.02-.05-.05-.1-.09-.14,0,0,0-.01-.01-.02-.42-.68-.82-1.38-1.2-2.1-.05-.09-.1-.18-.15-.28-1.9-3.66-3.26-7.74-3.91-11.62-.39-2.35-.52-4.64-.34-6.71.12-1.39.37-2.69.77-3.85.05-.15.1-.28.15-.42h0c.18-.47.38-.91.61-1.32.25-.45.53-.88.85-1.26.02-.03.04-.05.07-.08.04-.06.09-.11.14-.16.56-.63,1.21-1.17,1.97-1.57,0,0,0,0,0,0,0,0,0,0,0,0,.18-.1.37-.19.57-.27.07-.03.14-.06.22-.09.04-.02.08-.04.12-.05.15-.05.3-.11.46-.15t0,0s0,0,.01,0h0c.82-.24,1.75-.37,2.77-.36h0c.12,0,.24,0,.37,0,.04,0,.07,0,.11,0h0c.46.02.93.07,1.43.15.6.09,1.21.2,1.84.33.2.04.39.08.59.13t0,0s.01,0,.02,0c1.18.25,2.4.57,3.64.94,1.18.35,2.37.75,3.56,1.21h0c.27.1.54.21.81.32.76.3,1.52.63,2.26.98.62.29,1.24.59,1.85.91.24.13.48.26.72.39,0,0,.01.01.02.02,1.7.91,3.28,1.95,4.72,3.1t0,0c1.78,1.43,3.31,3.03,4.44,4.79.06.1.13.2.18.3.6.97,1.07,2,1.4,3.06h0c.59,1.93.7,4.03.21,6.26Z"/>
          </g>
          <g>
            <path class="cls-12" d="m425.58,125.78c-.01.23-.04.45-.07.67-.2,1.49-.68,2.9-1.39,4.22-.07.13-.14.26-.22.39-1.32.48-2.66.96-4.02,1.42-.11.04-.23.08-.35.12-.03,0-.06.02-.08.03-.14.05-.28.09-.41.14-1.07.37-2.14.73-3.23,1.08,0,0,0,0,0,0-4.47,1.46-9.12,2.85-13.95,4.17h0s0,0-.01,0c0,.01,0,.03.01.05-.83.23-.82.23-1.66.45,0-.01-.02-.03-.03-.05,0,0,0,0,0,0-2.85.77-5.76,1.51-8.73,2.22-.26.06-.53.13-.79.19-1.34.32-2.69.63-4.05.94h0s0,0,0,0c-.03,0-.06-.02-.08-.04h0c-.11-.05-.22-.1-.33-.15-.84-.4-1.62-.85-2.31-1.37-1.68-1.26-2.87-2.91-3.37-4.97,0,0,0,0,0,0-.72-2.91-.07-6.65,2.48-11.29.07-.14.15-.27.23-.41.09-.14.17-.29.26-.43.35-.58.73-1.16,1.15-1.72,0-.01.01-.03.03-.04.25-.35.52-.7.79-1.04.51-.65,1.06-1.28,1.64-1.89h0s.03-.04.05-.06c1.56-1.65,3.33-3.17,5.24-4.51,1.43-1.01,2.94-1.92,4.49-2.69,1.47-.74,2.97-1.36,4.49-1.85h0s.08-.03.12-.04c.05-.02.09-.03.13-.05,1.3-.41,2.61-.73,3.91-.93.15-.03.3-.05.45-.07h0c7.87-1.08,15.38,1.9,18.76,11.75.27.72.47,1.43.62,2.12.27,1.25.34,2.45.25,3.61Z"/>
            <path class="cls-16" d="m422.7,125.29c-.09,1.11-.33,2.24-.76,3.38-.41,1.12-1,2.26-1.77,3.41-.09.13-.18.27-.28.4-.11.04-.23.08-.35.12-.03,0-.06.02-.08.03-.14.05-.28.09-.41.14-1.07.37-2.14.73-3.23,1.08,0,0,0,0,0,0-4.47,1.46-9.12,2.85-13.95,4.17h0s0,0-.01,0c0,.01,0,.03.01.05-.83.23-.82.23-1.66.45,0-.01-.02-.03-.03-.05,0,0,0,0,0,0-2.85.77-5.76,1.51-8.73,2.22-.26.06-.53.13-.79.19h0s-.06-.03-.08-.04h0c-.1-.05-.2-.1-.29-.16-5.47-2.92-8.7-8.76-6.93-17.01.04-.17.07-.34.12-.51,0,0,0-.01,0-.02.16-.68.34-1.33.55-1.96,0,0,0,0,0,0h0s0-.04.01-.05c0-.02,0-.03.02-.05.09-.28.18-.56.28-.83.24-.67.51-1.31.8-1.92.02-.06.05-.11.07-.16.4-.82.83-1.58,1.31-2.29,0,0,0,0,0,0h0c.61-.93,1.28-1.76,2-2.51,1.65-1.71,3.56-2.97,5.6-3.84,2.47-1.04,5.14-1.5,7.84-1.48.06,0,.13,0,.19,0h.13c1.08.02,2.16.12,3.23.3.13.02.26.04.39.06,7.9,1.4,15.12,6.66,16.59,13.38.24,1.13.33,2.29.23,3.48Z"/>
          </g>
          <g>
            <path class="cls-16" d="m169.17,144.83c-.53-.1-1.06-.2-1.58-.3-10.57-2.03-20.59-4.36-29.95-6.97-.93-.26-2.03-.58-3.24-.95-.93-.18-3.41-.91-3.29-1.01,0,0,0,0,0,0,.04-.04.08-.08.13-.11.92-.8,1.96-1.47,3.1-2.03,2.05-1.01,4.41-1.64,6.91-1.93,0,0,.01,0,.02,0,.01,0,.03,0,.04,0,.99-.11,1.99-.17,3.02-.18,1.7-.02,3.45.11,5.18.38,2,.3,3.99.78,5.9,1.43,3.09,1.05,5.96,2.54,8.32,4.41.35.29.7.58,1.03.87.97.87,1.83,1.83,2.55,2.84.1.13.19.27.28.4.45.69.85,1.39,1.17,2.13,0,0,0,.01,0,.02.11.25.21.5.3.75.03.07.05.13.07.2,0,.02.01.04.01.05Z"/>
            <path class="cls-12" d="m167.58,144.53c-10.57-2.03-20.59-4.36-29.95-6.97-.93-.26-2.03-.58-3.24-.95-.93-.18-3.12-.83-3.02-.92,0,0,0,0,0,0,.04-.04.08-.08.12-.11.7-.63,1.53-1.19,2.47-1.68,1.99-1.03,4.43-1.74,7.09-2.11.01,0,.03,0,.04,0,.21-.03.41-.05.62-.08h0c.79-.1,1.59-.15,2.42-.19,1.76-.07,3.57,0,5.37.2,2.18.25,4.33.7,6.36,1.35,2.8.9,5.35,2.2,7.36,3.89.55.46,1.06.96,1.53,1.48.46.52.87,1.07,1.23,1.65.53.85.95,1.77,1.23,2.74.14.47.25.97.32,1.47,0,.06.02.12.03.19h0s0,.04,0,.05Z"/>
          </g>
          <path class="cls-2" d="m229.86,152.39c-2.13-.14-4.24-.3-6.34-.47-2.68-.21-5.34-.44-7.97-.68-5.68-.52-11.27-1.13-16.75-1.81-.15-.02-.3-.04-.45-.06.01,0,.03-.01.05-.03.1-.05.2-.11.31-.16.13-.07.27-.14.41-.22,2.29-1.15,5.23-2.2,8.39-2.91,2.66-.6,5.48-.96,8.21-.94,3.84.03,7.5.79,10.28,2.69.58.39,1.13.84,1.63,1.34.84.85,1.56,1.84,2.12,3,.04.07.07.15.11.22,0,0,0,.01,0,.02Z"/>
          <g>
            <path class="cls-12" d="m291.28,136.05c-15.23,26.23-50.58,6.7-37.07-17.52,9.51-17.07,53.8-10.52,37.07,17.52Z"/>
            <path class="cls-16" d="m252.88,129.9c6.58,27.8,35.25,6.03,38.78-10.06,2.51-11.43-45.1-16.61-38.78,10.06Z"/>
          </g>
          <g>
            <path class="cls-12" d="m241.74,139.37c-.08.34-.18.68-.3,1.01-.25.77-.52,1.49-.82,2.19-2.13,5.07-5.34,8.16-9.06,9.7h0c-.16.07-.31.13-.47.19-.01,0-.02.01-.04.01-.4-.03-.8-.05-1.19-.08-2.13-.14-4.24-.3-6.34-.47-2.68-.21-5.34-.44-7.97-.68-.02,0-.04-.02-.06-.03h0s0,0,0,0c-.19-.08-.37-.17-.55-.26-2.64-1.25-5.16-2.92-7.41-4.89-2.3-2.01-4.32-4.34-5.88-6.85-.6-.96-1.13-1.96-1.59-2.97-1.29-2.85-1.97-5.87-1.84-8.9,0-.15,0-.29.02-.44,0-.09,0-.19.02-.28.13-1.47.45-2.93.99-4.38.73-1.95,1.86-3.87,3.45-5.71.06-.06.11-.13.17-.19.16-.18.32-.35.48-.52,2.63-2.75,5.88-4.21,9.36-4.65,1.17-.15,2.36-.18,3.57-.1,2.84.17,5.75.93,8.55,2.15.17.07.34.15.51.23.05.02.09.04.14.06,1.17.53,2.31,1.15,3.41,1.83.13.08.27.17.4.25,1.33.84,2.6,1.79,3.78,2.8.65.56,1.27,1.13,1.86,1.73,0,0,0,0,0,0,2.08,2.08,3.83,4.43,5.1,6.91.6,1.19,1.09,2.4,1.45,3.64,0,0,0,0,0,.01.31,1.03.52,2.08.63,3.13.01.08.02.16.03.24h0c.16,1.77.04,3.54-.41,5.3Z"/>
            <path class="cls-16" d="m237.3,142.43c-18.86,21.45-33.95-11.24-29.52-27.1,3.15-11.27,47.61,6.52,29.52,27.1Z"/>
          </g>
          <g>
            <path class="cls-14" d="m243.26,111.17c-26.71,30.42-59.65-35.34-19.21-35.46,14.18-.04,29.7,23.53,19.21,35.46Z"/>
            <path class="cls-3" d="m242.5,107.47c-18.86,21.45-35.69-13.78-28.65-28.67,6.47-13.68,46.75,8.09,28.65,28.67Z"/>
          </g>
          <path class="cls-2" d="m350.95,148.07c0,.07,0,.15-.01.23,0,.01,0,.02,0,.04-.12.01-.25.03-.37.05-.65.09-1.31.18-1.96.27-1.15.16-2.3.31-3.46.46-1.21.15-2.42.31-3.63.46-.69.09-1.39.17-2.09.25-.53.06-1.05.12-1.59.19-.52.06-1.04.12-1.57.18-.87.09-1.75.19-2.62.28-.92.1-1.84.2-2.77.29-.85.09-1.71.18-2.57.26-1.43.14-2.86.28-4.31.4-.04,0-.07,0-.11,0-.67.06-1.34.12-2.01.18-.45.04-.91.08-1.36.12-.83.07-1.65.14-2.49.2-2.6.21-5.22.4-7.86.57-1.53.1-3.08.19-4.63.28,0,0,0,0,0-.01-.01-.07-.03-.15-.04-.23-.01-.07-.03-.15-.04-.22-.45-3.01-.12-5.78.81-8.27,1.51-4.04,4.61-7.36,8.49-9.79,2.46-1.54,5.23-2.73,8.12-3.52.08-.02.17-.05.25-.07.11-.03.22-.05.34-.09,7.2-1.84,15.05-1.26,20.51,2.34.71.46,1.37.98,1.99,1.54.81.75,1.55,1.58,2.18,2.5,1.95,2.82,3.02,6.5,2.78,11.12Z"/>
          <g>
            <path class="cls-7" d="m351.95,131.46c-12.66,25.67-53.07,1.56-42.27-18.37,11.4-21.04,52.94-3.28,42.27,18.37Z"/>
            <path class="cls-6" d="m350.26,128.09c-12.63,25.62-35.71-2.01-35.55-18.48.11-11.7,47.67-6.1,35.55,18.48Z"/>
          </g>
          <g>
            <path class="cls-7" d="m182.12,112.45c8.12,29.87,54.32,8.04,43-14.13-8.92-17.47-48.9-7.6-43,14.13Z"/>
            <path class="cls-6" d="m184.42,109.46c7.5,27.56,35.43,4.86,38.43-11.34,2.13-11.5-45.62-15.11-38.43,11.34Z"/>
          </g>
          <g>
            <path class="cls-1" d="m264.17,127.06c-15.23,26.23-50.58,6.7-37.07-17.52,9.51-17.07,53.8-10.52,37.07,17.52Z"/>
            <path class="cls-2" d="m225.78,120.91c6.58,27.8,35.25,6.03,38.78-10.06,2.51-11.43-45.1-16.61-38.78,10.06Z"/>
          </g>
          <g>
            <path class="cls-7" d="m136.84,129.45c-.59,1.38-1.41,2.72-2.5,4.01-.12.14-.24.29-.37.43-.08.09-.17.19-.25.28-.53.57-1.06,1.1-1.66,1.56-.05.04-.1.08-.15.11-.1.08-.93-.14-.81-.24-.98-.3-1.96-.6-2.93-.9-3.55-1.11-7-2.26-10.32-3.45-.02,0-.03,0-.05-.01-3.47-1.24-6.8-2.52-10.01-3.85-.58-.24-1.16-.48-1.74-.72-.71-.3-1.41-.6-2.1-.9-1.54-.67-3.06-1.36-4.53-2.05-1.52-.71-3.01-1.44-4.46-2.18-.01-.04-.03-.09-.04-.13-1.74-5.93-1.15-12.24,3.55-16.93,2.63-2.62,5.69-4.14,8.92-4.77,1.41-.27,2.84-.38,4.3-.33.88.03,1.75.11,2.63.25,2.89.44,5.78,1.44,8.48,2.86,1.3.68,2.56,1.45,3.75,2.31.18.12.36.26.54.39h0c.76.57,1.5,1.16,2.2,1.79,2.71,2.4,4.96,5.22,6.5,8.22.68,1.32,1.22,2.69,1.6,4.07.1.34.18.69.25,1.04.03.12.05.25.07.37.08.39.14.77.18,1.15.05.41.09.82.1,1.23.09,2.16-.27,4.33-1.16,6.42Z"/>
            <path class="cls-6" d="m137.66,120.28c0,.11,0,.22,0,.34-.01.4-.05.82-.1,1.23-.04.31-.1.62-.17.93-.38,1.78-1.19,3.61-2.5,5.45-.52.74-1.13,1.48-1.82,2.22-1.62,1.74-3.19,3.1-4.73,4.14-.04.03-.08.06-.11.08-.02.01-.04.02-.05.03-3.55-1.11-7-2.26-10.32-3.45-.02,0-.03,0-.05-.01-3.47-1.24-6.8-2.52-10.01-3.85-.03-.06-.06-.11-.1-.17h0c-.13-.26-.27-.52-.4-.78-.58-1.17-1.11-2.4-1.57-3.66-2.39-6.53-3.12-14.01-1.61-19.56.06-.22.12-.43.18-.64.44-1.43,1.55-2.37,3.11-2.87,1.26-.41,2.81-.53,4.55-.4.76.06,1.56.16,2.38.32,2.68.49,5.62,1.48,8.48,2.86,1.3.63,2.59,1.33,3.83,2.12.11.07.22.14.33.22.85.54,1.67,1.12,2.46,1.74,3.02,2.34,5.54,5.14,6.96,8.23.66,1.43,1.08,2.92,1.21,4.45.03.35.04.7.04,1.06Z"/>
          </g>
          <path class="cls-14" d="m261.28,153.7s0-.02,0-.02c-.25,0-.51-.01-.75-.02-.39,0-.77-.02-1.16-.02-.39,0-.77-.02-1.16-.02-1.95-.04-3.9-.08-5.83-.15-.58-.01-1.16-.03-1.74-.05-.78-.02-1.56-.05-2.34-.08-.15,0-.3,0-.45-.01-.82-.03-1.64-.06-2.45-.1-.21,0-.43-.02-.64-.03-.6-.02-1.2-.05-1.79-.08-.06,0-.12,0-.17,0-.47-.02-.94-.04-1.41-.07-.85-.04-1.7-.08-2.55-.13-.18,0-.37-.01-.56-.03-.18,0-.37-.02-.56-.03-.28-.01-.57-.03-.85-.05-1.95-.1-3.9-.21-5.83-.34-.4-.03-.8-.05-1.19-.08-2.13-.14-4.24-.3-6.34-.47,0,0,0-.01,0-.02.02-.07.05-.14.08-.21.31-.79.69-1.52,1.12-2.2.38-.6.8-1.17,1.27-1.68,2.7-3.06,6.7-4.69,11.08-5.14,1.16-.12,2.35-.15,3.55-.1,8.26.32,16.98,4.42,20.64,10.87h0s.03.05.05.08c.03.05.05.1.08.15h0s0,.02.01.03h-.13Z"/>
        </g>
      </g>
    </g>
  </g>
</svg>