<?xml version="1.0" encoding="UTF-8"?>
<svg id="Ebene_2" data-name="Ebene 2" xmlns="http://www.w3.org/2000/svg" viewBox="0 0 542.07 393.69">
  <defs>
    <style>
      .cls-1 {
        fill: #d1593e;
      }

      .cls-1, .cls-2, .cls-3, .cls-4, .cls-5, .cls-6, .cls-7, .cls-8, .cls-9, .cls-10, .cls-11, .cls-12, .cls-13, .cls-14, .cls-15, .cls-16, .cls-17 {
        stroke-width: 0px;
      }

      .cls-2 {
        fill: #e46a50;
      }

      .cls-3 {
        fill: #a19b39;
      }

      .cls-4 {
        fill: #9c3110;
      }

      .cls-5 {
        fill: #085eff;
      }

      .cls-6 {
        fill: #002491;
      }

      .cls-7 {
        fill: #fff;
      }

      .cls-8 {
        fill: #f8c45b;
      }

      .cls-9 {
        fill: #deaa40;
      }

      .cls-10 {
        fill: #0095ff;
      }

      .cls-11 {
        fill: #29d0ff;
      }

      .cls-12 {
        fill: #0065ff;
      }

      .cls-13 {
        fill: #a65b44;
      }

      .cls-14 {
        fill: #0037e3;
      }

      .cls-15 {
        fill: #85802b;
      }

      .cls-16 {
        fill: #1d1d1b;
      }

      .cls-17 {
        fill: #b36c55;
      }
    </style>
  </defs>
  <g id="_Ńëîé_1" data-name="Ńëîé 1">
    <g>
      <g>
        <path class="cls-14" d="m531.47,196.99c-7.37,55.85-118.22,100.38-255.04,101.69-2.17.02-4.35.03-6.53.03-.59,0-1.18,0-1.77,0h-.18c-143.02-.49-258.68-48.19-259.44-107.07l10.25-27.32,29.27-75.31h444.33l25.63,71.67h0c0,.06.03.16.07.34.27,1.21,1.29,5.39,2.97,7.86l6.42,17.3,3.79,10.23.22.58Z"/>
        <path class="cls-14" d="m540.37,209.3c0,66.49-120.97,110.12-270.18,110.12S0,275.79,0,209.3s120.97-85.9,270.18-85.9,270.18,19.41,270.18,85.9Z"/>
        <path class="cls-14" d="m531.87,191.05c0,1.99-.13,3.97-.4,5.94-7.48,56.7-121.6,101.72-261.28,101.72S9.28,250.83,8.51,191.65c-.01-.19-.01-.4-.01-.6,0-10.4,3.58-19.23,10.26-26.72,31.55-35.36,132.16-40.93,251.43-40.93s212.73,5.18,247.8,37.28c9,8.23,13.88,18.23,13.88,30.37Z"/>
        <path class="cls-14" d="m518.15,161.1s-.05-.05-.08-.07c-.04-.17-.06-.28-.07-.33l.15.4Z"/>
        <path class="cls-5" d="m270.18,8.46c-122.71,0-222.18,36.64-222.18,81.84s99.47,81.85,222.18,81.85,222.18-36.64,222.18-81.85S392.89,8.46,270.18,8.46Zm131.58,137.53c-36.08,9.95-81.82,15.9-131.58,15.9s-95.49-5.94-131.58-15.9c-48.45-13.34-79.49-33.91-79.49-56.97,0-40.24,94.5-72.86,211.07-72.86s211.06,32.62,211.06,72.86c0,23.06-31.03,43.63-79.48,56.97Z"/>
        <g>
          <path class="cls-14" d="m481.02,88.79c0,23.06-31.03,43.63-79.48,56.97-36.08,9.95-81.82,15.9-131.58,15.9s-95.49-5.94-131.58-15.9c-48.45-13.34-79.49-33.91-79.49-56.97,0-40.24,94.5-72.86,211.07-72.86s211.06,32.62,211.06,72.86Z"/>
          <path class="cls-6" d="m269.96,161.89c-48.4,0-93.92-5.5-131.64-15.91-50.63-13.94-79.66-34.78-79.66-57.19,0-19.57,22.01-37.94,61.98-51.74,39.89-13.77,92.92-21.35,149.33-21.35s109.43,7.58,149.32,21.35c39.97,13.8,61.98,32.17,61.98,51.74,0,22.41-29.03,43.25-79.65,57.19-37.75,10.41-83.27,15.91-131.64,15.91Zm0-145.73c-116.26,0-210.84,32.58-210.84,72.63,0,11.2,7.23,21.94,21.48,31.94,13.63,9.56,33.63,18.14,57.85,24.8,37.68,10.4,83.16,15.89,131.52,15.89s93.81-5.5,131.52-15.89c24.21-6.67,44.21-15.24,57.84-24.8,14.25-10,21.48-20.74,21.48-31.94,0-40.05-94.58-72.63-210.84-72.63Z"/>
        </g>
        <path class="cls-12" d="m419.39,140.56c-4.63,1.53-12.85,4.05-17.86,5.43-36.08,9.95-81.82,15.9-131.58,15.9s-95.49-5.94-131.58-15.9c-5.01-1.38-15.14-4.74-19.77-6.27,3.36-4.9,8.42-9.28,14.46-13.62,1.16,2.09,16.59,7.19,16.59,7.19,16.9-10.64,27.97-13.54,42.09-17.58,14.79-4.24,23.43-5.8,43.6-7.9,0,0-7.62-10.45-9.33-14.14,14.3-1.85,29.12-2.82,43.95-2.82,33.71,0,67.44,4.99,94.96,14.05,12.96,4.27,23.78,9.17,32.14,14.59,10.3,6.67,17.75,13.44,22.35,21.07Z"/>
        <path class="cls-5" d="m401.77,145.99c-36.07,9.94-81.81,15.9-131.58,15.9s-95.5-5.94-131.58-15.9c4.62-17.93,61.76-40.03,131.58-40.03s126.96,22.11,131.58,40.03Z"/>
        <path class="cls-5" d="m531.51,187.31c.68-8.05-6.75-20.3-13.52-26.62,2.8,7.55,7.72,14.52,9.41,22.37,2.35,10.89-.09,22.22-6.54,31.16-8.88,12.33-20.41,22.77-33.29,30.59-36.79,22.33-81.27,34.31-123.4,41-54.92,8.72-111.45,9.54-166.66,3-45.03-5.33-92.08-16.24-132.69-37.08-16.05-8.24-31.42-18.96-43.02-32.99-7.21-8.72-10.37-18.86-9.8-30.38.5-10.12,4.72-18.26,8.15-27.49-17.59,16.43-14.02,43.2-.93,61.09,10.14,13.86,24.55,24.22,39.36,32.56,39.51,22.26,85.61,32.94,130.19,38.91,48.3,6.47,97.4,7.04,145.86,1.98,45.52-4.76,92-14.23,133.55-34.05,27.98-13.35,66.56-37.93,63.32-74.05Z"/>
        <path class="cls-12" d="m389.09,309.2c11.58-2.32,41.78-9.44,58.86-15.17,27.74-9.31,45.9-20.44,54.9-26.2l-5.38-23.37-5.1-2.73-42.43-103.57c-6.31,3.22-18.28,8.57-36.93,14.5-19.15,6.09-32.57,8.53-44.13,10.59l13.19,119.41,5.47,4.79,1.56,21.75Z"/>
        <path class="cls-10" d="m235.33,107.8c-20.17,2.1-28.81,3.66-43.6,7.9-14.12,4.04-25.19,6.94-42.09,17.58,0,0-15.43-5.11-16.59-7.19,3.05-2.19,6.34-4.37,9.79-6.6,8.36-5.42,19.17-10.32,32.13-14.59,15.42-5.08,32.79-8.88,51.02-11.24,1.71,3.69,9.33,14.14,9.33,14.14Z"/>
        <path class="cls-12" d="m225.99,93.66c-18.23,2.36-35.6,6.16-51.02,11.24-12.96,4.27-23.77,9.17-32.13,14.59-3.45,2.23-6.75,4.41-9.79,6.6-9.94-17.91-24.37-84.22-24.37-84.22,14.33-5.98,26.18-9.36,42.79-13.37,15.07-3.64,44.31-8.76,58.8-9.69,0,0,8.54,58.45,15.65,74.68.02.06.05.11.08.17Z"/>
        <path class="cls-14" d="m401.77,146.04c-.83.23-.82.23-1.66.45-13.91-21.18-66.09-38.65-130.33-38.65s-115.46,16.72-130.37,38.32c-.61-.16-.2.04-.81-.12,4.62-17.93,61.76-40.03,131.58-40.03s126.96,22.1,131.58,40.03Z"/>
        <path class="cls-10" d="m448.94,267.44c-7.71,3-27.42,10.07-42.74,14.26-12.35,3.38-21.91,4.57-19.62,2.59,1.25-1.08,9.26-2.8,19.46-5.72,13.59-3.89,31.06-9.4,41.53-13.4,2.17-.83,14.46-5.96,25.36-11.13,11.65-5.53,21.85-11.03,20.49-9.04-2.75,4.01-29.99,16.8-44.49,22.45Z"/>
        <path class="cls-10" d="m410.11,152.09c-48.8,15.05-124.76,21.18-120.54,14.9,3.82-5.68,55.94-2,121.47-20.94,36.09-10.43,59.95-28.14,71.77-45.08,4.47-6.41,5.09.56,2.15,5.89-10.76,19.5-54.51,38.96-74.85,45.23Z"/>
        <path class="cls-11" d="m188.73,114.83c-13.62,3.2-25.81,8.42-34.63,13.26-5.23,2.87-5.85,5.62-4.18,4.48,9.62-6.53,20.49-11.22,39.97-16.59,10.91-3.01,24.82-5.83,34.46-7.16,7.19-.99,11.75-1.21,10.26-1.78-1.49-.57-11.28.24-21.98,1.99-9.62,1.57-18.16,4.45-23.9,5.8Z"/>
        <path class="cls-10" d="m491.9,89.85c.02.57-.01,1.14-.05,1.71-2.47-44.41-100.52-80.59-221.67-80.59S50.98,47.15,48.51,91.56c-.04-.57-.05-1.14-.05-1.71,0-44.36,99.02-80.93,221.72-80.93s220.5,35.61,221.72,80.93Z"/>
        <path class="cls-11" d="m156.02,21.06c-4.46.91-60.04,15.43-52.53,19.69,2.27,1.29,8.98-3.26,12.54-4.3,11.65-3.38,23.78-7.87,36.35-10.7,22.9-5.15,41.33-8.24,53.39-9.35,7.79-.72,11.37-2.3,5.32-3-11-1.26-46.9,5.99-55.07,7.66Z"/>
        <path class="cls-6" d="m269.75,299.03c-27.2,0-54.27-1.79-81-5.37-54.73-7.33-96.12-19.7-130.27-38.94-17.82-10.04-30.72-20.71-39.43-32.63-6.72-9.19-10.76-20.57-11.08-31.22-.36-12.04,3.8-22.47,12.04-30.17l.71-.66-.34.91c-.73,1.97-1.51,3.92-2.26,5.8-2.82,7.05-5.48,13.7-5.87,21.62-.57,11.55,2.71,21.71,9.74,30.22,10.38,12.55,24.83,23.63,42.95,32.93,35.9,18.42,80.52,30.89,132.61,37.06,56.16,6.65,112.21,5.64,166.6-3,50.16-7.97,91.65-21.75,123.31-40.97,13.06-7.93,24.55-18.48,33.22-30.53,6.45-8.95,8.81-20.24,6.5-30.98-1.02-4.71-3.24-9.19-5.4-13.53-1.42-2.85-2.89-5.81-4-8.81l-.34-.91.71.66c7.09,6.62,14.23,18.96,13.59,26.79,1.44,16.09-5.3,31.48-20.02,45.73-10.56,10.22-25.17,19.82-43.43,28.53-36.31,17.32-80.01,28.46-133.62,34.07-21.63,2.26-43.32,3.39-64.92,3.39ZM19.59,161.73c-16.85,16.57-12.94,42.64-.17,60.09,8.67,11.86,21.53,22.49,39.29,32.5,34.09,19.21,75.44,31.56,130.11,38.88,47.92,6.42,96.98,7.08,145.81,1.98,53.55-5.6,97.21-16.73,133.47-34.03,30.54-14.57,66.3-39.21,63.19-73.82v-.02s0-.02,0-.02c.62-7.42-5.94-19.03-12.7-25.72,1.05,2.65,2.35,5.27,3.61,7.81,2.17,4.36,4.41,8.86,5.43,13.63,2.34,10.87-.05,22.29-6.57,31.35-8.71,12.09-20.24,22.69-33.36,30.65-31.72,19.25-73.26,33.06-123.48,41.03-54.43,8.64-110.52,9.65-166.72,3-52.15-6.17-96.81-18.66-132.76-37.11-18.17-9.33-32.67-20.45-43.1-33.05-7.11-8.6-10.42-18.87-9.85-30.53.4-8,3.07-14.69,5.9-21.77.63-1.58,1.28-3.2,1.9-4.85Z"/>
        <path class="cls-11" d="m411.04,152.55c-7.73,2.07-55.62,13.43-51.4,7.15,3.82-5.68,31.33-8.16,51.41-13.65,3-.82,22.49-9.05,34.31-12.33,7.53-2.09,12.02-1.38,6.92,1.94-9.27,6.04-33.19,14.73-41.24,16.89Z"/>
        <path class="cls-6" d="m270.18,172.38c-59.37,0-115.19-8.52-157.18-23.99-42.06-15.49-65.22-36.12-65.22-58.09s23.16-42.59,65.22-58.09c41.99-15.47,97.81-23.99,157.18-23.99s115.19,8.52,157.18,23.99c42.06,15.49,65.22,36.12,65.22,58.09s-23.16,42.6-65.22,58.09c-41.99,15.47-97.81,23.99-157.18,23.99Zm0-163.69c-122.38,0-221.95,36.61-221.95,81.61s99.57,81.62,221.95,81.62,221.95-36.61,221.95-81.62S392.57,8.69,270.18,8.69Zm0,153.43c-48.4,0-93.92-5.5-131.64-15.91-50.63-13.94-79.66-34.78-79.66-57.19,0-19.57,22.01-37.94,61.98-51.74,39.89-13.77,92.92-21.35,149.33-21.35s109.43,7.58,149.32,21.35c39.97,13.8,61.98,32.17,61.98,51.74,0,22.41-29.03,43.25-79.65,57.19h0c-37.75,10.41-83.27,15.91-131.64,15.91Zm0-145.73c-116.26,0-210.84,32.58-210.84,72.63,0,11.2,7.23,21.94,21.48,31.94,13.63,9.56,33.63,18.14,57.85,24.8,37.68,10.4,83.16,15.89,131.52,15.89s93.81-5.5,131.52-15.89h0c24.21-6.67,44.21-15.24,57.84-24.8,14.25-10,21.48-20.74,21.48-31.94,0-40.05-94.58-72.63-210.84-72.63Z"/>
      </g>
      <path class="cls-4" d="m479.77,97.1c-3.01,6.14-7.65,9.36-12.78,10.47.61,2.53.61,5.13-.19,7.69l-15.52,11.13c-3.85.22-24.36,12.64-33.61,13.79-.37.4-.75.79-1.16,1.17l-3.94,1.09c-.09.08-.17.17-.26.25l-21.05,5.8c-.11-.03-.21-.05-.32-.08l-3.16.87c-2.85-.47-6.1-.31-5.7,1.07-11.08,0-22.53,3.36-33.83,5.51,0,.09-.01.18-.02.27-14.5,1.98-29.34,3.68-43.94,4.02-.15-.6-.26-1.18-.34-1.76-.93-.03-1.86-.11-2.78-.23.1.16.19.32.28.48.34.53.65,1.07.93,1.63-10.47,1.15-21.27.91-31.93.74-2.32,0-4.63-.03-6.95-.06,0-.01,0-.02.01-.03-.61,0-1.22-.01-1.82-.01,0,0,.01.02.01.02-.19,0-.38,0-.58,0-10.69.86-22.25-.25-33.24-1.42-2.6.37-5.33.12-8.05-.62-6.92-.62-13.85-1.47-20.63-2.36-.06,0-.11-.01-.17-.02-.19.22-.38.42-.58.61l-6.31-.93s-.07.06-.1.09l-8.43-1.35-7.67-1.13c-.06-.04-.12-.09-.18-.13l-3.59-.57c-.69-.86-1.48-1.62-1.32-1.03-4.62-.74-9.18-1.73-13.73-2.83-7.95-1.78-15.87-3.82-23.62-6.17-.35.22-.73.43-1.13.61l-3.38-1.28c-.09.05-.18.1-.27.14l-16.79-5.91c-.2-.3-.39-.61-.57-.92l-12.52-4.75s-.02-.04-.03-.05c-1.19-.56-10.86-5.16-18.89-11.43l-2.09-1.32c-.35-.4-.69-.8-1.03-1.2-6.79-5.68-22.92-18.26-14.05-36.64,2.34-4.84,7.34-7.4,12.91-8.27-.22-3.59.74-7.51,3.29-11.61,2.79-4.48,6.84-6.61,11.3-7.03,3.04-1.08,6.28-.8,9.43.36-2.03-4.69-1.98-10.31,1.46-16.49,2.56-4.61,6.51-6.94,10.94-7.58,4.86-2,10.41-.44,15.36,2.73.27-.77.59-1.54.99-2.32,3.41-6.52,11.26-9.06,19.31-8.51,8.39.01,17.31,2.79,20.19,9.66,1.58,2.1,2.63,4.49,2.94,7.14.32-.05.63-.09.95-.12,1.26-.45,2.57-.66,3.88-.68-3.3-4.97-4.35-10.82-1.37-16.35,1.73-3.21,4.19-5.5,7.05-7,1.54-1.05,3.82-1.73,6.48-2.02,2.78-.39,5.7-.27,8.58.27,8.31,1.28,16.94,5.41,19.04,12.52.16.29.3.57.44.86.21-.35.43-.69.66-1.03,2.62-6.97,11.42-10.09,19.81-10.43,3.05-.33,6.1-.2,8.89.43.43-2.04,1.21-4.16,2.43-6.35,2.56-4.61,6.5-6.94,10.94-7.58,6.89-2.84,15.17,1.47,21.13,7.38,1.91,1.66,3.6,3.52,4.94,5.51,1.56.14,3.08.53,4.48,1.23,1.21.31,2.36.74,3.44,1.31.53-4.24,2.67-7.5,5.75-9.84,4.64-5.83,13.97-6.09,22.05-3.82,7.89,1.65,14.75,6.23,16.27,13.43,1.33,6.3-1.62,11.93-.36,10.57,7.74-9.41,27.74-9.4,35.43-.49.27-.77.59-1.54.99-2.32,3.42-6.52,11.27-9.06,19.31-8.51,8.4.02,17.31,2.79,20.19,9.66,1.42,1.89,2.41,4.01,2.82,6.33,12.96-1.96,28.25,4.45,24.57,18.8,5.42,1.16,10.84,4.26,14.95,8.37,3.36,2.89,5.84,6.4,6.42,10.28.18.61.33,1.23.45,1.85,7.99,1.45,16.01,5.53,18.03,12.35,2.28,4.17,2.72,9.02.23,14.11Z"/>
      <g>
        <path class="cls-13" d="m12.45,298.08c-15.99,25.71,30.4,44.27,38.75,21.4,6.57-18.02-27.11-40.09-38.75-21.4Z"/>
        <path class="cls-17" d="m16.13,297.75c-14.76,23.72,20.11,28.62,33.7,19.98,9.66-6.13-19.55-42.74-33.7-19.98Z"/>
      </g>
      <g>
        <path class="cls-15" d="m415.27,294.65c-14.7,26.47,32.56,42.71,39.76,19.46,5.67-18.32-29.06-38.7-39.76-19.46Z"/>
        <path class="cls-3" d="m418.92,294.14c-13.57,24.42,21.5,27.59,34.65,18.29,9.35-6.6-21.64-41.72-34.65-18.29Z"/>
      </g>
      <g>
        <path class="cls-9" d="m114.08,298.67c-14.7,26.47,32.56,42.71,39.76,19.46,5.67-18.32-29.06-38.7-39.76-19.46Z"/>
        <path class="cls-8" d="m117.73,298.15c-13.57,24.42,21.5,27.59,34.65,18.29,9.35-6.6-21.64-41.72-34.65-18.29Z"/>
      </g>
      <g>
        <path class="cls-1" d="m115.5,362.4c15.46,26.03-31.3,43.64-39.17,20.6-6.2-18.15,27.93-39.53,39.17-20.6Z"/>
        <path class="cls-2" d="m111.83,361.99c14.27,24.02-20.69,28.2-34.11,19.29-9.53-6.33,20.42-42.33,34.11-19.29Z"/>
      </g>
      <g>
        <path class="cls-13" d="m538.95,286.69c15.46,26.03-31.3,43.64-39.17,20.6-6.2-18.15,27.93-39.53,39.17-20.6Z"/>
        <path class="cls-17" d="m535.29,286.28c14.27,24.02-20.69,28.2-34.11,19.29-9.53-6.33,20.42-42.33,34.11-19.29Z"/>
      </g>
      <g>
        <path class="cls-17" d="m456.99,80.3c-18.41,21.01-33.22-10.93-28.91-26.45,3.06-11.02,46.58,6.29,28.91,26.45Z"/>
        <g>
          <path class="cls-13" d="m104.67,94.51c-8.23,29.13-53.2,7.33-41.91-14.23,8.9-16.99,47.9-6.96,41.91,14.23Z"/>
          <path class="cls-17" d="m102.45,91.57c-7.6,26.88-34.7,4.41-37.47-11.46-1.97-11.27,44.76-14.33,37.47,11.46Z"/>
        </g>
        <g>
          <g>
            <path class="cls-13" d="m263.51,133.75c-14.85,25.68-49.45,6.64-36.29-17.07,9.28-16.71,52.6-10.38,36.29,17.07Z"/>
            <path class="cls-17" d="m225.95,127.8c6.48,27.17,34.48,5.83,37.91-9.9,2.44-11.18-44.13-16.17-37.91,9.9Z"/>
          </g>
          <g>
            <path class="cls-15" d="m109.78,118.1c-1.96,6.92-5.98,10.97-10.84,12.83,0,0-10.45-4.79-19.01-11.49-8.87-6.93-13.34-12.35-13.34-12.35.29-1.07.72-2.15,1.28-3.23,8.9-16.99,47.9-6.96,41.91,14.23Z"/>
            <path class="cls-3" d="m107.55,115.16c-2.92,10.35-8.74,13.38-14.94,12.3l-14.77-9.33c-3.97-4.41-6.94-9.71-7.76-14.42-1.97-11.27,44.76-14.33,37.47,11.46Z"/>
          </g>
          <g>
            <path class="cls-13" d="m104.2,82.71c-14.7,26.47,32.56,42.71,39.76,19.46,5.67-18.32-29.06-38.7-39.76-19.46Z"/>
            <path class="cls-13" d="m107.85,82.2c-13.57,24.42,21.5,27.59,34.65,18.29,9.35-6.6-21.64-41.72-34.65-18.29Z"/>
          </g>
          <g>
            <path class="cls-15" d="m427.05,95.8c-10.08,18.14,8.95,31.47,24.24,30.59l15.52-11.13c5.67-18.32-29.06-38.7-39.76-19.46Z"/>
            <path class="cls-3" d="m430.7,95.28c-13.57,24.42,21.5,27.59,34.65,18.29,9.35-6.6-21.64-41.72-34.65-18.29Z"/>
          </g>
          <g>
            <path class="cls-13" d="m173.41,89.78c-8.23,29.13-53.2,7.33-41.91-14.23,8.9-16.99,47.9-6.96,41.91,14.23Z"/>
            <path class="cls-17" d="m171.18,86.84c-7.6,26.88-34.7,4.41-37.47-11.46-1.97-11.27,44.76-14.33,37.47,11.46Z"/>
          </g>
          <path class="cls-2" d="m439.66,102.72c-14.85,25.68-49.45,6.64-36.29-17.07,9.28-16.71,52.6-10.38,36.29,17.07Z"/>
          <g>
            <path class="cls-13" d="m218.77,84.58c-12.33,25.13-51.89,1.61-41.37-17.89,11.11-20.59,51.77-3.29,41.37,17.89Z"/>
            <path class="cls-17" d="m217.11,81.29c-12.31,25.08-34.92-1.91-34.8-18.01.09-11.44,46.61-6.05,34.8,18.01Z"/>
          </g>
          <g>
            <path class="cls-1" d="m417.77,83.57c-8.23,29.13-53.2,7.33-41.91-14.23,8.9-16.99,47.9-6.96,41.91,14.23Z"/>
            <path class="cls-2" d="m415.54,80.63c-7.6,26.88-34.7,4.41-37.47-11.46-1.97-11.27,44.76-14.33,37.47,11.46Z"/>
          </g>
          <g>
            <g>
              <path class="cls-7" d="m249.41,112.32c9.34,28.8,53.44,5.29,41.33-15.83-9.54-16.64-48.13-5.11-41.33,15.83Z"/>
              <path class="cls-16" d="m266.92,127.71c-1.06,0-2.11-.07-3.14-.22-7.8-1.11-13.58-6.27-16.27-14.55h0c-3.09-9.52,1.9-18.5,13.03-23.43,11.17-4.95,26.18-4.06,31.94,5.99,3.51,6.13,3.1,12.97-1.17,19.27-5.25,7.74-15.29,12.94-24.39,12.94Zm7.5-37.18c-4.11,0-8.43.94-12.26,2.64-7.13,3.16-13.72,9.69-10.85,18.54h0c2.22,6.84,6.72,10.93,13.02,11.82,8.29,1.17,18.69-3.66,23.67-11,2.38-3.51,4.49-8.97,1.01-15.04-2.78-4.85-8.45-6.96-14.59-6.96Z"/>
            </g>
            <g>
              <path class="cls-7" d="m251.52,109.3c8.62,26.57,34.84,3.07,37-12.89,1.54-11.34-45.28-12.61-37,12.89Z"/>
              <path class="cls-16" d="m264.21,123.31c-4.3,0-10.91-2.06-14.59-13.4h0c-2.98-9.17.71-14.64,4.33-17.62,8.31-6.83,24.39-7.08,32.16-2.74,4.34,2.42,4.61,5.51,4.39,7.13-1.47,10.86-13.57,25.55-25.07,26.58-.38.03-.79.05-1.22.05Zm-10.79-14.63c2.44,7.5,6.36,11.07,11.65,10.59,9.56-.86,20.2-13.76,21.47-23.13.18-1.36-1.19-2.44-2.38-3.1-6.52-3.64-20.85-3.26-27.67,2.34-3.87,3.18-4.9,7.65-3.07,13.29h0Z"/>
            </g>
          </g>
          <path class="cls-8" d="m293.56,85.56c7.38,26.94,34.66,4.69,37.56-11.15,2.06-11.25-44.64-14.7-37.56,11.15Z"/>
          <g>
            <path class="cls-13" d="m374.3,91.28c-14.85,25.68-49.45,6.64-36.29-17.07,9.28-16.71,52.6-10.38,36.29,17.07Z"/>
            <path class="cls-17" d="m336.74,85.33c6.48,27.17,34.48,5.83,37.91-9.9,2.43-11.18-44.13-16.17-37.91,9.9Z"/>
          </g>
          <g>
            <path class="cls-13" d="m403.65,111.12c-8.23,29.13-53.2,7.33-41.91-14.23,8.9-16.99,47.9-6.96,41.91,14.23Z"/>
            <path class="cls-17" d="m401.42,108.18c-7.6,26.88-34.7,4.41-37.47-11.46-1.97-11.27,44.76-14.33,37.47,11.46Z"/>
          </g>
          <g>
            <path class="cls-15" d="m239.73,130.81c.02,30.28,49.21,21.49,44.2-2.33-3.95-18.77-44.21-19.69-44.2,2.33Z"/>
            <path class="cls-3" d="m242.67,128.58c.02,27.94,32.2,13.65,39.17-.86,4.96-10.31-39.19-25.94-39.17.86Z"/>
          </g>
          <g>
            <path class="cls-9" d="m302.39,160.25c-13.73,1.51-28.01.63-41.82.63,2.77-22.14,34-16.25,41.82-.63Z"/>
            <path class="cls-8" d="m302.34,160.25c-12.94.65-25.89.87-38.84.68,4.79-20.48,29.51-19.35,38.84-.68Z"/>
          </g>
          <g>
            <path class="cls-9" d="m398.06,129.82c12.88,24.85,51.92.47,40.97-18.8-11.56-20.34-51.83-2.15-40.97,18.8Z"/>
            <path class="cls-8" d="m399.65,126.49c12.86,24.8,34.87-2.68,34.39-18.78-.34-11.44-46.73-5.02-34.39,18.78Z"/>
          </g>
          <g>
            <path class="cls-9" d="m320.68,95.31c-14.7,26.47,32.56,42.71,39.76,19.46,5.67-18.32-29.06-38.7-39.76-19.46Z"/>
            <path class="cls-8" d="m324.33,94.79c-13.57,24.42,21.5,27.59,34.65,18.29,9.35-6.6-21.64-41.72-34.65-18.29Z"/>
          </g>
          <g>
            <path class="cls-15" d="m281.52,84.91c-14.7,26.47,32.56,42.71,39.76,19.46,5.67-18.32-29.06-38.7-39.76-19.46Z"/>
            <path class="cls-3" d="m285.18,84.4c-13.57,24.42,21.5,27.59,34.65,18.29,9.35-6.6-21.64-41.72-34.65-18.29Z"/>
          </g>
          <g>
            <path class="cls-15" d="m282.01,127.76c-14.7,26.47,32.56,42.71,39.76,19.46,5.67-18.32-29.06-38.7-39.76-19.46Z"/>
            <path class="cls-3" d="m285.66,127.24c-13.57,24.42,21.5,27.59,34.65,18.29,9.35-6.6-21.64-41.72-34.65-18.29Z"/>
          </g>
          <path class="cls-13" d="m382.1,150.35c-13.91,0-28.39,5.3-42.43,6.83-10.2-29.44,35.04-32.16,42.43-6.83Z"/>
          <g>
            <path class="cls-1" d="m163.58,90.75c-15.99,25.71,30.4,44.27,38.75,21.4,6.57-18.02-27.11-40.09-38.75-21.4Z"/>
            <path class="cls-2" d="m167.25,90.41c-14.76,23.72,20.11,28.62,33.7,19.98,9.66-6.13-19.55-42.74-33.7-19.98Z"/>
          </g>
          <g>
            <path class="cls-1" d="m130.82,108.47c-15.99,25.71,30.4,44.27,38.75,21.4,6.57-18.02-27.11-40.09-38.75-21.4Z"/>
            <path class="cls-2" d="m134.49,108.13c-14.76,23.72,20.11,28.62,33.7,19.98,9.66-6.13-19.55-42.74-33.7-19.98Z"/>
          </g>
          <path class="cls-3" d="m261.38,160.88c-12.2,1.02-25.55-.55-37.89-1.87,4.9-15.75,32.09-11.38,37.89,1.87Z"/>
          <g>
            <g>
              <path class="cls-7" d="m238.72,97.69c-8.11,29.17,41.64,33.91,43.2,9.62,1.23-19.14-37.31-30.83-43.2-9.62Z"/>
              <path class="cls-16" d="m261.43,124.9c-7.08,0-14.26-2.34-19.11-6.64-5.9-5.23-7.86-12.73-5.53-21.11,2.68-9.65,11.8-14.38,23.8-12.35,12.05,2.04,24.07,11.06,23.33,22.63-.45,7.05-4.58,12.53-11.61,15.42-3.36,1.38-7.1,2.04-10.88,2.04Zm-5.9-36.53c-6.45,0-12.85,2.56-14.88,9.85h0c-1.93,6.93-.43,12.82,4.33,17.05,6.26,5.56,17.6,7.27,25.81,3.89,3.92-1.61,8.69-5,9.14-11.98.6-9.32-9.7-16.69-20-18.43-1.43-.24-2.92-.38-4.4-.38Z"/>
            </g>
            <g>
              <path class="cls-7" d="m242.15,96.33c-7.48,26.92,27.35,21.79,37.97,9.68,7.54-8.6-30.79-35.51-37.97-9.68Z"/>
              <path class="cls-16" d="m255.95,117.85c-3.65,0-7.08-.67-9.9-2.19-3.68-1.99-9.33-7.21-5.82-19.86h0c2.58-9.29,8.68-11.82,13.34-12.3,10.69-1.1,24.24,7.56,28.33,15.46,2.28,4.41.81,7.14-.27,8.37-5.22,5.95-16.17,10.51-25.68,10.51Zm-11.87-20.98c-2.11,7.6-.81,12.74,3.87,15.27,8.44,4.56,24.43-.32,30.67-7.44.91-1.03.35-2.69-.27-3.9-3.43-6.63-15.58-14.23-24.37-13.32-4.98.52-8.31,3.67-9.9,9.39h0Z"/>
            </g>
          </g>
          <g>
            <path class="cls-1" d="m383.44,121.58c-8.23,29.13-53.2,7.33-41.91-14.23,8.9-16.99,47.9-6.96,41.91,14.23Z"/>
            <path class="cls-2" d="m381.21,118.64c-7.6,26.88-34.7,4.41-37.47-11.46-1.97-11.27,44.76-14.33,37.47,11.46Z"/>
          </g>
          <g>
            <path class="cls-9" d="m202.4,144.39c0,6.3-1.5,10.36-3.95,12.7l-22.5-3.33c-15.96-10.82-28.43-32.79-.89-33.12,11.17-.13,28.18,12.11,27.34,23.75Z"/>
            <path class="cls-8" d="m198.68,148c-2.2,3.67-4.43,6.37-6.63,8.25l-19.86-3.18c-9.36-11.77-11.95-34.73,2.87-32.43,12.44,1.93,33.15,11.52,23.62,27.36Z"/>
          </g>
          <g>
            <path class="cls-15" d="m420.5,126.62c2.19,5.88.17,10.9-3.99,14.73l-28.72,7.93c-8.85-1.47-14.39-7.28-8.12-18.71,7.78-14.19,33.64-24.73,40.82-3.95Z"/>
            <path class="cls-3" d="m391.27,148.48c-8.01-1.74-13.58-8.34-11.12-18.75,7.12-30.2,55.37-8.2,32.17,12.95l-21.05,5.8Z"/>
          </g>
          <path class="cls-3" d="m169.15,151.72c-12.08-2.35-24.23-5.2-36-8.8,7.47-8.21,35.08-5.67,36,8.8Z"/>
          <g>
            <path class="cls-1" d="m232.28,159.66c-11.01-.39-22.23-1.74-33.09-3.16,9.47-5.41,26.63-8.47,33.09,3.16Z"/>
            <path class="cls-13" d="m230.39,159.55c-10.81-.72-21.59-1.91-32.35-3.18,7.46-4.86,27.99-9.16,32.35,3.18Z"/>
          </g>
          <g>
            <path class="cls-13" d="m290.04,142.49c-14.85,25.68-49.45,6.64-36.29-17.07,9.28-16.71,52.6-10.38,36.29,17.07Z"/>
            <path class="cls-17" d="m252.48,136.54c6.48,27.17,34.48,5.83,37.91-9.9,2.43-11.18-44.13-16.17-37.91,9.9Z"/>
          </g>
          <g>
            <path class="cls-1" d="m241.31,146.83c-10.13,31.24-56.9-1.7-37.78-23.46,13.23-15.06,43.68,5.55,37.78,23.46Z"/>
            <path class="cls-2" d="m237.26,148.82c-18.41,21.01-33.22-10.93-28.91-26.45,3.06-11.02,46.58,6.29,28.91,26.45Z"/>
          </g>
          <g>
            <path class="cls-9" d="m243.03,118.24c-26.07,29.79-58.4-34.46-18.85-34.65,13.87-.07,29.09,22.96,18.85,34.65Z"/>
            <path class="cls-8" d="m242.29,114.63c-18.41,21.01-34.93-13.42-28.07-27.99,6.3-13.39,45.73,7.83,28.07,27.99Z"/>
          </g>
          <path class="cls-2" d="m348.25,156.12c-14.5,1.98-29.34,3.68-43.94,4.01-6.6-26.42,47.84-35.68,43.94-4.01Z"/>
          <g>
            <path class="cls-15" d="m349.36,137.9c-12.33,25.13-51.89,1.61-41.37-17.89,11.11-20.59,51.77-3.29,41.37,17.89Z"/>
            <path class="cls-3" d="m347.7,134.61c-12.31,25.08-34.92-1.91-34.8-18.01.09-11.44,46.61-6.05,34.8,18.01Z"/>
          </g>
          <g>
            <path class="cls-13" d="m183.24,119.6c8,29.2,53.14,7.77,42.02-13.89-8.76-17.07-47.84-7.34-42.02,13.89Z"/>
            <path class="cls-17" d="m186.39,117.87c7.38,26.94,34.66,4.69,37.56-11.15,2.06-11.25-44.64-14.7-37.56,11.15Z"/>
          </g>
          <g>
            <path class="cls-9" d="m135.95,140.93c-1.03,1.11-2.09,2.06-3.57,2.71l-33.54-12.72c-2.65-6.45-2.65-13.74,2.59-18.98,16.54-16.55,50.55,11.67,34.52,28.99Z"/>
            <path class="cls-8" d="m135.3,137.3c-2.27,2.45-4.47,4.15-6.57,5.21l-16.79-5.91c-4.99-7.47-7.13-19.01-4.82-26.52,3.36-10.94,46.39,7.55,28.18,27.22Z"/>
          </g>
        </g>
        <g>
          <path class="cls-13" d="m292.54,18.43c.02,30.28,49.21,21.49,44.2-2.33-3.95-18.77-44.21-19.69-44.2,2.33Z"/>
          <path class="cls-17" d="m295.48,16.2c.02,27.94,32.2,13.65,39.17-.86,4.96-10.31-39.19-25.94-39.17.86Z"/>
        </g>
        <g>
          <path class="cls-1" d="m247.73,8.47c-14.7,26.47,32.56,42.71,39.76,19.46,5.67-18.32-29.06-38.7-39.76-19.46Z"/>
          <path class="cls-2" d="m251.38,7.96c-13.57,24.42,21.5,27.59,34.65,18.29,9.35-6.6-21.64-41.72-34.65-18.29Z"/>
        </g>
        <path class="cls-17" d="m105.73,87.23c-10.08,18.14,8.95,31.47,24.24,30.59l15.52-11.13c5.67-18.32-29.06-38.7-39.76-19.46Z"/>
        <g>
          <path class="cls-15" d="m436.62,57.24c-14.85,25.68-49.45,6.64-36.29-17.07,9.28-16.71,52.6-10.38,36.29,17.07Z"/>
          <path class="cls-3" d="m399.06,51.29c6.48,27.17,34.48,5.83,37.91-9.9,2.44-11.18-44.13-16.17-37.91,9.9Z"/>
        </g>
        <g>
          <path class="cls-9" d="m215.72,39.1c-12.33,25.13-51.89,1.61-41.37-17.89,11.11-20.59,51.77-3.29,41.37,17.89Z"/>
          <path class="cls-8" d="m214.06,35.81c-12.31,25.08-34.92-1.91-34.8-18.01.09-11.44,46.61-6.05,34.8,18.01Z"/>
        </g>
        <g>
          <path class="cls-1" d="m414.72,38.1c-8.23,29.13-53.2,7.33-41.91-14.23,8.9-16.99,47.9-6.96,41.91,14.23Z"/>
          <path class="cls-2" d="m412.49,35.16c-7.6,26.88-34.7,4.41-37.47-11.46-1.97-11.27,44.76-14.33,37.47,11.46Z"/>
        </g>
        <g>
          <path class="cls-15" d="m214.69,37.99c9.34,28.8,53.44,5.29,41.33-15.83-9.54-16.64-48.13-5.11-41.33,15.83Z"/>
          <path class="cls-3" d="m216.8,34.97c8.62,26.57,34.84,3.07,37-12.89,1.54-11.34-45.28-12.61-37,12.89Z"/>
        </g>
        <g>
          <path class="cls-9" d="m299.7,24.47c9.98,26.15-34.19,39.07-41.29,18.08-7.49-22.16,32.88-40.13,41.29-18.08Z"/>
          <path class="cls-8" d="m296.16,23.44c9.96,26.1-25.2,24.25-36.9,13.18-8.31-7.86,27.34-38.22,36.9-13.18Z"/>
        </g>
        <g>
          <path class="cls-15" d="m288.26,43.01c8,29.2,53.14,7.77,42.02-13.89-8.76-17.07-47.84-7.34-42.02,13.89Z"/>
          <path class="cls-3" d="m290.51,40.09c7.38,26.94,34.66,4.69,37.56-11.15,2.06-11.25-44.64-14.7-37.56,11.15Z"/>
        </g>
        <g>
          <path class="cls-9" d="m371.26,45.8c-14.85,25.68-49.45,6.64-36.29-17.07,9.28-16.71,52.6-10.38,36.29,17.07Z"/>
          <path class="cls-8" d="m333.7,39.85c6.48,27.17,34.48,5.83,37.91-9.9,2.44-11.18-44.13-16.17-37.91,9.9Z"/>
        </g>
        <g>
          <path class="cls-13" d="m400.6,65.64c-8.23,29.13-53.2,7.33-41.91-14.23,8.9-16.99,47.9-6.96,41.91,14.23Z"/>
          <path class="cls-17" d="m398.38,58.8c-7.6,26.88-34.7,4.41-37.47-11.46-1.97-11.27,44.76-14.33,37.47,11.46Z"/>
        </g>
        <g>
          <path class="cls-15" d="m221.86,89.83c.02,30.28,49.21,21.49,44.2-2.33-3.95-18.77-44.21-19.69-44.2,2.33Z"/>
          <path class="cls-3" d="m224.8,87.6c.02,27.94,32.2,13.65,39.17-.86,4.96-10.31-39.19-25.94-39.17.86Z"/>
        </g>
        <g>
          <path class="cls-9" d="m395.01,84.34c12.88,24.85,51.92.47,40.97-18.8-11.56-20.34-51.83-2.15-40.97,18.8Z"/>
          <path class="cls-8" d="m396.6,81.01c12.86,24.8,34.87-2.68,34.39-18.78-.34-11.44-46.73-5.02-34.39,18.78Z"/>
        </g>
        <g>
          <path class="cls-1" d="m317.63,49.83c-14.7,26.47,32.56,42.71,39.76,19.46,5.67-18.32-29.06-38.7-39.76-19.46Z"/>
          <path class="cls-2" d="m321.29,49.31c-13.57,24.42,21.5,27.59,34.65,18.29,9.35-6.6-21.64-41.72-34.65-18.29Z"/>
        </g>
        <g>
          <path class="cls-13" d="m278.48,39.43c-14.7,26.47,32.56,42.71,39.76,19.46,5.67-18.32-29.06-38.7-39.76-19.46Z"/>
          <path class="cls-17" d="m282.13,38.45c-13.57,24.42,21.5,27.59,34.65,18.29,9.35-6.6-21.64-41.72-34.65-18.29Z"/>
        </g>
        <g>
          <path class="cls-9" d="m281.52,106.13c-14.7,26.47,32.56,42.71,39.76,19.46,5.67-18.32-29.06-38.7-39.76-19.46Z"/>
          <path class="cls-8" d="m285.18,105.61c-13.57,24.42,21.5,27.59,34.65,18.29,9.35-6.6-21.64-41.72-34.65-18.29Z"/>
        </g>
        <g>
          <path class="cls-1" d="m160.53,45.27c-15.99,25.71,30.4,44.27,38.75,21.4,6.57-18.02-27.11-40.09-38.75-21.4Z"/>
          <path class="cls-2" d="m164.21,44.93c-14.76,23.72,20.11,28.62,33.7,19.98,9.66-6.13-19.55-42.74-33.7-19.98Z"/>
        </g>
        <g>
          <path class="cls-9" d="m127.77,62.99c-15.99,25.71,30.4,44.27,38.75,21.4,6.57-18.02-27.11-40.09-38.75-21.4Z"/>
          <path class="cls-8" d="m131.45,62.65c-14.76,23.72,20.11,28.62,33.7,19.98,9.66-6.13-19.55-42.74-33.7-19.98Z"/>
        </g>
        <g>
          <path class="cls-13" d="m235.68,52.21c-8.11,29.17,41.64,33.91,43.2,9.62,1.23-19.14-37.31-30.83-43.2-9.62Z"/>
          <path class="cls-17" d="m239.11,50.85c-7.48,26.92,27.35,21.79,37.97,9.68,7.54-8.6-30.79-35.51-37.97-9.68Z"/>
        </g>
        <g>
          <path class="cls-15" d="m380.39,76.11c-8.23,29.13-53.2,7.33-41.91-14.23,8.9-16.99,47.9-6.96,41.91,14.23Z"/>
          <path class="cls-3" d="m378.17,73.16c-7.6,26.88-34.7,4.41-37.47-11.46-1.97-11.27,44.76-14.33,37.47,11.46Z"/>
        </g>
        <g>
          <path class="cls-1" d="m239.98,72.77c-26.07,29.79-58.4-34.46-18.85-34.65,13.87-.07,29.09,22.96,18.85,34.65Z"/>
          <path class="cls-2" d="m239.24,69.15c-18.41,21.01-34.93-13.42-28.07-27.99,6.3-13.39,45.73,7.83,28.07,27.99Z"/>
        </g>
        <g>
          <path class="cls-1" d="m346.82,99.06c-12.33,25.13-51.89,1.61-41.37-17.89,11.11-20.59,51.77-3.29,41.37,17.89Z"/>
          <path class="cls-2" d="m345.16,95.77c-12.31,25.08-34.92-1.91-34.8-18.01.09-11.44,46.61-6.05,34.8,18.01Z"/>
        </g>
        <g>
          <path class="cls-15" d="m180.2,74.12c8,29.2,53.14,7.77,42.02-13.89-8.76-17.07-47.84-7.34-42.02,13.89Z"/>
          <path class="cls-3" d="m182.45,71.2c7.38,26.94,34.66,4.69,37.56-11.15,2.06-11.25-44.64-14.7-37.56,11.15Z"/>
        </g>
        <g>
          <path class="cls-9" d="m294.73,87.63c-14.85,25.68-49.45,6.64-36.29-17.07,9.28-16.71,52.6-10.38,36.29,17.07Z"/>
          <path class="cls-8" d="m257.17,81.68c6.48,27.17,34.48,5.83,37.91-9.9,2.44-11.18-44.13-16.17-37.91,9.9Z"/>
        </g>
        <g>
          <path class="cls-1" d="m282.27,119.36c-14.85,25.68-49.45,6.64-36.29-17.07,9.28-16.71,52.6-10.38,36.29,17.07Z"/>
          <path class="cls-2" d="m244.71,113.41c6.48,27.17,34.48,5.83,37.91-9.9,2.43-11.18-44.13-16.17-37.91,9.9Z"/>
        </g>
        <g>
          <path class="cls-15" d="m179.61,120.29c-10.13,31.24-56.9-1.7-37.78-23.46,13.23-15.06,43.68,5.55,37.78,23.46Z"/>
          <path class="cls-3" d="m175.56,122.28c-18.41,21.01-33.22-10.93-28.91-26.45,3.06-11.02,46.58,6.29,28.91,26.45Z"/>
        </g>
        <g>
          <path class="cls-1" d="m479.76,97.1c-12.33,25.13-51.89,1.61-41.37-17.89,11.11-20.59,51.77-3.29,41.37,17.89Z"/>
          <path class="cls-2" d="m478.1,93.81c-12.31,25.08-34.92-1.91-34.8-18.01.09-11.44,46.61-6.05,34.8,18.01Z"/>
        </g>
        <g>
          <path class="cls-1" d="m78.97,60.4c-15.99,25.71,30.4,44.27,38.75,21.4,6.57-18.02-27.11-40.09-38.75-21.4Z"/>
          <path class="cls-2" d="m82.64,60.07c-14.76,23.72,20.11,28.62,33.7,19.98,9.66-6.13-19.55-42.74-33.7-19.98Z"/>
        </g>
        <g>
          <path class="cls-15" d="m101.16,37.23c-14.7,26.47,32.56,42.71,39.76,19.46,5.67-18.32-29.06-38.7-39.76-19.46Z"/>
          <path class="cls-3" d="m104.81,36.72c-13.57,24.42,21.5,27.59,34.65,18.29,9.35-6.6-21.64-41.72-34.65-18.29Z"/>
        </g>
        <g>
          <path class="cls-13" d="m170.36,44.3c-8.23,29.13-53.2,7.33-41.91-14.23,8.9-16.99,47.9-6.96,41.91,14.23Z"/>
          <path class="cls-17" d="m168.14,41.36c-7.6,26.88-34.7,4.41-37.47-11.46-1.97-11.27,44.76-14.33,37.47,11.46Z"/>
        </g>
      </g>
    </g>
  </g>
</svg>