<?xml version="1.0" encoding="UTF-8"?>
<svg id="Ebene_2" data-name="Ebene 2" xmlns="http://www.w3.org/2000/svg" viewBox="0 0 250.87 211.1">
  <defs>
    <style>
      .cls-1 {
        fill: #4d3e35;
      }

      .cls-1, .cls-2, .cls-3, .cls-4, .cls-5, .cls-6, .cls-7, .cls-8, .cls-9, .cls-10, .cls-11, .cls-12, .cls-13, .cls-14, .cls-15 {
        stroke-width: 0px;
      }

      .cls-2 {
        fill: #603913;
      }

      .cls-3 {
        fill: #312a28;
      }

      .cls-4 {
        fill: #bda085;
      }

      .cls-5 {
        fill: #f89991;
      }

      .cls-6 {
        fill: #fed8b3;
      }

      .cls-7 {
        fill: #fde6c7;
      }

      .cls-8 {
        fill: #6a574a;
      }

      .cls-9 {
        fill: #110e0e;
      }

      .cls-10 {
        fill: #59493e;
      }

      .cls-11 {
        fill: #fff;
      }

      .cls-12 {
        fill: #fbc2b5;
      }

      .cls-13 {
        fill: #231f20;
      }

      .cls-14 {
        fill: #231d1d;
      }

      .cls-15 {
        fill: #826b5b;
      }
    </style>
  </defs>
  <g id="Pug">
    <g>
      <path class="cls-8" d="m172.01,183.57s-2.58,8.71-.39,9.16c2.19.46,4.01-1,4.01-1l-3.62-8.16Z"/>
      <path class="cls-4" d="m18.18,53.29s-14.7,13.88-13.97,31.46c.73,17.58,6.93,37.81,5.2,51.3C7.67,149.54-.35,163.57.01,168.31c.36,4.74,5.47,20.6,6.56,26.61s3.65,14.22,4.92,15.13c1.28.91,14.21.87,14.21.87l-.59-27.35.59-31.66,10.21-26.25,2.55-49.42-20.3-22.95Z"/>
      <polygon class="cls-4" points="190.12 187.15 172.62 187.15 162.66 129.06 190.12 129.06 190.12 187.15"/>
      <path class="cls-4" d="m190.12,187.15s.73,4.86,2.19,8.51c1.46,3.65,3.65,5.35,3.65,5.35,0,0,4.86-2.19,9.48,0s7.71,6.8,6.89,8.51-12,1.46-17.34,1.46-11.42.73-13.12-1.22c-1.7-1.94-8.61-18.94-9.23-22.6-.63-3.66,7.53-10.69,7.53-10.69l9.96,10.69Z"/>
      <path class="cls-15" d="m150.32,183.57s-2.58,8.71-.39,9.16c2.19.46,4.01-1,4.01-1l-3.62-8.16Z"/>
      <path class="cls-6" d="m155.3,37.26s-3.88,6.48-34.26,6.73c-30.38.25-68.53-9.95-85.06-4-16.53,5.95-30.62,25.39-25.52,48.97,5.1,23.57,13.37,39.37,9.96,49.58-3.4,10.21-7.78,20.17-8.02,23.82-.24,3.65,2.92,17.74,2.67,26.49-.24,8.75,0,14.34,0,14.34h13.37v-19.2s0-15.31,7.53-26,22.36-22.3,22.84-37.76c0,0,14.58-3.56,26.98,4.22,12.39,7.78,46.17,26,85.06,17.25,38.88-8.75,44.15-47.79,43.46-58.53-.69-10.73-28.88-36.01-28.88-36.01l-30.14-9.9Z"/>
      <polygon class="cls-6" points="168.43 187.15 150.93 187.15 140.97 129.06 168.43 129.06 168.43 187.15"/>
      <path class="cls-6" d="m168.43,187.15s.73,4.86,2.19,8.51c1.46,3.65,3.65,5.35,3.65,5.35,0,0,4.86-2.19,9.48,0,4.62,2.19,7.71,6.8,6.89,8.51s-12,1.46-17.34,1.46-11.42.73-13.12-1.22c-1.7-1.94-8.61-18.94-9.23-22.6-.63-3.66,7.53-10.69,7.53-10.69l9.96,10.69Z"/>
      <path class="cls-6" d="m28.45,187.15s.08,2.31.36,6.23c.36,5.01,1.46,7.62,1.46,7.62,0,0,4.86-2.19,9.48,0s7.71,6.8,6.89,8.51c-.82,1.7-12,1.46-17.34,1.46s-11.36-.15-13.06-2.1c-1.7-1.94-1.71-30.44-2.34-34.1-.63-3.66,4.59,1.69,4.59,1.69l9.96,10.69Z"/>
      <path class="cls-6" d="m19.24,51.97s-7.92-25.63,4.29-38.49C35.74.62,52.14-1.98,61.07,5.61c8.93,7.59,4.37,16.12,0,22.88-4.37,6.76-18.23,13.72-18.23,13.72,0,0,2.92-8.78,5.29-11.69,2.37-2.92,7.11-13.67-2.19-13.49-9.3.18-17,23.08-4.49,21.66l.84,13.28-19.5,3.52-3.56-3.52Z"/>
      <path class="cls-4" d="m60.03,28.44c-2.07,1.14-4.19,1.84-6.44,2.54-2.15.67-4.52,1.49-6.89,1.81-1.97,3.74-3.86,9.41-3.86,9.41,0,0,13.85-6.95,18.23-13.72.23-.35.45-.71.68-1.07-.57.35-1.14.7-1.72,1.02Z"/>
      <path class="cls-7" d="m227.97,46.92c1.65,27.74-24.06,60.76-24.06,60.76,0,0-50.69-33.46-50.69-60.31,0-19.46,17.92-24.28,39.27-24.28s34.32,4.41,35.48,23.84Z"/>
      <path class="cls-6" d="m237.5,40c.69,11.65-5.25,23.25-11.91,33.11-12.68,18.77-34.67,14.04-46.74,1.55-9.8-10.13-18.68-22.63-18.68-34.66,0-19.46,17.31-35.24,38.67-35.24s37.51,15.81,38.67,35.24Z"/>
      <path class="cls-4" d="m146.36,41.48h0c-1.17.3-2.49.58-3.98.85,0,0,0,0,0,0-8.18,8.17,1.17,21.88,1.17,21.88,0,0-1.01-4.23-1.61-7.94-1.54-9.4,4.42-14.8,4.42-14.8Z"/>
      <path class="cls-4" d="m131.84,43.59s0,0,0,0c-4.63,5.78-1.93,15.22-1.93,15.22-1.94-8.65,5.91-15.56,5.91-15.56h0c-1.25.13-2.57.24-3.98.34Z"/>
      <g>
        <path class="cls-1" d="m218.5,3.85s6.85,4.07,10.59,10.37c3.75,6.3,8.07,11.51,8.5,17.96.43,6.45,4.34-16.52,4.34-16.52l-6.31-5.78-9.9-5.32-4.44-.75-2.79.02Z"/>
        <path class="cls-8" d="m218.5,3.85s4.83-.26,8.36,2.83c3.53,3.09,10.57,10.54,10.65,18.84s.17,7.78.07,8.3c-.1.51,1.92,8.6,4.6,9.3,2.67.7,7.83-7.65,8.1-12.79.26-5.14,1.29-16.54-.16-18.48-1.45-1.94-3.63-4.16-8.97-5.3s-10.62-2.82-13.43-3.17c-2.81-.34-7.47-.48-9.2.46Z"/>
        <path class="cls-1" d="m185.59,3.85s-6.85,4.07-10.59,10.37c-3.75,6.3-8.07,11.51-8.5,17.96-.43,6.45-4.34-16.52-4.34-16.52l6.31-5.78,9.9-5.32,4.44-.75,2.79.02Z"/>
        <path class="cls-8" d="m185.59,3.85s-4.83-.26-8.36,2.83c-3.53,3.09-10.57,10.54-10.65,18.84s-.17,7.78-.07,8.3-1.92,8.6-4.6,9.3c-2.67.7-7.83-7.65-8.1-12.79-.26-5.14-1.29-16.54.16-18.48,1.45-1.94,3.63-4.16,8.97-5.3,5.35-1.14,10.62-2.82,13.43-3.17,2.81-.34,7.47-.48,9.2.46Z"/>
        <ellipse class="cls-6" cx="202.39" cy="34.11" rx="35.35" ry="34.11"/>
        <ellipse class="cls-8" cx="183.24" cy="30.93" rx="12.77" ry="11.08"/>
        <ellipse class="cls-8" cx="221.55" cy="30.93" rx="12.77" ry="11.08"/>
        <path class="cls-15" d="m187.2,12.28c.24-.24.52-.46.81-.65.28-.21.6-.34.91-.52.32-.14.65-.26.97-.39.33-.1.68-.17,1.02-.26.34-.11.69-.09,1.04-.13.35-.02.7-.07,1.05-.02l1.05.08c.39.02.69.14,1.04.2.34.09.67.14,1.01.25l1,.38c.34.12.65.28.96.45.31.17.63.32.93.51l.88.58c.3.19.56.42.84.63.56.43,1.07.9,1.57,1.43l.08.08v.12s-.02,4.55-.02,4.55c-.01,1.52,0,3.03-.04,4.55-.05,3.03-.11,6.06-.24,9.1-.13-3.03-.19-6.06-.24-9.1-.03-1.52-.03-3.03-.04-4.55l-.02-4.55.08.2c-.45-.48-.95-.95-1.48-1.38-.27-.21-.52-.44-.81-.62l-.84-.57c-.29-.18-.59-.33-.89-.5-.3-.17-.59-.33-.91-.44l-.93-.39c-.31-.12-.66-.19-.99-.29-.33-.07-.68-.22-.99-.23l-1.01-.12c-.34-.06-.68-.03-1.01-.02-.34.03-.68,0-1.01.07-.33.06-.67.11-1,.19-.32.11-.65.2-.97.32-.3.15-.63.27-.92.45-.3.17-.59.35-.86.58Z"/>
        <path class="cls-15" d="m216.89,12.28c-.27-.22-.56-.41-.86-.58-.29-.18-.62-.3-.92-.45-.32-.12-.65-.21-.97-.32-.33-.08-.67-.12-1-.19-.33-.08-.68-.05-1.01-.07-.34,0-.68-.05-1.01.02l-1.01.12c-.31.01-.66.16-.99.23-.33.1-.68.16-.99.29l-.93.39c-.31.11-.61.27-.91.44-.29.17-.6.32-.89.5l-.84.57c-.29.18-.54.42-.81.62-.53.42-1.03.89-1.48,1.38l.08-.2-.02,4.55c-.01,1.52,0,3.03-.04,4.55-.05,3.03-.11,6.06-.24,9.1-.13-3.03-.19-6.06-.24-9.1-.03-1.52-.03-3.03-.04-4.55l-.02-4.55v-.12s.08-.08.08-.08c.5-.52,1.01-.99,1.57-1.43.28-.21.55-.44.84-.63l.88-.58c.3-.18.62-.34.93-.51.31-.17.62-.33.96-.45l1-.38c.33-.11.67-.16,1.01-.25.35-.06.65-.19,1.04-.2l1.05-.08c.35-.05.7,0,1.05.02.35.04.7.02,1.04.13.34.09.69.15,1.02.26.33.13.66.25.97.39.3.18.63.31.91.52.29.19.57.41.81.65Z"/>
        <path class="cls-15" d="m218.84,16.57s-6.04.79-8.71,5.92c-3.25,6.26,1.13,3.9,1.13,3.9l3.77-2.65,3.81-7.17Z"/>
        <path class="cls-7" d="m218.02,16.62c2.15-.35,7.97,1.15,11.41,4.69,3.44,3.54,5.44,7.41,4.75,8.17-.69.76-1.54-.8-3.78-1.54-2.24-.74-.59-3.16-3.29-4.2-2.7-1.04-6.05-.12-7.53,1.19-1.48,1.31-5.43,3.18-7.66.33-2.23-2.85,1.33-7.88,6.11-8.64Z"/>
        <path class="cls-15" d="m186.12,16.57s6.04.79,8.71,5.92c3.25,6.26-1.13,3.9-1.13,3.9l-3.77-2.65-3.81-7.17Z"/>
        <g>
          <path class="cls-10" d="m232.5,29.48s.03,4.27-4.46,6.16c-5.48,2.3-9.12-2.78-9.12-2.78l13.58-3.38h0Z"/>
          <g>
            <path class="cls-10" d="m218.92,32.86s4.12.12,7.98-.92c3.86-1.04,5.6-2.46,5.6-2.46-.84-4.23-4.62-6.53-8.48-5.49s-6.14,5.01-5.1,8.87Z"/>
            <g>
              <path class="cls-11" d="m232.01,29.57s-2.14-3.26-5.7-2.67-4.53,4.81-6.45,5.93c0,0,4.29,2.5,7.74,1.67,3.45-.83,4.41-4.93,4.41-4.93Z"/>
              <path class="cls-2" d="m230.51,30.88c-.07,2.13-1.85,3.8-3.98,3.73-2.13-.07-3.8-1.85-3.73-3.98.07-2.13,1.85-3.8,3.98-3.73,2.13.07,3.8,1.85,3.73,3.98Z"/>
              <path class="cls-13" d="m229.43,30.84c-.05,1.53-1.33,2.73-2.86,2.68s-2.73-1.33-2.68-2.86c.05-1.53,1.33-2.73,2.86-2.68,1.53.05,2.73,1.33,2.68,2.86Z"/>
              <path class="cls-11" d="m227.1,29.49c-.03.83-.72,1.47-1.54,1.44-.83-.03-1.47-.72-1.44-1.54.03-.83.72-1.47,1.54-1.44.83.03,1.47.72,1.44,1.54Z"/>
              <path class="cls-13" d="m226.08,35.14h0c-3.17,0-6.33-1.83-6.46-1.91l-.7-.41.7-.41c.63-.37,1.21-1.2,1.81-2.09,1.06-1.56,2.39-3.5,4.8-3.9.31-.05.63-.08.94-.08,3.26,0,5.15,2.83,5.23,2.95l.11.17-.05.2c-.04.18-1.07,4.39-4.76,5.28-.5.12-1.05.18-1.62.18Zm-5.35-2.39c1.05.51,3.24,1.44,5.35,1.44h0c.5,0,.97-.05,1.4-.16,2.7-.65,3.77-3.58,4.01-4.38-.43-.56-2-2.36-4.32-2.36-.26,0-.52.02-.78.07-2.02.33-3.12,1.94-4.18,3.5-.48.71-.95,1.39-1.48,1.89Z"/>
            </g>
          </g>
        </g>
        <path class="cls-7" d="m186.77,16.62c-2.15-.35-7.97,1.15-11.41,4.69-3.44,3.54-5.44,7.41-4.75,8.17s1.54-.8,3.78-1.54c2.24-.74.59-3.16,3.29-4.2,2.7-1.04,6.05-.12,7.53,1.19,1.48,1.31,5.48,2.67,7.71-.18s-1.39-7.36-6.16-8.13Z"/>
        <g>
          <path class="cls-10" d="m172.28,29.48s-.03,4.27,4.46,6.16c5.48,2.3,9.12-2.78,9.12-2.78l-13.58-3.38h0Z"/>
          <g>
            <path class="cls-10" d="m185.86,32.86s-4.12.12-7.98-.92-5.6-2.46-5.6-2.46c.84-4.23,4.62-6.53,8.48-5.49,3.86,1.04,6.14,5.01,5.1,8.87Z"/>
            <g>
              <path class="cls-11" d="m172.78,29.57s2.14-3.26,5.7-2.67c3.56.59,4.53,4.81,6.45,5.93,0,0-4.29,2.5-7.74,1.67-3.45-.83-4.41-4.93-4.41-4.93Z"/>
              <path class="cls-2" d="m174.28,30.88c.07,2.13,1.85,3.8,3.98,3.73,2.13-.07,3.8-1.85,3.73-3.98-.07-2.13-1.85-3.8-3.98-3.73-2.13.07-3.8,1.85-3.73,3.98Z"/>
              <path class="cls-13" d="m175.36,30.84c.05,1.53,1.33,2.73,2.86,2.68,1.53-.05,2.73-1.33,2.68-2.86-.05-1.53-1.33-2.73-2.86-2.68-1.53.05-2.73,1.33-2.68,2.86Z"/>
              <path class="cls-11" d="m177.68,29.49c.03.83.72,1.47,1.54,1.44.83-.03,1.47-.72,1.44-1.54-.03-.83-.72-1.47-1.54-1.44s-1.47.72-1.44,1.54Z"/>
              <path class="cls-13" d="m178.7,35.14c-.57,0-1.12-.06-1.62-.18-3.69-.89-4.72-5.1-4.76-5.28l-.05-.2.11-.17c.08-.12,1.97-2.95,5.23-2.95.31,0,.62.03.94.08,2.42.4,3.74,2.34,4.8,3.9.6.88,1.17,1.72,1.81,2.09l.7.41-.7.41c-.13.08-3.3,1.91-6.46,1.91Zm-5.41-5.48c.24.8,1.3,3.73,4.01,4.38.43.1.9.16,1.4.16,2.12,0,4.31-.93,5.35-1.44-.53-.5-1-1.18-1.48-1.89-1.06-1.56-2.16-3.16-4.18-3.5-.26-.04-.52-.07-.78-.07-2.32,0-3.89,1.8-4.32,2.36Z"/>
            </g>
          </g>
        </g>
        <path class="cls-15" d="m202.39,20.16c3.85,0,6.8.31,11.54,5.54,4.74,5.23,10.89,12.54,12.72,14.85,1.83,2.31,4.83,4.16,6.21,4.85s4.23,2.85,3.85,5.39c-.38,2.54-6.37,9.16-9.61,13.24-3.24,4.08-13.44,16.16-24.71,16.16V20.16Z"/>
        <path class="cls-15" d="m202.39,20.16c-3.85,0-6.8.31-11.54,5.54-4.74,5.23-10.89,12.54-12.72,14.85s-4.83,4.16-6.21,4.85c-1.39.69-4.23,2.85-3.85,5.39.38,2.54,6.37,9.16,9.61,13.24,3.24,4.08,13.44,16.16,24.71,16.16V20.16Z"/>
        <path class="cls-3" d="m221.82,54.87l-19.43-6.57-19.43,6.57-2.18,1.7s8.61,12.75,21.61,12.75c14.5,0,22.02-13.83,22.02-13.83l-2.59-.62Z"/>
        <path class="cls-12" d="m202.39,55.02s4.08-1.15,8.62-.69c4.54.46,5.16,1.69,5.16,1.69,0,0-2.31,5.79-2.31,7.72s2.61,7.55,2.24,11.16-7.17,9.52-13.71,9.52v-29.4Z"/>
        <path class="cls-12" d="m202.39,55.02s-4.08-1.15-8.62-.69c-4.54.46-5.16,1.69-5.16,1.69,0,0,2.57,5.79,2.57,7.72s-2.86,7.55-2.5,11.16c.36,3.61,7.17,9.52,13.71,9.52v-29.4Z"/>
        <path class="cls-5" d="m202.43,70.65h0c.41,0,.75-13.2.75-13.2,0-.64-.34-1.16-.75-1.16h0c-.41,0-.75.52-.75,1.16,0,0,.34,13.2.75,13.2Z"/>
        <path class="cls-5" d="m193.77,54.33s-3.34,1.05-3.39,1.05c1.52,2.63,8.12,5.44,12.01,5.44v-5.8s-4.08-1.15-8.62-.69Z"/>
        <path class="cls-5" d="m211.01,54.33s3.34,1.05,3.39,1.05c-1.52,2.63-8.12,5.44-12.01,5.44v-5.8s4.08-1.15,8.62-.69Z"/>
        <path class="cls-8" d="m202.39,28.7c-3.23,0-8.08,1-16.28,9.39-8.19,8.39-9.63,9.54-10.21,11.18-.56,1.57,1,3.92,2.64,5.44,2.69,2.49,9.87,3.81,14.64,1.58,5.76-2.69,6.19-5.96,9.2-7.53v-20.06Z"/>
        <path class="cls-8" d="m202.04,28.7c3.23,0,8.08,1,16.28,9.39s10.08,9.45,10.21,11.18c.1,1.39-1.3,3.69-2.94,5.21-2.69,2.49-9.56,4.04-14.34,1.81-5.76-2.69-6.52-6.29-9.83-7.32l.62-20.27Z"/>
        <g>
          <path class="cls-14" d="m202.04,30.63s6.88-.99,6.88,3.73-6.88,6.65-6.88,6.65v-10.38Z"/>
          <path class="cls-9" d="m207.79,35.53c.23.73-.44,1.63-1.5,2.01-1.06.38-2.11.09-2.35-.64-.23-.73.44-1.63,1.5-2.01,1.06-.38,2.11-.09,2.35.64Z"/>
          <path class="cls-14" d="m202.04,30.63s-6.88-.99-6.88,3.73,6.88,6.65,6.88,6.65v-10.38Z"/>
          <path class="cls-9" d="m196.3,35.53c-.23.73.44,1.63,1.5,2.01,1.06.38,2.11.09,2.35-.64s-.44-1.63-1.5-2.01c-1.06-.38-2.11-.09-2.35.64Z"/>
        </g>
      </g>
      <path class="cls-3" d="m229.33,47.86c-.31,1.41-.85,2.79-1.56,4.07-.36.64-.76,1.25-1.21,1.84-.24.28-.46.58-.72.84l-.8.78-.9.66c-.31.21-.65.37-.97.56-.32.2-.68.31-1.02.46-.34.14-.69.28-1.06.35-.36.08-.72.19-1.09.25l-1.11.12c-.78.08-1.46,0-2.2,0l-1.09-.02-1.1-.16c-.73-.11-1.48-.18-2.17-.44l-1.06-.32c-.36-.1-.68-.3-1.02-.44-.33-.16-.68-.31-1-.49l-.93-.61c-.32-.19-.61-.41-.89-.66l-.85-.71-1.57-1.51c-.51-.5-1.05-1.02-1.53-1.56-.48-.52-.98-1.12-1.5-1.24h.11c-.52.13-1.02.73-1.5,1.24-.48.54-1.02,1.06-1.53,1.56l-1.57,1.51-.85.71c-.28.25-.57.47-.89.66l-.93.61c-.32.18-.67.32-1,.49-.34.14-.66.35-1.02.44l-1.06.32c-.7.25-1.44.33-2.16.44l-1.09.16-1.1.02c-.74,0-1.45.07-2.21,0l-1.08-.11c-.36-.06-.73-.17-1.1-.25-.37-.07-.72-.21-1.07-.35-.34-.14-.7-.26-1.02-.46-.32-.19-.66-.35-.97-.56l-.9-.66-.79-.78c-.26-.27-.48-.56-.72-.84-.45-.58-.85-1.2-1.21-1.84-.71-1.28-1.24-2.65-1.57-4.06.43,1.38,1.05,2.7,1.83,3.9.39.6.83,1.17,1.3,1.7.25.25.48.52.74.76l.81.69.85.62c.29.2.61.35.91.53.3.19.64.29.96.43.32.14.65.27.99.33.34.08.66.18,1.01.24l1.08.11c.68.07,1.42,0,2.13,0l1.07-.02,1.06-.15c.7-.1,1.42-.17,2.08-.42l1.02-.3c.34-.09.64-.29.97-.42.32-.16.64-.29.95-.46l.89-.58c.3-.18.59-.4.85-.63l.82-.68,1.56-1.5c.52-.51,1.03-1,1.51-1.54.51-.5.92-1.17,1.84-1.43l.05-.02.05.02c.92.26,1.33.93,1.84,1.43.48.53.98,1.03,1.51,1.54l1.56,1.5.82.68c.27.24.55.45.85.63l.89.58c.31.17.64.31.95.46.32.14.63.33.97.42l1.02.3c.67.25,1.38.31,2.07.42l1.05.15,1.09.02c.71,0,1.48.07,2.14,0l1.05-.11c.35-.06.68-.16,1.03-.24.35-.07.67-.19,1-.33.32-.14.66-.24.96-.43.3-.18.62-.33.91-.53l.85-.62.8-.69c.26-.24.49-.51.74-.76.47-.53.91-1.1,1.3-1.7.78-1.2,1.41-2.52,1.84-3.9Z"/>
    </g>
  </g>
</svg>