<?xml version="1.0" encoding="utf-8"?>
<!-- Generator: Adobe Illustrator 27.8.1, SVG Export Plug-In . SVG Version: 6.00 Build 0)  -->
<svg version="1.1" id="Ebene_2_00000180349344054980189090000012195319587537679519_"
	 xmlns="http://www.w3.org/2000/svg" xmlns:xlink="http://www.w3.org/1999/xlink" x="0px" y="0px" viewBox="0 0 227.5 259.2"
	 style="enable-background:new 0 0 227.5 259.2;" xml:space="preserve">
<style type="text/css">
	.st0{fill:#C9B49F;}
	.st1{fill:#59493E;}
	.st2{fill:#312A28;}
	.st3{fill:#EEE6D9;}
	.st4{fill:#FBC2B5;}
	.st5{fill:#231F20;}
	.st6{fill:#231D1D;}
	.st7{fill:#110E0E;}
	.st8{fill:#FFFFFF;}
	.st9{fill:#603913;}
</style>
<g id="French_Bulldog">
	<g>
		<g>
			<path class="st0" d="M29.9,213.8L13,197.5c0,0-0.4,38-0.1,40.3c1.5,10.8,6.2,19.3,17,19.4c8.1,0,10.6-2.6,10.6-2.6
				s9.2,0.9,8.1-6.6s-13.1-5.5-14.6-5.7c-1.5-0.2-2.3-1.2-3.4-3.1c-1.2-1.9-2.6-8.4-2.6-8.4L29.9,213.8L29.9,213.8z"/>
			<path class="st1" d="M40.6,252.2c0.1,0.3,0.1,0.7,0.2,1c0.1,0.6,0.1,1.1,0.1,1.4c-0.3,0-0.5,0-0.5,0s-0.2,0.2-0.5,0.4
				c0-0.1,0-0.2,0-0.3c0-0.3,0.1-0.8,0-1.4c0-0.3,0-0.6-0.1-0.9c-0.1-0.3-0.1-0.7-0.3-1c-0.1-0.3-0.2-0.7-0.4-1
				c-0.2-0.3-0.4-0.7-0.6-0.9l-0.4-0.4l-0.4-0.4c-0.3-0.3-0.6-0.5-0.9-0.7c-0.3-0.2-0.6-0.4-0.9-0.5c-0.3-0.1-0.6-0.3-0.9-0.4
				c-1.1-0.4-1.9-0.4-1.9-0.4s0.8,0,2,0.3c0.3,0.1,0.6,0.2,0.9,0.3c0.3,0.1,0.7,0.3,1,0.4c0.3,0.2,0.7,0.4,1,0.6l0.5,0.4l0.4,0.4
				c0.3,0.3,0.5,0.6,0.8,1c0.2,0.3,0.4,0.7,0.6,1.1C40.4,251.5,40.5,251.9,40.6,252.2L40.6,252.2z"/>
		</g>
		<path class="st2" d="M9.1,142.6c-6.5,1.4-8.3-3.9-8.3-3.9s3.5-5.9,4.4-7.9c1-2,9.7-5.8,14.8-6.8s12.8,3.5,12.8,3.5
			C32.9,127.5,15.6,141.2,9.1,142.6z"/>
		<polygon class="st0" points="140.9,185.8 167.6,177.2 151.5,240.5 142.3,233.4 137.6,196 		"/>
		
			<ellipse transform="matrix(0.5119 -0.859 0.859 0.5119 -147.4502 124.3362)" class="st0" cx="35.7" cy="191.9" rx="24.9" ry="15.9"/>
		<path class="st0" d="M33.8,213.9l-4.5-10.5l-5.4,5.2l-3,18.1c0,0,5.4,8.2,6.4-3.1C28.1,215.7,33.8,213.9,33.8,213.9L33.8,213.9z"
			/>
		<path class="st3" d="M127.8,84.3l51.8,13.3c0,0-2.3,6.3-3.7,26.2c-1.3,19.9,5.2,37.1-5.8,52.3c-11,15.2-38.2,24.3-63.1,23.8
			c-24.9-0.5-47.9-13.9-52.1-16.5s-19.7-24-28.6-4.4c-8.9,19.6-6.6,21.8-8.6,32.3c-1.9,10.4-4.4,29.1-4.4,29.1H1.8
			c0,0-1.7-27.7-1.7-32.4s1.6-3.1,3.4-14.6s-6.8-50,20.7-73s90.5-20.2,92.4-20.9C118.4,98.7,127.8,84.3,127.8,84.3L127.8,84.3z"/>
		<polygon class="st3" points="106.4,193.9 118.9,242.3 135.4,242.3 132.3,192.4 		"/>
		
			<ellipse transform="matrix(0.5119 -0.859 0.859 0.5119 -148.0547 112.3006)" class="st3" cx="24.8" cy="186.4" rx="24.9" ry="15.9"/>
		<path class="st3" d="M22.9,208.4l-4.5-10.5l-5.4,5.2l-3,18.1c0,0,5.4,8.2,6.4-3.1C17.2,210.2,22.9,208.4,22.9,208.4L22.9,208.4z"
			/>
		<path class="st3" d="M51.9,180.7c0,0-2.1-14.9-2.2-15.9c-0.1-1-11.9,1.2-11.9,1.2l-4.9,19.8c0,0,10.3-3.7,10.7-7.2
			C43.8,175,51.9,180.7,51.9,180.7L51.9,180.7z"/>
		<path class="st2" d="M94.3,125.4c2.1,5.8,10.5,0.3,15.2-6.3c2.4-3.3,2-8.8,2.9-14.6c0.6-4.2,4.2-5.1,4.2-5.1
			c-1.4,0.6-37.8-0.9-67.4,8.3c-6.9,5.2-0.9,14.7,4.3,11.3s9.9,4.2,7.6,10.7c-2.4,6.5-3.4,24.6,8.4,25.9s13.9-27.7,16-33
			C87.5,117.5,92.2,119.6,94.3,125.4L94.3,125.4z"/>
		<g>
			<g>
				<path class="st2" d="M117.4,50.5l12.5,9.8l1.7,5.7c0,0-8.3,8.9-8.2,3.3S117.4,50.5,117.4,50.5L117.4,50.5z"/>
				<g>
					<path class="st4" d="M151.7,38.9c0,0-25.5,31.4-26.2,26.9s-7.6-12.2-8.6-16.8c-1-4.6,0.7-8.5,1.2-10.1
						c1.6-5.5-2.3-9.2,0.3-20.8c2.7-12.3,7-17,13.1-17.8c3.9-0.5,10.7,4.6,13.9,11.5C148.2,17.9,151.6,38.9,151.7,38.9L151.7,38.9z"
						/>
					<path class="st2" d="M125.9,66.5c-0.4,0-0.7-0.2-0.7-0.7c-0.3-2.3-2.4-5.4-4.3-8.5c-1.9-2.9-3.8-6-4.3-8.3
						c-0.9-4,0.3-7.5,0.9-9.4c0.1-0.3,0.2-0.6,0.3-0.8c0.7-2.3,0.3-4.2,0-6.7c-0.5-3.3-1.2-7.4,0.3-14.2c2.6-11.6,6.7-17.1,13.3-18
						c0.2,0,0.4,0,0.6,0c3.9,0,10.4,4.8,13.6,11.7c2.8,6.1,6.1,26.3,6.3,27.2l0,0.1l-0.1,0.1C149.6,41.9,129.4,66.6,125.9,66.5
						L125.9,66.5z M151.4,38.9c-0.3-1.7-3.5-21.2-6.2-27c-3.3-7-10.1-11.8-13.7-11.4c-6.4,0.8-10.4,6.2-12.9,17.6
						c-1.5,6.6-0.8,10.7-0.3,14c0.4,2.4,0.7,4.5,0,6.9c-0.1,0.2-0.2,0.5-0.3,0.8c-0.6,2-1.7,5.2-0.9,9.1c0.5,2.2,2.4,5.2,4.2,8.1
						c2,3.1,4,6.3,4.4,8.7c0,0.2,0.1,0.2,0.2,0.2C128.7,66,145.2,46.5,151.4,38.9L151.4,38.9z"/>
				</g>
				<g>
					<path class="st2" d="M145.4,11.8c-1.4-3.1-3.9-6.3-6.5-8.9c2.7,3,5.1,9.7,5.7,17.1c0.7,8.2-3,14.6-5.4,20.2
						c-1.7,4-1.6,10.9-1.3,14.7c6.9-7.7,13.8-16,13.8-16C151.6,38.9,148.2,17.9,145.4,11.8z"/>
					<path class="st2" d="M137.9,1.9c0,0,0.1,0.1,0.1,0.1C138,2,137.9,1.9,137.9,1.9z"/>
				</g>
			</g>
			<g>
				<path class="st2" d="M205.8,77.8l-15.9,0.7l-4.7,3.6c0,0,1.6,12.1,4.8,7.4S205.8,77.8,205.8,77.8L205.8,77.8z"/>
				<g>
					<path class="st4" d="M184.6,48.5c0,0,2.5,40.4,5.7,37.1c3.2-3.3,13.2-5.5,16.8-8.7s4.4-7.3,4.9-8.9c1.9-5.3,7.2-6.1,11.9-17.1
						c4.9-11.6,4.2-17.9-0.3-22.1c-2.9-2.7-11.4-2.5-18,1.3C199.6,33.3,184.6,48.4,184.6,48.5L184.6,48.5z"/>
					<path class="st2" d="M189.9,86c-0.6,0-2.1-0.1-4-18.9c-0.9-9.2-1.5-18.6-1.5-18.7v-0.1l0.1-0.1c0.6-0.6,15.1-15.2,20.9-18.5
						c3.5-2,7.8-3.1,11.7-3.1c3,0,5.4,0.7,6.7,1.9c4.9,4.6,5,11.5,0.4,22.4c-2.7,6.3-5.6,9.3-8,11.7c-1.7,1.8-3.1,3.2-3.9,5.4
						c-0.1,0.2-0.2,0.5-0.3,0.8c-0.6,1.9-1.7,5.4-4.8,8.2c-1.8,1.6-5.1,2.9-8.3,4.2c-3.4,1.4-6.9,2.8-8.5,4.4
						C190.3,85.9,190.1,86,189.9,86L189.9,86z M217,27.2c-3.8,0-8,1.1-11.4,3c-5.6,3.1-19.5,17.1-20.7,18.3
						c1.1,18.2,3.3,36.9,5,36.9c0.1,0,0.1,0,0.2-0.1c1.7-1.7,5.2-3.2,8.6-4.6c3.2-1.3,6.4-2.6,8.1-4.2c3-2.7,4-6,4.6-8
						c0.1-0.3,0.2-0.6,0.3-0.8c0.8-2.3,2.3-3.8,4-5.6c2.3-2.4,5.2-5.3,7.9-11.5c4.5-10.7,4.5-17.4-0.3-21.8
						C222.2,27.8,219.9,27.2,217,27.2L217,27.2z"/>
				</g>
				<g>
					<path class="st2" d="M205.5,30c2.9-1.6,6.8-2.9,10.5-3.5c-3.9,0.8-9.7,4.9-14.6,10.6c-5.3,6.3-6,13.7-7.3,19.6
						c-0.9,4.2-5.1,9.8-7.5,12.8c-1.2-10.3-5-22.7-5-22.7S199.6,33.3,205.5,30z"/>
					<path class="st2" d="M217.3,26.3c-0.1,0-0.1,0-0.1,0C217.2,26.3,217.3,26.3,217.3,26.3z"/>
				</g>
			</g>
			<circle class="st2" cx="157.6" cy="75.5" r="37.8"/>
			<path class="st2" d="M119,85.2c4.7-21.6,24.1-35.7,43.3-31.5s30.9,25.1,26.2,46.8c-4.7,21.6-23.2,32.1-42.4,27.9
				C126.9,124.1,114.3,106.8,119,85.2L119,85.2z"/>
			<path class="st3" d="M132.7,116l3.6-7.9l14.4-1.1l-4.2,19C136.3,123.7,132.8,116,132.7,116L132.7,116z"/>
			<path class="st3" d="M162.9,122.8l0.3-8.8l-12.6-7l-4.2,19C156.7,128.2,162.9,122.8,162.9,122.8L162.9,122.8z"/>
			<path class="st3" d="M155.5,84.9l-5.2,24.3c-4.1-0.9-9.4,1.7-11.5,3.7c-2.2,2.1-5.7,3.9-8.2,3.3c-2-0.4-4.4-1.9-6.2-4
				c-1.8-2-4.6-4.9-4.3-8.3s10.6-12.1,18.1-17C144.4,83,155.5,84.9,155.5,84.9L155.5,84.9z"/>
			<path class="st3" d="M150.2,109.2c4,0.9,7.8,5.4,8.9,8.2c1.1,2.8,3.6,5.9,6.1,6.5c1.9,0.4,4.8,0.1,7.3-1c2.5-1.1,6.2-2.5,7.4-5.7
				c1.2-3.2-4.6-15.4-9.4-23c-4.1-6.4-14.9-9.3-14.9-9.3L150.2,109.2z"/>
			<path class="st3" d="M165.7,38.5c-2-0.4-4-0.7-5.9-0.8c-4,5.4-7.9,15.1-10.4,26.4c-4,18.4-2.7,34.3,2.9,35.6
				c5.7,1.2,13.5-12.7,17.5-31.1c2.5-11.3,2.9-21.7,1.6-28.3C169.6,39.5,167.7,38.9,165.7,38.5z"/>
			<path class="st5" d="M170.9,115.2c-0.7,0.9-1.5,1.7-2.4,2.3c-0.9,0.6-2,1.1-3.1,1.4c-0.6,0.1-1.2,0.2-1.7,0.2
				c-0.6,0-1.2-0.1-1.7-0.2c-0.6-0.1-1.1-0.3-1.7-0.5c-0.6-0.2-1.1-0.4-1.6-0.7c-1-0.5-2-1.2-2.8-2c-0.4-0.4-0.9-0.8-1.2-1.2
				c-0.4-0.4-0.8-0.9-1.1-1.3c-0.3-0.4-0.7-0.9-1-1.4c-0.3-0.5-0.6-1-0.9-1.4c-0.6-1-1.1-1.9-1.6-3l1.2,0.3
				c-0.9,0.7-1.8,1.4-2.7,2.1c-0.4,0.3-0.9,0.7-1.4,1c-0.5,0.3-1,0.6-1.5,0.9c-0.3,0.1-0.5,0.3-0.8,0.4c-0.2,0.1-0.5,0.2-0.8,0.3
				c-0.5,0.2-1.1,0.4-1.6,0.6c-1.1,0.3-2.2,0.5-3.4,0.6c-1.2,0-2.3,0-3.4-0.3c-1.1-0.2-2.3-0.7-3.2-1.4c-0.9-0.7-1.7-1.6-2.2-2.6
				c-0.6-1-1-2-1.2-3.1c0.4,1,0.9,2,1.6,2.9c0.6,0.9,1.4,1.6,2.3,2.2c0.9,0.6,1.9,0.9,2.9,1c1,0.2,2.1,0.2,3.2,0.1
				c2.1-0.2,4.2-0.9,6-1.9c1.8-1.1,3.6-2.4,5.2-3.8l0.8-0.6l0.4,0.9c0.5,1,1,1.9,1.5,2.9c0.3,0.5,0.5,0.9,0.8,1.4
				c0.3,0.5,0.5,0.9,0.9,1.3c0.3,0.5,0.6,0.9,1,1.3c0.3,0.4,0.7,0.8,1.1,1.1c0.8,0.7,1.6,1.4,2.5,1.9c0.4,0.3,0.9,0.5,1.4,0.7
				c0.5,0.2,1,0.4,1.5,0.6c0.6,0.2,1,0.3,1.5,0.3c0.5,0.1,1,0,1.6,0c1.1-0.1,2.1-0.5,3-1C169.2,116.6,170.1,116,170.9,115.2
				L170.9,115.2z"/>
			
				<rect x="143.7" y="98.4" transform="matrix(0.2142 -0.9768 0.9768 0.2142 22.8946 226.7755)" class="st5" width="17.3" height="1.6"/>
			<g>
				<path class="st6" d="M154.2,90.7l-2.4,10.8c0,0-7.3-3.7-6.2-8.6S154.2,90.7,154.2,90.7L154.2,90.7z"/>
				<path class="st7" d="M149.4,94.3c1.1,0.7,1.7,1.8,1.2,2.5c-0.4,0.7-1.7,0.8-2.8,0.1c-1.1-0.7-1.7-1.8-1.2-2.5
					C147.1,93.7,148.3,93.6,149.4,94.3z"/>
				<path class="st6" d="M151.9,101.5c0,0,8.2-0.3,9.3-5.2s-6.9-5.6-6.9-5.6C154.2,90.7,151.9,101.5,151.9,101.5z"/>
				<path class="st7" d="M157.1,96c-1.3,0.1-2.2,0.9-2.1,1.7c0.1,0.8,1.2,1.4,2.5,1.2c1.3-0.1,2.2-0.9,2.1-1.7
					C159.5,96.4,158.4,95.8,157.1,96z"/>
			</g>
			<g>
				<path class="st1" d="M126.2,72.4L126.2,72.4l13.7,7.3c0,0-5.3,4.5-10.6,0.5C125.1,77,126.2,72.4,126.2,72.4L126.2,72.4z"/>
				<g>
					<path class="st1" d="M136.9,68.8c-3.9-2.2-8.6-0.7-10.6,3.6c0,0,1.5,2,5.3,4.2c3.9,2.2,8.3,3.2,8.3,3.2
						C142.1,75.9,140.7,71,136.9,68.8z"/>
					<g>
						<path class="st8" d="M130.2,79.1c3.5,1.8,8.8,0.3,8.8,0.3c-1.8-1.7-1.7-6.5-5.3-8.1s-6.8,1.3-6.8,1.3S126.7,77.3,130.2,79.1z"
							/>
						<path class="st9" d="M133.1,71.2c2.3,0.5,3.8,2.8,3.3,5.1c-0.5,2.3-2.8,3.8-5.1,3.3c-2.3-0.5-3.8-2.8-3.3-5.1
							C128.5,72.1,130.8,70.7,133.1,71.2z"/>
						<path class="st5" d="M132.8,72.4c1.6,0.4,2.7,2,2.3,3.7c-0.4,1.6-2,2.7-3.7,2.3s-2.7-2-2.3-3.7
							C129.5,73.1,131.2,72,132.8,72.4z"/>
						<path class="st8" d="M134,72.6c0.9,0.2,1.5,1.1,1.3,2c-0.2,0.9-1.1,1.5-2,1.3c-0.9-0.2-1.5-1.1-1.3-2
							C132.2,73,133.1,72.4,134,72.6z"/>
						<path class="st5" d="M134.5,80.6c-1.8,0-3.3-0.3-4.6-1c-3.7-2-3.7-6.8-3.7-7v-0.2l0.2-0.2c0.1-0.1,2.1-1.9,4.9-1.9
							c0.8,0,1.7,0.2,2.5,0.5c2.5,1.1,3.4,3.5,4.1,5.5c0.4,1.1,0.8,2.2,1.4,2.7l0.6,0.6l-0.9,0.2C139,80,136.9,80.6,134.5,80.6
							L134.5,80.6L134.5,80.6z M138,79.1c-0.4-0.7-0.7-1.5-1.1-2.4c-0.7-2-1.4-4-3.5-4.9c-0.7-0.3-1.4-0.4-2.1-0.4
							c-1.9,0-3.5,1.1-4,1.5c0,0.9,0.4,4.4,3.1,5.8c1.1,0.6,2.4,0.8,4.1,0.8C135.9,79.5,137.2,79.3,138,79.1L138,79.1z"/>
					</g>
				</g>
			</g>
			<g>
				<path class="st1" d="M187.2,85.8l-15.5,0.9c0,0,2.9,6.3,9.4,4.9C186.4,90.4,187.2,85.8,187.2,85.8
					C187.2,85.8,187.2,85.8,187.2,85.8z"/>
				<g>
					<path class="st1" d="M179.1,78.1c4.4-0.4,8.1,2.9,8.1,7.7c0,0-2.2,1.2-6.6,1.6c-4.4,0.3-8.9-0.6-8.9-0.6
						C171.3,82.3,174.6,78.4,179.1,78.1z"/>
					<g>
						<path class="st8" d="M186.6,85.7c0,0-1.9,4.3-5.8,4.5c-3.9,0.2-8.1-3.4-8.1-3.4c2.3-0.8,4.2-5.2,8.2-5.2
							C185,81.8,186.6,85.8,186.6,85.7L186.6,85.7z"/>
						<path class="st9" d="M181.5,81.8c-2.3-0.5-4.6,1-5.1,3.3c-0.5,2.3,0.9,4.6,3.3,5.1c2.3,0.5,4.6-1,5.1-3.3
							C185.2,84.6,183.8,82.3,181.5,81.8z"/>
						<path class="st5" d="M181.2,83c-1.7-0.4-3.3,0.7-3.7,2.3c-0.4,1.7,0.7,3.3,2.3,3.7c1.7,0.4,3.3-0.7,3.7-2.3
							C183.9,85,182.9,83.3,181.2,83z"/>
						<path class="st8" d="M180,82.7c-0.9-0.2-1.8,0.4-2,1.3c-0.2,0.9,0.4,1.8,1.3,2s1.8-0.4,2-1.3S180.9,82.9,180,82.7z"/>
						<path class="st5" d="M180.5,90.8c-4,0-7.9-3.4-8.1-3.5l-0.7-0.6l0.9-0.3c0.8-0.3,1.5-1.1,2.4-1.9c1.4-1.5,3.3-3.3,5.9-3.3h0.1
							c4.3,0.1,6.1,4.2,6.2,4.4l0.1,0.2l-0.1,0.2c-0.1,0.2-2.1,4.6-6.3,4.8C180.7,90.8,180.6,90.8,180.5,90.8L180.5,90.8z
							 M180.9,82.2c-2.2,0-3.8,1.6-5.2,3c-0.7,0.7-1.3,1.3-2,1.8c1.3,0.9,4.3,2.9,7.1,2.8c3.1-0.2,4.8-3.2,5.2-4
							C185.7,85,184.1,82.3,180.9,82.2z"/>
					</g>
				</g>
			</g>
		</g>
		<g>
			<path class="st0" d="M162,195.8l-23.7,3.3c0,0,4.5,37.4,4.8,39.7c1.5,10.8,7.8,16.9,18.6,16.9c8.1,0,10.6-2.6,10.6-2.6
				s9.2,0.9,8.1-6.6s-13.1-5.5-14.6-5.7c-1.5-0.2-2.2-1.2-3.4-3.1s-4-9.1-4-9.1L162,195.8L162,195.8z"/>
			<path class="st1" d="M172.3,250.8c0.1,0.3,0.1,0.7,0.2,1c0.1,0.6,0.1,1.1,0.2,1.4c-0.3,0-0.5,0-0.5,0s-0.2,0.2-0.5,0.4
				c0-0.1,0-0.2,0-0.3c0-0.3,0.1-0.8,0-1.4c0-0.3,0-0.6-0.1-0.9c-0.1-0.3-0.1-0.7-0.3-1c-0.1-0.3-0.2-0.7-0.4-1
				c-0.2-0.3-0.4-0.7-0.6-0.9l-0.4-0.4l-0.4-0.4c-0.3-0.3-0.6-0.5-0.9-0.7c-0.3-0.2-0.6-0.4-0.9-0.5c-0.3-0.1-0.6-0.3-0.9-0.4
				c-1.1-0.4-1.9-0.4-1.9-0.4s0.8,0,2,0.3c0.3,0.1,0.6,0.2,0.9,0.3c0.3,0.1,0.7,0.3,1,0.4c0.3,0.2,0.7,0.4,1,0.6l0.5,0.4l0.4,0.4
				c0.3,0.3,0.5,0.6,0.8,1c0.2,0.3,0.4,0.7,0.6,1.1C172.1,250.1,172.2,250.4,172.3,250.8L172.3,250.8z"/>
		</g>
		<g>
			<path class="st3" d="M132.8,207.7l-20.8,2.5c0,0,6.6,29.9,6.9,32.2c1.5,10.8,7.8,16.9,18.6,16.9c8.1,0,10.6-2.5,10.6-2.5
				s9.2,0.9,8.1-6.6c-1.1-7.5-13.1-5.5-14.6-5.7c-1.5-0.2-2.2-1.2-3.4-3.1c-1.2-1.9-4-9.1-4-9.1L132.8,207.7L132.8,207.7z"/>
			<path class="st1" d="M148.2,254.3c0.1,0.3,0.1,0.7,0.2,1c0.1,0.6,0.1,1.1,0.1,1.4c-0.3,0-0.5,0-0.5,0s-0.2,0.2-0.5,0.4
				c0-0.1,0-0.2,0-0.3c0-0.3,0.1-0.8,0-1.4c0-0.3,0-0.6-0.1-0.9c-0.1-0.3-0.1-0.7-0.3-1c-0.1-0.3-0.2-0.7-0.4-1
				c-0.2-0.3-0.4-0.7-0.6-0.9l-0.4-0.4l-0.4-0.4c-0.3-0.3-0.6-0.5-0.9-0.7c-0.3-0.2-0.6-0.4-0.9-0.5c-0.3-0.1-0.6-0.3-0.9-0.4
				c-1.1-0.4-1.9-0.4-1.9-0.4s0.8,0,2,0.3c0.3,0.1,0.6,0.2,0.9,0.3c0.3,0.1,0.7,0.3,1,0.4c0.3,0.2,0.7,0.4,1,0.6l0.5,0.4l0.4,0.4
				c0.3,0.3,0.5,0.6,0.8,1c0.2,0.3,0.4,0.7,0.6,1.1C148,253.6,148.1,254,148.2,254.3L148.2,254.3z"/>
		</g>
		<g>
			<path class="st3" d="M17.1,215.9l-16.9-4.5c0,0-0.4,26.1-0.1,28.4c1.5,10.8,6.2,19.3,17,19.4c8.1,0,10.6-2.5,10.6-2.5
				s9.2,0.9,8.1-6.6c-1.1-7.5-13.1-5.5-14.6-5.7c-1.5-0.2-2.2-1.2-3.4-3.1c-1.2-1.9-2.6-8.4-2.6-8.4L17.1,215.9L17.1,215.9z"/>
			<path class="st1" d="M27.9,254.3c0.1,0.3,0.1,0.7,0.2,1c0.1,0.6,0.1,1.1,0.1,1.4c-0.3,0-0.5,0-0.5,0s-0.2,0.2-0.5,0.4
				c0-0.1,0-0.2,0-0.3c0-0.3,0.1-0.8,0-1.4c0-0.3,0-0.6-0.1-0.9c-0.1-0.3-0.1-0.7-0.3-1c-0.1-0.3-0.2-0.7-0.4-1
				c-0.2-0.3-0.4-0.7-0.6-0.9l-0.4-0.4l-0.4-0.4c-0.3-0.3-0.6-0.5-0.9-0.7c-0.3-0.2-0.6-0.4-0.9-0.5c-0.3-0.1-0.6-0.3-0.9-0.4
				c-1.1-0.4-1.9-0.4-1.9-0.4s0.8,0,2,0.3c0.3,0.1,0.6,0.2,0.9,0.3c0.3,0.1,0.7,0.3,1,0.4c0.3,0.2,0.7,0.4,1,0.6l0.5,0.4l0.4,0.4
				c0.3,0.3,0.5,0.6,0.8,1c0.2,0.3,0.4,0.7,0.6,1.1C27.6,253.6,27.7,254,27.9,254.3L27.9,254.3z"/>
		</g>
	</g>
</g>
</svg>
