<?xml version="1.0" encoding="utf-8"?>
<!-- Generator: Adobe Illustrator 27.8.1, SVG Export Plug-In . SVG Version: 6.00 Build 0)  -->
<svg version="1.1" id="Ebene_2_00000031912445067363407080000000059705746539190167_"
	 xmlns="http://www.w3.org/2000/svg" xmlns:xlink="http://www.w3.org/1999/xlink" x="0px" y="0px" viewBox="0 0 318.5 207.5"
	 style="enable-background:new 0 0 318.5 207.5;" xml:space="preserve">
<style type="text/css">
	.st0{fill:#4F3D31;}
	.st1{fill:#6A574A;}
	.st2{fill:#A5907D;}
	.st3{fill:#BE834C;}
	.st4{fill:#826B5B;}
	.st5{fill:#231D1D;}
	.st6{fill:#110E0E;}
	.st7{fill:#FFFFFF;}
	.st8{fill:#603913;}
	.st9{fill:#231F20;}
</style>
<g id="Dachshund">
	<g>
		<path class="st0" d="M250.8,160.8c0,0-7.6,6.6-7,10.5c0.6,4,3.8,32.6,5.4,34.7c1.7,2.1,7.7,1.3,13,1.3s16.3,0.3,17.1-1.6
			c0.8-1.9-2.2-6.2-6.8-8.6s-9.4,0-9.4,0s-2.2-5.9-3.6-9.8c-1.4-4,2.3-28,2.3-28L250.8,160.8z"/>
		<path class="st1" d="M229.1,157l-11.1,1.5c0,0-7.6,6.6-7,10.5c0.6,4,1.8,34.8,3.5,36.9c1.7,2.1,7.7,1.3,13,1.3s15.7,0.3,16.5-1.6
			c0.8-1.9-2.2-6.2-6.8-8.6s-8.7,0-8.7,0s-1.4-4.6-1.7-9.8C226.6,183.1,229.1,157,229.1,157L229.1,157z"/>
		<path class="st1" d="M51.8,164.4l-11.1,1.5c0,0-6,3.7-6,7.8c0,4.8,0.9,30.3,2.6,32.4s7.7,1.3,13,1.3s15.7,0.3,16.5-1.6
			c0.8-1.9-2.2-6.2-6.8-8.6c-4.6-2.4-9.8,0-9.8,0s-2-5.5-1.5-11.2C48.9,181.8,51.8,164.4,51.8,164.4L51.8,164.4z"/>
		<path class="st0" d="M61.3,142.8c-4.9,21.3-13.8,29.7-22.1,37.4s-26.7,9-31.8,8.7S0,186,0,186s1.6-1.8,5.1-2.8
			c3.5-0.9,15.3-1.3,29.7-12.2c14.4-10.9,13.7-32.2,19.6-46.5c5.8-14.2,18-18.7,18-18.7C72.4,106,66.2,121.4,61.3,142.8z"/>
		<path class="st0" d="M126.2,142l-5.1-13.7L87.2,142l-18.1,25.9c0,0-2.3,7.4-1.7,9.9c0.6,2.5,18.1,12.4,20.6,14.8
			c2.5,2.3,5.1,5.5,18.5,6.1s13.5-6.1,9.7-8.4c-3.8-2.3-10.7-1.5-10.7-1.5s-11.2-6.3-12.2-8.5c-1.1-2.2-1.9-3.7,11.8-8.9
			S126.2,142,126.2,142L126.2,142z"/>
		<path class="st0" d="M292.7,45.1c0,0-5.6,9.2-6.6,15.2c-1,6-0.1,30-0.1,30h0c-0.7,10.3-9.6,18.5-19.8,18.5
			c-10.2,0-18.6-7.7-19.8-17.7l0,0l-6.8-42.8c0-14.7,11.9-26.5,26.5-26.5S292.7,30.5,292.7,45.1L292.7,45.1z"/>
		<path class="st1" d="M238.6,57.4l-0.7-5l5-0.5l19.9,30.5l23.3,9.8c0,0-1.2,28.5-3.3,34c-2.1,5.5-21.1,46.1-50.1,46.6
			c-22.8,0.3-86.4-25.3-98.4-27.6c-12-2.3-19.6,1.7-41.3,17.1s-33.1,13.9-38.3,15.2c-5.3,1.3-5.7,10.3-5.7,10.3l-1.5,17.1L35.3,199
			c0,0-0.9-25.2-1.1-30.7s13.7-10.1,17.1-12.4c3.4-2.3,2.3-11.2,1.9-16.9s-0.4-22.8,24.9-36.7c25.3-13.9,127-20.2,139.9-23.6
			c12.8-3.4,9-3.8,15.5-8.2C239.8,66.2,238.6,57.4,238.6,57.4L238.6,57.4z"/>
		<path class="st0" d="M251.4,63.2c0,0,0.2,20.8,0,21.1c-0.2,0.3-4.4,2.3-3-7.5c1.5-9.8-2.8-20.5-2.8-20.5L251.4,63.2z"/>
		<path class="st2" d="M266.2,29.4c12.6,0,19.8,61,19.8,61h0c-0.7,10.3-9.6,18.5-19.8,18.5c-10.2,0-18.6-7.7-19.8-17.7l0,0
			C246.4,91.2,253.6,29.4,266.2,29.4L266.2,29.4z"/>
		<path class="st0" d="M121.4,139.5c-8.7,5.5-16.1,13.4-24,19.5c18.4-12.8,22.6-14.1,33.9-13c29.3,2.8,59.7,30.1,101.3,26.6
			c13.3-1.1,26.8-6,37-23.8c0,0-16.4,21.8-53.8,13.1c-12.6-2.9-35.2-25.2-46.6-26.2S132.4,132.6,121.4,139.5L121.4,139.5z"/>
		<path class="st2" d="M251.3,90.4c0,0,34.3-3,34.8,1.7c0.4,4.7-4.8,32.1-8.1,37c-5.1,7.6-18.5,6-22.7-0.1
			c-6.1-8.7-8.8-37.6-8.8-37.6L251.3,90.4z"/>
		<path class="st1" d="M245.9,162.6l-42.7-16.6l-15.7-0.9c0,0,13.6,11.9,16.9,17.9c4,7.5,8.5,31,8.5,31l11.4-12.6
			c0,0,2.4,7.2,2.4-4.5S245.9,162.6,245.9,162.6L245.9,162.6z"/>
		<path class="st0" d="M236.2,172.3c0,0,5.4-3.6,7-4.8c1.6-1.2,2.7,0.6,2.7,0.6l2.9,3.4l0.4,9.4c0,0-0.2,21.5-2.5,12.2
			C243.8,181.3,236.2,172.3,236.2,172.3L236.2,172.3z"/>
		<path class="st0" d="M266.2,154.3l-5.6,4.7l-1.1,3l-2.7,6.2c0,0,2.4,7.9,3.2,0.7C261.3,158.9,266.2,154.3,266.2,154.3L266.2,154.3
			z"/>
		<path class="st0" d="M244.6,51.8c-0.8,3.8-6,8.5-6,8.5c4-5.8,4.5-10,4.5-10L244.6,51.8z"/>
		<path class="st0" d="M266.2,16.3c-13.9,0-25.1-2.2-25.1,11.6c0,21.4,11.2,40.3,25.1,40.3s25.1-17.7,25.1-40.3
			C291.2,14,280,16.3,266.2,16.3z"/>
		<path class="st1" d="M266.2,66.9c6.5,0,15.5-6.5,15.5-6.5c5.8-25.8,12-14.1,12-38.7C293.7,9.4,281.4,0,266.2,0V66.9z"/>
		<path class="st1" d="M266.4,0l-0.2,66.9c-6.5,0-15.5-6.5-15.5-6.5c-5.8-25.8-12-14.1-12-38.7C238.6,9.4,250.4,0,266.4,0L266.4,0z"
			/>
		<circle class="st3" cx="266.2" cy="59.5" r="11.1"/>
		<path class="st4" d="M257.6,57.2c-0.9,0-1.7-0.1-2.6-0.1c-0.2-1.6-0.2-3.5-0.2-5.5c0-7.3,5.1-29,11.5-29c6.3,0,11.4,19.7,11.4,29
			c0,2.2-0.1,4.1-0.3,5.8C270.8,57.1,264.2,57.4,257.6,57.2L257.6,57.2z"/>
		<g>
			<g>
				<path class="st3" d="M266.2,44.3c-11.5,0-13,6.7-13.8,8.4c-3.5,7.7-2.2,9.1,2.7,11.8c5.9,3.3,11-2.2,11-2.2
					C266.2,62.3,266.2,44.3,266.2,44.3z"/>
				<path class="st3" d="M266.1,44.3c11.1,0,13.1,6.9,13.8,8.5c3.4,7.5,2.1,9-2.8,11.7c-5.9,3.3-11-2.2-11-2.2
					C266.1,62.3,266.1,44.3,266.1,44.3z"/>
			</g>
			<g>
				<path class="st5" d="M272.5,60.4c-0.2,0-0.3,0.1-0.3,0.3s0.1,0.3,0.3,0.3c0.2,0,0.3-0.1,0.3-0.3S272.7,60.4,272.5,60.4z"/>
				<path class="st5" d="M274,57.8c-0.1,0-0.2,0.1-0.2,0.2s0.1,0.2,0.2,0.2s0.2-0.1,0.2-0.2S274.2,57.8,274,57.8z"/>
				<path class="st5" d="M274.3,61c-0.2,0-0.3,0.1-0.3,0.3s0.1,0.3,0.3,0.3c0.2,0,0.3-0.1,0.3-0.3S274.5,61,274.3,61z"/>
				<path class="st5" d="M269.9,59.7c-0.2,0-0.3,0.1-0.3,0.3s0.1,0.3,0.3,0.3s0.3-0.1,0.3-0.3S270.1,59.7,269.9,59.7z"/>
				<path class="st5" d="M270.7,61.9c-0.1,0-0.2,0.1-0.2,0.2s0.1,0.2,0.2,0.2s0.2-0.1,0.2-0.2S270.9,61.9,270.7,61.9z"/>
				<path class="st5" d="M262.5,61.6c-0.1,0-0.2,0.1-0.2,0.2s0.1,0.2,0.2,0.2s0.2-0.1,0.2-0.2S262.6,61.6,262.5,61.6z"/>
				<path class="st5" d="M260.6,58.8c-0.2,0-0.3,0.1-0.3,0.3s0.1,0.3,0.3,0.3s0.3-0.1,0.3-0.3S260.8,58.8,260.6,58.8z"/>
				<path class="st5" d="M260.3,61.6c-0.2,0-0.3,0.1-0.3,0.3s0.1,0.3,0.3,0.3s0.3-0.1,0.3-0.3S260.5,61.6,260.3,61.6z"/>
				<path class="st5" d="M258.3,59.9c-0.2,0-0.3,0.1-0.3,0.3s0.1,0.3,0.3,0.3s0.3-0.1,0.3-0.3S258.5,59.9,258.3,59.9z"/>
				<path class="st5" d="M258,57.6c-0.1,0-0.3,0.1-0.3,0.3s0.1,0.3,0.3,0.3c0.2,0,0.3-0.1,0.3-0.3C258.2,57.7,258.1,57.6,258,57.6z"
					/>
			</g>
			<g>
				<path class="st5" d="M266.2,59.9c0,0,8-2.3,8-8s-8-4.5-8-4.5V59.9z"/>
				<path class="st6" d="M270.1,52.6c-1.2,0.5-2,1.5-1.8,2.4c0.3,0.9,1.5,1.2,2.7,0.8c1.2-0.5,2-1.5,1.8-2.4
					C272.6,52.5,271.4,52.1,270.1,52.6z"/>
				<path class="st5" d="M266.2,59.9c0,0-8-2.3-8-8s8-4.5,8-4.5V59.9z"/>
				<path class="st6" d="M262.2,52.6c1.2,0.5,2,1.5,1.8,2.4c-0.3,0.9-1.5,1.2-2.7,0.8s-2-1.5-1.8-2.4S261,52.1,262.2,52.6z"/>
			</g>
			<path class="st5" d="M276.1,64.5c-0.4,0.3-0.8,0.5-1.2,0.7c-0.4,0.2-0.9,0.3-1.4,0.4c-0.5,0.1-0.9,0.1-1.4,0.1
				c-0.2,0-0.5,0-0.7-0.1l-0.7-0.1l-0.7-0.2c-0.2-0.1-0.4-0.2-0.7-0.3c-0.2-0.1-0.5-0.2-0.6-0.3l-0.6-0.4c-0.2-0.1-0.4-0.3-0.6-0.4
				l-0.6-0.4l-1-1h0.6l-1,1l-0.6,0.4c-0.2,0.1-0.4,0.3-0.6,0.4l-0.6,0.4c-0.2,0.1-0.4,0.2-0.6,0.3c-0.2,0.1-0.4,0.2-0.7,0.3
				l-0.7,0.2l-0.7,0.1c-0.2,0.1-0.5,0-0.7,0.1c-0.5,0-1,0-1.4-0.1c-0.5-0.1-0.9-0.2-1.4-0.4c-0.4-0.2-0.9-0.4-1.2-0.7
				c0.8,0.4,1.7,0.7,2.6,0.7c0.4,0,0.9,0,1.3,0c0.2-0.1,0.4,0,0.7-0.1l0.6-0.2l0.6-0.2c0.2-0.1,0.4-0.2,0.6-0.3
				c0.2-0.1,0.4-0.2,0.6-0.3l0.6-0.4c0.4-0.2,0.7-0.5,1.1-0.8l1-0.9l0.3-0.3l0.3,0.3l1,0.9l0.5,0.4c0.2,0.1,0.3,0.3,0.5,0.4l0.6,0.4
				c0.2,0.1,0.4,0.2,0.6,0.3s0.4,0.2,0.6,0.3l0.6,0.2l0.6,0.2c0.2,0.1,0.4,0.1,0.7,0.1c0.4,0,0.9,0.1,1.3,0
				C274.4,65.2,275.3,64.9,276.1,64.5L276.1,64.5z"/>
		</g>
		<rect x="265.7" y="58" class="st5" width="0.8" height="4.2"/>
		<g>
			<path class="st0" d="M241.9,39.4l-6.9-4.2l-1.7-12.4l5.3-11.3l3.7-6.4l4.1-2.7l5.9,0.4c0,0-2.1,0.5-4.4,3.1
				c-3.8,4.3-5.1,10.1-6.6,16.2S241.9,39.5,241.9,39.4L241.9,39.4z"/>
			<path class="st1" d="M248.5,3l2.4,1.7l4.7-2.8c0,0-7.5-0.2-10.9,0.2s-6.6,4.5-9.3,7.5c-1.5,1.6-2,2.4-5.5,4.3
				c-3.5,1.9-10.3,8.4-14.2,12.4c-3.9,4-0.7,10,1.2,19.9c1.9,9.9,7.3,19.3,13.3,19.4c6,0.1,9.8-6.4,12.2-12.2
				c2.4-5.8-2.3-19.6-2.8-24.1c-0.5-4.5-0.3-10.9,1.9-18.8C243.7,2.4,248.5,3,248.5,3L248.5,3z"/>
		</g>
		<g>
			<path class="st0" d="M290.5,39.4l6.9-4.2l1.7-12.4l-5.3-11.3l-3.7-6.4L286,2.4l-5.9,0.4c0,0,2.1,0.5,4.4,3.1
				c3.8,4.3,5.2,10.1,6.6,16.2S290.5,39.5,290.5,39.4L290.5,39.4z"/>
			<path class="st1" d="M283.9,3l-2.4,1.7l-4.7-2.8c0,0,7.5-0.2,10.9,0.2c3.4,0.4,6.6,4.5,9.3,7.5c1.5,1.6,2,2.4,5.5,4.3
				c3.5,1.9,10.3,8.4,14.2,12.4c3.9,4,0.7,10-1.2,19.9c-1.9,9.9-7.3,19.3-13.3,19.4c-6,0.1-9.8-6.4-12.2-12.2
				c-2.4-5.8,2.3-19.6,2.8-24.1c0.5-4.5,0.3-10.9-1.9-18.8S283.9,3,283.9,3L283.9,3z"/>
		</g>
		<g>
			<g>
				<path class="st4" d="M256.4,28.3l-5.1,0.1l-4.9-1.6c0,0-1.9-2.4,0.3-4.8c2.3-2.4,5.2-2.3,6.6-1.4
					C256.5,22.5,256.4,28.3,256.4,28.3L256.4,28.3z"/>
				<path class="st7" d="M248.3,28.6c1.9,1.4,5.2,0.5,6,0.3c0.8-0.2,2.1-0.2,2.1-0.2s0.4-5.6-4.2-6.3c-4.6-0.7-6.1,3.3-6.1,3.3
					S246.4,27.1,248.3,28.6z"/>
				<g>
					<path class="st8" d="M251.5,22.2c-2-0.1-3.6,1.5-3.7,3.5c-0.1,2,1.5,3.6,3.4,3.7c2,0.1,3.6-1.5,3.7-3.5
						C255,24,253.5,22.3,251.5,22.2z"/>
					<path class="st9" d="M251.5,23.8c-1.1,0-2.1,0.9-2.1,2c0,1.1,0.8,2.1,2,2.1c1.1,0,2.1-0.9,2.1-2
						C253.5,24.7,252.6,23.8,251.5,23.8z"/>
					<path class="st7" d="M250.5,23.7c-0.5,0-0.9,0.4-0.9,0.9c0,0.5,0.4,0.9,0.8,0.9c0.5,0,0.9-0.4,0.9-0.9
						C251.3,24.2,251,23.7,250.5,23.7z"/>
				</g>
				<path class="st9" d="M248.1,28.8c-1.9-1.5-2.3-3-2.3-3.1l0-0.1l0-0.1c0,0,1.4-3.5,5.2-3.5c0.4,0,0.7,0,1.1,0.1
					c4.8,0.8,4.5,6.5,4.5,6.6l0,0.3h-0.3c0,0-1.3,0-2,0.2l-0.2,0c-0.6,0.1-1.8,0.4-3.1,0.4l0,0C249.9,29.6,248.9,29.4,248.1,28.8z
					 M256.1,28.4c0-1.1-0.2-5.1-4-5.7c-0.4-0.1-0.7-0.1-1-0.1c-3.2,0-4.4,2.6-4.7,3.1c0.1,0.3,0.5,1.5,2.1,2.7
					c0.6,0.5,1.5,0.7,2.6,0.7l0,0c1.2,0,2.4-0.3,2.9-0.4l0.2,0C254.8,28.4,255.7,28.4,256.1,28.4L256.1,28.4z"/>
				<path class="st9" d="M246.6,27.2c2.8-6.2,7.6-3.6,8.8-1.8c0.8,1.2,1,3.3,1,3.3s0.4-5.5-4.2-6.3c-4.6-0.8-6.1,3.6-6.1,3.6
					C246.1,26,246.6,27.2,246.6,27.2z"/>
			</g>
			<path class="st3" d="M254.1,19.2c2.5,1.1,2.8,3.8,3.8,3.1s2-4.1-0.2-5.7s-6.9,1.8-6.9,1.8S252.2,18.5,254.1,19.2z"/>
		</g>
		<g>
			<g>
				<path class="st4" d="M277.5,28.3l5.1,0.1l4.9-1.6c0,0,1.9-2.4-0.3-4.8c-2.3-2.4-5.2-2.3-6.6-1.4
					C277.4,22.5,277.5,28.3,277.5,28.3L277.5,28.3z"/>
				<path class="st7" d="M285.6,28.6c-1.9,1.4-5.2,0.5-6,0.3c-0.8-0.2-2.1-0.2-2.1-0.2s-0.4-5.6,4.2-6.3c4.6-0.7,6,3.3,6,3.3
					S287.5,27.1,285.6,28.6z"/>
				<g>
					<path class="st8" d="M282.4,22.2c2-0.1,3.6,1.5,3.7,3.5s-1.5,3.6-3.4,3.7c-2,0.1-3.6-1.5-3.7-3.5
						C278.9,24,280.4,22.3,282.4,22.2z"/>
					<path class="st9" d="M282.4,23.8c1.1,0,2.1,0.9,2.1,2c0,1.1-0.8,2.1-2,2.1c-1.1,0-2.1-0.9-2.1-2
						C280.4,24.7,281.3,23.8,282.4,23.8z"/>
					<path class="st7" d="M283.4,23.7c0.5,0,0.9,0.4,0.9,0.9c0,0.5-0.4,0.9-0.9,0.9c-0.5,0-0.9-0.4-0.9-0.9
						C282.5,24.2,282.9,23.8,283.4,23.7z"/>
				</g>
				<path class="st9" d="M282.8,29.6c-1.3,0-2.5-0.3-3.1-0.4l-0.2,0c-0.7-0.2-2-0.2-2-0.2h-0.3l0-0.3c0-0.1-0.3-5.8,4.5-6.6
					c0.4-0.1,0.8-0.1,1.1-0.1c3.9,0,5.2,3.5,5.2,3.5l0,0.1l0,0.1c0,0.1-0.3,1.6-2.3,3.1C285,29.4,284,29.6,282.8,29.6L282.8,29.6z
					 M287.5,25.6c-0.2-0.5-1.5-3.1-4.7-3.1c-0.3,0-0.7,0-1,0.1c-3.8,0.6-4,4.6-4,5.7c0.4,0,1.3,0.1,1.9,0.2l0.2,0
					c0.5,0.1,1.7,0.4,2.9,0.4c1.1,0,2-0.2,2.6-0.7C286.9,27.2,287.4,26,287.5,25.6L287.5,25.6z"/>
				<path class="st9" d="M287.3,27.2c-2.8-6.2-7.6-3.6-8.8-1.8c-0.8,1.2-0.9,3.3-0.9,3.3s-0.4-5.5,4.2-6.3s6,3.6,6,3.6
					C287.8,26,287.3,27.2,287.3,27.2z"/>
			</g>
			<path class="st3" d="M279.8,19.2c-2.5,1.1-2.8,3.8-3.8,3.1c-1.1-0.6-2-4.1,0.2-5.7s7,1.8,7,1.8S281.7,18.5,279.8,19.2z"/>
		</g>
	</g>
</g>
</svg>
