<?xml version="1.0" encoding="utf-8"?>
<!-- Generator: Adobe Illustrator 27.8.1, SVG Export Plug-In . SVG Version: 6.00 Build 0)  -->
<svg version="1.1" id="Ebene_2_00000088121415986484323350000004741040166458302620_"
	 xmlns="http://www.w3.org/2000/svg" xmlns:xlink="http://www.w3.org/1999/xlink" x="0px" y="0px" viewBox="0 0 292.4 271"
	 style="enable-background:new 0 0 292.4 271;" xml:space="preserve">
<style type="text/css">
	.st0{fill:#D9CAB4;}
	.st1{fill:#59493E;}
	.st2{fill:#EEE6D9;}
	.st3{fill:#312A28;}
	.st4{fill:#A26938;}
	.st5{fill:#866041;}
	.st6{fill:#FED8B3;}
	.st7{fill:#FFFFFF;}
	.st8{fill:#603913;}
	.st9{fill:#231F20;}
	.st10{fill:#231D1D;}
	.st11{fill:#110E0E;}
</style>
<g id="Beagle">
	<g>
		<g>
			<path class="st0" d="M40.6,216.6l1-8.9c-5.6,4.3-11.3,8.3-16.1,12.1c0,1.9,0,3.2,0.1,3.6c1.5,10.7,6.2,19.2,16.9,19.3
				c6,0,8.9-1.4,10-2.1c0-0.1,0-0.2,0-0.3c0-0.3,0.1-0.8,0-1.4c0-0.3,0-0.6-0.1-0.9c-0.1-0.3-0.1-0.7-0.3-1c-0.2-0.3-0.2-0.7-0.4-1
				c-0.2-0.3-0.4-0.7-0.6-0.9l-0.4-0.4l-0.4-0.4c-0.3-0.3-0.6-0.5-0.9-0.7c-0.3-0.2-0.6-0.4-0.9-0.5c-0.3-0.1-0.6-0.3-0.9-0.4
				c-1.1-0.4-1.9-0.4-1.9-0.4s0.8,0,2,0.3c0.3,0.1,0.6,0.2,0.9,0.3c0.3,0.1,0.6,0.3,1,0.4c0.3,0.2,0.7,0.4,1,0.6l0.5,0.4l0.4,0.4
				c0.3,0.3,0.5,0.6,0.8,1c0.2,0.3,0.4,0.7,0.6,1.1c0.2,0.4,0.3,0.7,0.4,1.1c0.1,0.3,0.1,0.7,0.2,1c0.1,0.6,0.1,1,0.1,1.4
				c-0.3,0-0.5,0-0.5,0s-0.2,0.2-0.5,0.4c0.4-0.2,0.5-0.4,0.5-0.4s9.1,0.9,8.1-6.6c-1.1-7.5-13-5.5-14.5-5.7s-2.2-1.2-3.4-3
				S40.6,216.6,40.6,216.6L40.6,216.6z"/>
			<path class="st1" d="M52.5,238.9c0.1,0.6,0,1,0,1.4c0,0.1,0,0.2,0,0.3l0,0c0.4-0.2,0.5-0.4,0.5-0.4s0.2,0,0.5,0
				c0-0.4,0-0.8-0.1-1.4c-0.1-0.3-0.1-0.6-0.2-1c-0.1-0.3-0.2-0.7-0.4-1.1c-0.2-0.3-0.4-0.7-0.6-1.1c-0.2-0.3-0.5-0.7-0.8-1
				l-0.4-0.4l-0.5-0.4c-0.3-0.3-0.7-0.4-1-0.6c-0.4-0.2-0.7-0.3-1-0.4c-0.3-0.1-0.6-0.2-0.9-0.3c-1.2-0.3-2-0.3-2-0.3
				s0.8,0.1,1.9,0.4c0.3,0.1,0.6,0.2,0.9,0.4c0.3,0.1,0.6,0.3,0.9,0.5c0.3,0.2,0.6,0.4,0.9,0.7l0.4,0.4l0.4,0.4
				c0.3,0.3,0.4,0.6,0.6,0.9c0.2,0.3,0.3,0.7,0.4,1c0.1,0.3,0.2,0.7,0.3,1S52.5,238.6,52.5,238.9L52.5,238.9z"/>
			<path class="st0" d="M203.5,211.8l-4.1-28.9c-2.5,0.8-5.1,1.4-7.7,1.9l0.2,0.9c0,0,7.9,38.9,8.3,41.1c1,7.1,4.1,12.1,9.3,14.7
				C207.1,229.4,203.5,211.8,203.5,211.8L203.5,211.8z"/>
			<path class="st0" d="M229.4,241c-0.3,0-0.5,0-0.5,0s-0.2,0.2-0.5,0.4c0.4-0.2,0.5-0.4,0.5-0.4s9,0.9,7.9-6.5
				c-0.7-5.2-6.8-5.8-10.8-5.7l0.3,5.9c0,0,0.1,0.1,0.1,0.1l0.5,0.4l0.4,0.4c0.3,0.3,0.5,0.6,0.8,0.9c0.2,0.3,0.4,0.7,0.6,1
				c0.1,0.4,0.2,0.7,0.4,1.1c0.1,0.3,0.1,0.7,0.2,1C229.4,240.2,229.4,240.6,229.4,241L229.4,241z"/>
			<path class="st0" d="M226.6,235.5l-0.2-0.2l0.3,6.9c0.8-0.3,1.3-0.6,1.7-0.8c0-0.1,0-0.2,0-0.3c0-0.3,0.1-0.8,0-1.4
				c0-0.3,0-0.6-0.1-0.9c-0.1-0.3-0.1-0.6-0.2-1c-0.1-0.3-0.2-0.7-0.4-1c-0.2-0.3-0.4-0.7-0.6-0.9L226.6,235.5L226.6,235.5z"/>
			<path class="st1" d="M228.4,239.7c0.1,0.6,0,1,0,1.4c0,0.1,0,0.2,0,0.3l0,0l0,0c0.4-0.2,0.5-0.4,0.5-0.4s0.2,0,0.5,0
				c0-0.4,0-0.8-0.1-1.4c-0.1-0.3-0.1-0.6-0.2-1s-0.2-0.7-0.4-1.1c-0.2-0.3-0.3-0.7-0.6-1c-0.2-0.3-0.4-0.7-0.8-0.9l-0.4-0.4
				l-0.5-0.4c0,0-0.1-0.1-0.1-0.1l0,0.6l0.2,0.2l0.4,0.4c0.3,0.3,0.4,0.6,0.6,0.9c0.2,0.3,0.3,0.7,0.4,1c0.1,0.3,0.2,0.7,0.2,1
				S228.3,239.4,228.4,239.7L228.4,239.7z"/>
			<path class="st2" d="M51.4,93.2c0.4,0,0.7-0.1,1.1-0.1C52.1,93.1,51.7,93.1,51.4,93.2z"/>
			<path class="st2" d="M15.1,168.1c0-0.2,0-0.5-0.1-0.7C15,167.6,15.1,167.9,15.1,168.1z"/>
			<path class="st2" d="M68.3,93.1c1,0,2.1,0.1,3.2,0.2C70.4,93.2,69.4,93.2,68.3,93.1z"/>
			<path class="st2" d="M72.4,93.4c0.8,0,1.6,0.1,2.4,0.2C74,93.5,73.2,93.4,72.4,93.4z"/>
			<path class="st2" d="M65.2,93c0.9,0,1.8,0.1,2.7,0.1C67,93.1,66.1,93,65.2,93z"/>
			<path class="st2" d="M53.2,93c0.4,0,0.8,0,1.2-0.1C54,93,53.6,93,53.2,93z"/>
			<path class="st2" d="M75.8,93.6c0.9,0.1,1.8,0.1,2.7,0.2C77.6,93.7,76.7,93.7,75.8,93.6z"/>
			<path class="st2" d="M140.2,97.7c-1.1,0-2.2,0-3.4,0C137.9,97.7,139.1,97.7,140.2,97.7z"/>
			<path class="st2" d="M64.2,93L64.2,93C64.3,93,64.3,93,64.2,93c-0.6,0-1.3,0-2-0.1C62.9,92.9,63.6,93,64.2,93L64.2,93z"/>
			<path class="st2" d="M0.1,218c-0.3,7.3,0,34.3,0,34.3h0.2c1.6,10.4,6.3,18.6,16.8,18.7c6,0,8.9-1.4,10-2.1c0-0.1,0-0.2,0-0.3
				c0-0.3,0.1-0.8,0-1.4c0-0.3,0-0.6-0.1-0.9c-0.1-0.3-0.2-0.6-0.3-1c-0.1-0.3-0.2-0.7-0.4-1c-0.2-0.3-0.4-0.7-0.6-0.9l-0.4-0.4
				l-0.4-0.4c-0.3-0.3-0.6-0.5-0.9-0.7c-0.3-0.2-0.6-0.4-0.9-0.5c-0.3-0.1-0.6-0.3-0.9-0.4c-1.1-0.4-1.9-0.4-1.9-0.4s0.8,0,2,0.3
				c0.3,0.1,0.6,0.2,0.9,0.3c0.3,0.1,0.6,0.3,1,0.4c0.3,0.2,0.7,0.4,1,0.6l0.5,0.4l0.4,0.4c0.3,0.3,0.5,0.6,0.8,1
				c0.2,0.3,0.4,0.7,0.6,1.1c0.2,0.4,0.3,0.7,0.4,1.1s0.1,0.7,0.2,1c0.1,0.6,0.1,1,0.1,1.4c-0.3,0-0.5,0-0.5,0s-0.2,0.2-0.5,0.4
				c0.4-0.2,0.5-0.4,0.5-0.4s9.1,0.9,8.1-6.6c-1.1-7.5-13-5.5-14.5-5.7c-1.5-0.2-2.2-1.2-3.4-3s-2.6-8.3-2.6-8.3l1.7-15.8
				c1-2,2.2-3.9,3.8-5.3c1.4-1.3,3-2.7,4.7-4c4.8-3.9,10.5-7.9,16.1-12.1c4.6-3.5,9.1-7.2,13.1-11.1c10.5-10.5,15.5-32.4,24.4-34
				c8.9-1.6,32.1,1.9,50.5,8.9c18.4,7,34,17.8,60.6,13.6c0.5-0.1,1-0.2,1.5-0.3c2.6-0.5,5.2-1.1,7.7-1.9l4.1,28.9
				c0,0,3.6,17.6,6,29.8c1.2,6,2.1,10.6,2.2,11.4c1.4,10.6,7.7,16.5,18.2,16.6c5.9,0,8.8-1.4,9.8-2.1c0-0.1,0-0.2,0-0.3
				c0-0.3,0.1-0.8,0-1.4c0-0.3,0-0.6-0.1-0.9c-0.1-0.3-0.1-0.6-0.2-1c-0.1-0.3-0.2-0.7-0.4-1c-0.2-0.3-0.4-0.7-0.6-0.9l-0.4-0.4
				l-0.4-0.4c-0.3-0.3-0.6-0.5-0.9-0.7c-0.3-0.2-0.6-0.4-0.9-0.5c-0.3-0.1-0.6-0.2-0.9-0.4c-1.1-0.4-1.9-0.4-1.9-0.4s0.8,0,1.9,0.3
				c0.3,0.1,0.6,0.2,0.9,0.3c0.3,0.1,0.6,0.3,1,0.4c0.3,0.2,0.7,0.4,1,0.6l0.5,0.4l0.4,0.4c0.3,0.3,0.5,0.6,0.8,1
				c0.2,0.3,0.4,0.7,0.6,1c0.1,0.4,0.2,0.7,0.4,1c0.1,0.3,0.1,0.7,0.2,1c0.1,0.6,0.1,1,0.1,1.4c-0.3,0-0.5,0-0.5,0s-0.2,0.2-0.5,0.4
				c0.4-0.2,0.5-0.4,0.5-0.4s9,0.9,7.9-6.5c-1.1-7.4-12.8-5.4-14.3-5.6c-1.5-0.2-2.2-1.1-3.3-3c-1.1-1.9-4-9-4-9l0-0.8l-0.3-6.9
				l0-0.6l-0.3-5.9l-0.6-12.7c-0.1-12.9,2.8-30.2,2.8-30.2l0,0l14-38.5h0c1.5-3,2.7-6,3.6-9c6-20.9,7-55.5,7-55.5l-36.2-4.1
				c0,0-0.7,0.4-1.9,1.2c1.2-0.7,1.9-1.2,1.9-1.2l0.3,0c3,5.3,11.7,21.5,8.6,30.4c-3.7,10.7-8.9,9.3-9.6,14.8
				c-0.7,5.5,2.9,25.1-8.3,27.4c-11.3,2.4-21.5-3.1-21.8-11c-0.2-7.9-0.2-16.5-8.6-18.4c-8.4-1.9-5-18.4-2.6-25.8
				c0.1-0.4,0.3-0.9,0.4-1.3c0.7-0.1,1.4-0.2,2-0.3c-7.3,1.2-14.2,2.1-21.2,2.6c0.5,0,0.9-0.1,1.4-0.1c-4.8,4.4-10.3,9-12.5,9.6
				c-4.4,1.1-12.5,2.3-12.7,12.5c-0.4,20.3-9.9,17.4-19.8,22c-14.6,6.7-24.2,8.5-33.9-6.5c-3.1-4.7-4.8-8.1-5.8-10.6
				c-7.4,6.9-14.3,11.4-19.4,10.2c-0.2,1.3-0.2,2.9-0.2,4.7c0.4,12.9-0.8,23.1-14.5,26c-13.7,3-22.6,0.6-22.8,4.9
				c0,0.4-0.1,0.9-0.3,1.2l0,0c1.4,20-1.2,29.9-3.8,32.5C8.7,206.3,0.4,210.8,0.1,218L0.1,218z"/>
			<path class="st2" d="M50.6,93.2C50.6,93.2,50.6,93.2,50.6,93.2C50.6,93.2,50.6,93.2,50.6,93.2L50.6,93.2z"/>
			<path class="st2" d="M58.4,92.9L58.4,92.9c-1.3,0-2.5,0-3.7,0.1C55.9,92.9,57.2,92.9,58.4,92.9z"/>
			<path class="st2" d="M59.4,92.9c0.2,0,0.4,0,0.7,0c-0.5,0-1,0-1.5,0C58.8,92.9,59.1,92.9,59.4,92.9z"/>
			<path class="st2" d="M60.2,92.9c0.2,0,0.4,0,0.6,0s0.4,0,0.6,0C60.9,92.9,60.5,92.9,60.2,92.9L60.2,92.9z"/>
			<path class="st2" d="M124,97.3c1.2,0.1,2.4,0.1,3.6,0.2C126.5,97.4,125.3,97.4,124,97.3z"/>
			<path class="st2" d="M144.5,97.7c1.1,0,2.1-0.1,3.2-0.1C146.7,97.7,145.6,97.7,144.5,97.7z"/>
			<path class="st2" d="M107.8,96.3c0.3,0,0.6,0.1,0.9,0.1C108.4,96.4,108.1,96.3,107.8,96.3z"/>
			<path class="st2" d="M140.7,97.7c1,0,1.9,0,2.9,0C142.7,97.7,141.7,97.7,140.7,97.7z"/>
			<path class="st2" d="M151.9,97.4c1-0.1,2.1-0.1,3.1-0.2C154,97.3,153,97.4,151.9,97.4z"/>
			<path class="st2" d="M128.6,97.5c1.2,0,2.4,0.1,3.6,0.1C131.1,97.6,129.8,97.6,128.6,97.5z"/>
			<path class="st2" d="M132.7,97.6c1.1,0,2.1,0,3.2,0.1C134.8,97.7,133.7,97.7,132.7,97.6z"/>
			<path class="st2" d="M148.4,97.6c0.9,0,1.8-0.1,2.7-0.1C150.2,97.5,149.3,97.6,148.4,97.6z"/>
			<path class="st2" d="M211.6,81.7c1.3-0.7,2.3-1.3,3.2-1.8C213.9,80.4,212.8,81,211.6,81.7z"/>
			<path class="st2" d="M104.7,96.1c0.1,0,0.2,0,0.4,0C104.9,96.1,104.8,96.1,104.7,96.1z"/>
			<path class="st2" d="M96.8,95.4c0.4,0,0.8,0.1,1.2,0.1C97.6,95.4,97.2,95.4,96.8,95.4z"/>
			<path class="st2" d="M100.4,95.7c0.3,0,0.6,0.1,0.9,0.1C101.1,95.7,100.8,95.7,100.4,95.7z"/>
			<path class="st2" d="M208.4,83.4c0.8-0.4,1.5-0.8,2.2-1.2C209.9,82.6,209.1,83,208.4,83.4z"/>
			<path class="st2" d="M114.7,96.8c1.4,0.1,2.8,0.2,4.1,0.2C117.5,97,116.1,96.9,114.7,96.8z"/>
			<path class="st2" d="M119.9,97.1c1.3,0.1,2.7,0.1,4,0.2C122.5,97.2,121.2,97.2,119.9,97.1z"/>
			<path class="st2" d="M87,94.5c0.8,0.1,1.7,0.2,2.5,0.2C88.7,94.6,87.9,94.6,87,94.5z"/>
			<path class="st2" d="M90.5,94.8c1.2,0.1,2.4,0.2,3.6,0.3C92.9,95,91.7,94.9,90.5,94.8z"/>
			<path class="st2" d="M83.3,94.2c0.9,0.1,1.7,0.2,2.6,0.2C85.1,94.3,84.2,94.2,83.3,94.2z"/>
			<path class="st2" d="M79.2,93.8c1.1,0.1,2.2,0.2,3.4,0.3C81.4,94,80.3,93.9,79.2,93.8z"/>
			<path class="st2" d="M110.9,96.6c0.3,0,0.6,0.1,0.9,0.1C111.5,96.6,111.2,96.6,110.9,96.6z"/>
			<path class="st3" d="M36.5,12.4c0.3-0.2,0.5-0.5,0.8-0.8C37,11.9,36.8,12.1,36.5,12.4z"/>
			<path class="st3" d="M34.9,13.9c0.2-0.2,0.4-0.4,0.6-0.6C35.3,13.5,35.1,13.7,34.9,13.9z"/>
			<path class="st3" d="M34,14.8c0.2-0.2,0.4-0.4,0.7-0.7C34.5,14.3,34.2,14.6,34,14.8z"/>
			<path class="st3" d="M35.7,13.2c0.2-0.2,0.4-0.4,0.7-0.6C36.1,12.7,35.9,12.9,35.7,13.2z"/>
			<path class="st3" d="M54.6,17.8c-0.1,0.1-0.2,0.2-0.3,0.3C54.4,17.9,54.5,17.8,54.6,17.8z"/>
			<path class="st3" d="M53.8,18.4c-0.1,0.1-0.1,0.1-0.2,0.2C53.7,18.6,53.8,18.5,53.8,18.4z"/>
			<path class="st3" d="M55.2,17.1c-0.1,0.1-0.2,0.2-0.3,0.3C55,17.3,55.1,17.2,55.2,17.1z"/>
			<path class="st3" d="M56.6,15.6c-0.2,0.2-0.4,0.4-0.5,0.6C56.3,16,56.5,15.8,56.6,15.6z"/>
			<path class="st3" d="M55.9,16.4c-0.1,0.1-0.2,0.3-0.4,0.4C55.7,16.7,55.8,16.5,55.9,16.4z"/>
			<path class="st3" d="M37.7,11.2c0.1-0.1,0.2-0.2,0.4-0.4C38,11,37.8,11.1,37.7,11.2z"/>
			<path class="st3" d="M28.9,20.3c0.2-0.3,0.4-0.5,0.7-0.8C29.4,19.7,29.2,20,28.9,20.3z"/>
			<path class="st3" d="M28.1,21.3c0.2-0.3,0.4-0.5,0.6-0.8C28.6,20.7,28.3,21,28.1,21.3z"/>
			<path class="st3" d="M27.3,22.4c0.2-0.3,0.4-0.6,0.6-0.9C27.7,21.8,27.5,22.1,27.3,22.4z"/>
			<path class="st3" d="M26.5,23.5c0.2-0.3,0.5-0.6,0.7-0.9C26.9,22.9,26.7,23.2,26.5,23.5z"/>
			<path class="st3" d="M25.6,24.8c0.2-0.4,0.5-0.8,0.8-1.1C26.1,24.1,25.9,24.4,25.6,24.8z"/>
			<path class="st3" d="M33.1,15.7c0.2-0.3,0.5-0.5,0.8-0.8C33.6,15.2,33.4,15.4,33.1,15.7z"/>
			<path class="st3" d="M30.5,18.4c0.8-0.9,1.7-1.8,2.5-2.7C32.2,16.6,31.4,17.4,30.5,18.4z"/>
			<path class="st3" d="M29.7,19.3c0.2-0.3,0.5-0.6,0.8-0.9C30.3,18.7,30,19,29.7,19.3z"/>
			<path class="st2" d="M43.9,28.2L43.9,28.2L43.9,28.2c3.3-4.2,6.9-7,9.8-9.6c0.1-0.1,0.1-0.1,0.2-0.2c0.1-0.1,0.3-0.3,0.4-0.4
				c0.1-0.1,0.2-0.2,0.3-0.3c0.1-0.1,0.2-0.2,0.3-0.3c0.1-0.1,0.2-0.2,0.3-0.3c0.1-0.1,0.2-0.2,0.3-0.3c0.1-0.1,0.2-0.3,0.4-0.4
				c0.1-0.1,0.1-0.1,0.2-0.2c0.2-0.2,0.4-0.4,0.5-0.6C61.7,9.2,61.1,0,61.1,0S46.5,2.9,38.8,10.2c-0.2,0.2-0.5,0.5-0.8,0.7
				c-0.1,0.1-0.2,0.2-0.4,0.4c-0.1,0.1-0.3,0.3-0.4,0.4c-0.3,0.2-0.5,0.5-0.8,0.8c0,0-0.1,0.1-0.1,0.1c-0.2,0.2-0.4,0.4-0.7,0.6
				c-0.1,0.1-0.1,0.1-0.2,0.2c-0.2,0.2-0.4,0.4-0.6,0.6c-0.1,0.1-0.1,0.1-0.2,0.2c-0.2,0.2-0.4,0.4-0.7,0.7c-0.1,0-0.1,0.1-0.1,0.1
				c-0.2,0.2-0.5,0.5-0.8,0.8c0,0,0,0-0.1,0.1c-0.8,0.8-1.7,1.7-2.5,2.7c0,0,0,0,0,0c-0.2,0.3-0.5,0.6-0.8,0.9
				c0,0.1-0.1,0.1-0.1,0.2c-0.2,0.3-0.5,0.5-0.7,0.8c-0.1,0.1-0.1,0.1-0.2,0.2c-0.2,0.3-0.4,0.5-0.6,0.8c-0.1,0.1-0.1,0.1-0.2,0.2
				c-0.2,0.3-0.4,0.6-0.6,0.9c-0.1,0.1-0.1,0.1-0.2,0.2c-0.2,0.3-0.5,0.6-0.7,0.9c0,0.1-0.1,0.1-0.1,0.2c-0.3,0.4-0.5,0.8-0.8,1.1
				l0,0l0,0c0,2.1,0.4,4,1.2,5.2C30.2,34.9,43.9,28.2,43.9,28.2L43.9,28.2z"/>
			<path class="st1" d="M239.9,265.8c0.1,0.6,0,1,0,1.4c0,0.1,0,0.2,0,0.3l0,0l0,0c0.4-0.2,0.5-0.4,0.5-0.4s0.2,0,0.5,0
				c0-0.4,0-0.8-0.1-1.4c-0.1-0.3-0.1-0.6-0.2-1s-0.2-0.7-0.4-1c-0.2-0.3-0.3-0.7-0.6-1c-0.2-0.3-0.4-0.7-0.8-1l-0.4-0.4l-0.5-0.4
				c-0.3-0.2-0.7-0.4-1-0.6c-0.4-0.1-0.7-0.3-1-0.4c-0.3-0.1-0.6-0.2-0.9-0.3c-1.1-0.3-1.9-0.3-1.9-0.3s0.8,0.1,1.9,0.4
				c0.3,0.1,0.6,0.2,0.9,0.4c0.3,0.1,0.6,0.3,0.9,0.5c0.3,0.2,0.6,0.4,0.9,0.7l0.4,0.4l0.4,0.4c0.3,0.3,0.4,0.6,0.6,0.9
				c0.2,0.3,0.3,0.7,0.4,1c0.1,0.3,0.2,0.7,0.2,1S239.8,265.5,239.9,265.8L239.9,265.8z"/>
			<path class="st1" d="M27.1,267.2c0.1,0.6,0,1,0,1.4c0,0.1,0,0.2,0,0.3l0,0l0,0c0.4-0.2,0.5-0.4,0.5-0.4s0.2,0,0.5,0
				c0-0.4,0-0.8-0.1-1.4c-0.1-0.3-0.1-0.6-0.2-1s-0.2-0.7-0.4-1.1c-0.2-0.4-0.3-0.7-0.6-1.1c-0.2-0.3-0.5-0.7-0.8-1l-0.4-0.4
				l-0.5-0.4c-0.3-0.3-0.7-0.4-1-0.6c-0.4-0.2-0.7-0.3-1-0.4c-0.3-0.1-0.6-0.2-0.9-0.3c-1.2-0.3-2-0.3-2-0.3s0.8,0,1.9,0.4
				c0.3,0.1,0.6,0.2,0.9,0.4c0.3,0.1,0.6,0.3,0.9,0.5c0.3,0.2,0.6,0.4,0.9,0.7l0.4,0.4l0.4,0.4c0.3,0.3,0.4,0.6,0.6,0.9
				c0.2,0.3,0.3,0.7,0.4,1c0.1,0.3,0.2,0.7,0.3,1S27.1,266.9,27.1,267.2L27.1,267.2z"/>
			<path class="st3" d="M216.9,78.7l-0.3,0c0,0-0.7,0.4-1.9,1.2c-0.8,0.5-1.9,1.1-3.1,1.8c-0.3,0.2-0.7,0.4-1,0.6
				c-0.7,0.4-1.4,0.8-2.2,1.2c-2.4,1.2-5.1,2.6-8.2,3.9c-6.6,2.9-14.7,5.8-22.9,7.2c-0.1,0-0.2,0-0.3,0.1c-0.7,0.1-1.4,0.2-2,0.3
				c-0.1,0.4-0.2,0.9-0.4,1.3c-2.4,7.4-5.7,23.9,2.6,25.8c8.4,1.9,8.4,10.5,8.6,18.4c0.2,7.9,10.5,13.4,21.8,11
				c11.3-2.4,7.6-22,8.3-27.4c0.7-5.5,5.9-4.1,9.6-14.8C228.5,100.3,219.9,84,216.9,78.7L216.9,78.7z"/>
			<path class="st3" d="M64.2,93L64.2,93c-0.7,0-1.3,0-2-0.1c0,0-0.1,0-0.1,0C62.8,92.9,63.5,93,64.2,93L64.2,93z"/>
			<path class="st3" d="M60.7,92.9c-0.2,0-0.4,0-0.6,0c0,0-0.1,0-0.1,0c-0.2,0-0.4,0-0.7,0C59.8,92.9,60.3,92.9,60.7,92.9z"/>
			<path class="st3" d="M58.4,92.9c-1.3,0-2.5,0-3.7,0.1c-0.1,0-0.2,0-0.3,0c-0.4,0-0.8,0-1.2,0.1c-0.2,0-0.5,0-0.7,0
				c-0.4,0-0.7,0.1-1.1,0.1c-0.3,0-0.5,0.1-0.8,0.1c0,0,0,0,0,0l0,0c0,0-19.4-17.5-15.6-43.4c1.5-10.2,5-16.8,8.8-21.7l0,0l0,0
				c0,0-13.7,6.7-17.1,1.9c-0.9-1.2-1.2-3.1-1.2-5.2C22.2,30,19.2,36.7,17,46.1c-6.9,28.9,14.8,62.8,14.8,62.8l0,0
				c-0.4,0.7-0.8,1.4-1.2,2.2c-0.1,0.2-0.2,0.5-0.4,0.7c-1,1.7-2,3.5-3.2,5.3c-0.5,0.8-1.1,1.6-1.7,2.4c-0.5,0.7-1.1,1.5-1.7,2.2
				l0,0c-7.6,9.2-11.4,18.4-8.9,42.8c0.1,1,0.2,2,0.3,3c0,0.2,0,0.5,0.1,0.7c0.1,1,0.1,1.9,0.2,2.8l0,0c0.2-0.4,0.3-0.8,0.3-1.2
				c0.1-4.2,9.1-1.9,22.8-4.9c13.7-3,14.9-13.1,14.5-26c-0.1-1.8,0-3.4,0.2-4.7c5.1,1.2,11.9-3.3,19.4-10.1
				c-2.3-5.4-1.4-6.8-4.1-9.1c-4-3.4-5.2-1.1-7.2-7.6C60,103.5,58.2,98.7,58.4,92.9L58.4,92.9z"/>
			<path class="st4" d="M144.6,106.6c2.3-0.5,7.7-5.2,12.5-9.6c-0.5,0-0.9,0.1-1.4,0.1c-0.3,0-0.5,0-0.8,0.1c-1,0.1-2.1,0.1-3.1,0.2
				c-0.3,0-0.6,0-0.9,0c-0.9,0-1.8,0.1-2.7,0.1c-0.2,0-0.4,0-0.7,0c-1.1,0-2.1,0.1-3.2,0.1c-0.3,0-0.6,0-0.9,0c-0.9,0-1.9,0-2.9,0
				c-0.2,0-0.4,0-0.6,0c-1.1,0-2.2,0-3.4,0c-0.3,0-0.6,0-0.9,0c-1.1,0-2.1,0-3.2-0.1c-0.1,0-0.3,0-0.4,0c-1.2,0-2.4-0.1-3.6-0.1
				c-0.3,0-0.6,0-1,0c-1.2,0-2.4-0.1-3.6-0.2c-0.1,0-0.1,0-0.2,0c-1.3-0.1-2.6-0.1-4-0.2c-0.3,0-0.7,0-1-0.1
				c-1.4-0.1-2.7-0.2-4.1-0.2c-0.9-0.1-1.9-0.1-2.9-0.2c-0.3,0-0.6-0.1-0.9-0.1c-0.7-0.1-1.5-0.1-2.2-0.2c-0.3,0-0.6-0.1-0.9-0.1
				c-0.9-0.1-1.8-0.2-2.8-0.2c-0.1,0-0.2,0-0.4,0c-1.1-0.1-2.2-0.2-3.3-0.3c-0.3,0-0.6-0.1-0.9-0.1c-0.8-0.1-1.7-0.1-2.5-0.2
				c-0.4,0-0.8-0.1-1.2-0.1c-0.9-0.1-1.8-0.2-2.7-0.2c-1.2-0.1-2.4-0.2-3.6-0.3c-0.3,0-0.6-0.1-0.9-0.1c-0.8-0.1-1.7-0.2-2.5-0.2
				c-0.4,0-0.7-0.1-1.1-0.1c-0.9-0.1-1.7-0.2-2.6-0.2c-0.3,0-0.6-0.1-0.8-0.1c-1.1-0.1-2.2-0.2-3.4-0.3c-0.2,0-0.4,0-0.7-0.1
				c-0.9-0.1-1.8-0.1-2.7-0.2c-0.3,0-0.7-0.1-1-0.1c-0.8-0.1-1.6-0.1-2.4-0.2c-0.3,0-0.6,0-0.9-0.1c-1.1-0.1-2.1-0.1-3.2-0.2
				c-0.1,0-0.3,0-0.4,0c-0.9,0-1.8-0.1-2.7-0.1c-0.3,0-0.6,0-0.9,0c0,0-0.1,0-0.1,0c-0.7,0-1.4,0-2.1-0.1c-0.3,0-0.6,0-0.8,0
				c-0.2,0-0.4,0-0.6,0c-0.5,0-0.9,0-1.4,0c-0.3,0-0.6,0-0.9,0c0,0-0.1,0-0.1,0l0,0l0,0c-0.2,5.8,1.5,10.6,2.6,14.4
				c1.9,6.6,3.1,4.2,7.2,7.6c2.8,2.3,1.8,3.7,4.1,9.1c1,2.5,2.8,5.9,5.8,10.6c9.7,15,19.3,13.2,33.9,6.5c9.9-4.5,19.4-1.7,19.8-22
				C132.2,109,140.2,107.7,144.6,106.6L144.6,106.6z"/>
		</g>
		<g>
			<path class="st4" d="M264.1,70.5l4.6-12.6l-1.3-11l-5.8-10.4l-11-0.1L236,35.1v65.4c22.1,0,21.2-9.5,21.5-15.2s0.6-8.9,2.5-10.3
				S264.1,70.6,264.1,70.5L264.1,70.5z"/>
			<path class="st4" d="M207.9,70.5l-4.6-12.6l1.3-11l5.9-10.9l10.9,0.3l14.6-1.2v65.4c-22.1,0-21.2-9.5-21.5-15.2
				s-0.6-8.9-2.5-10.3C210.2,73.7,207.9,70.6,207.9,70.5L207.9,70.5z"/>
			<path class="st5" d="M260.7,37.4l-0.7-1.5l4.2,2.3l5.3,7.5l5.4,13.5c0,0-12.3,27.5-10.3,10C266.6,51.8,260.7,37.5,260.7,37.4
				L260.7,37.4z"/>
			<path class="st4" d="M235.8,37.8v-8.4c26.8,0,36.5,14.3,42.1,20.5c5.7,6.2,13.4,10.2,14.3,18.6c0.9,8.4-4.7,18-5.7,20.6
				c-1,2.6-0.6,12.7-0.6,12.7s-13.6,2.8-20.6-4.9c-7-7.8-3.8-20.9-2.2-24.6c1.6-3.7,3.7-6.2,3.8-18.4c0.1-12.2-6.3-16.5-6.3-16.5
				C260.7,37.5,235.8,37.8,235.8,37.8z"/>
			<path class="st5" d="M211,37.4l0.7-1.5l-4.1,2.3l-5.4,7.5l-5.4,13.5c0,0,12.3,27.5,10.3,10C205.1,51.8,211,37.5,211,37.4
				L211,37.4z"/>
			<path class="st4" d="M235.8,37.8v-8.4c-26.8,0-36.5,14.3-42.1,20.5c-5.7,6.2-13.4,10.2-14.3,18.6s4.7,18,5.7,20.6
				s0.6,12.7,0.6,12.7s13.6,2.8,20.6-4.9s3.8-20.9,2.2-24.6c-1.6-3.7-3.7-6.2-3.8-18.4c-0.1-12.2,6.3-16.5,6.3-16.5
				C211,37.5,235.8,37.8,235.8,37.8z"/>
			<path class="st6" d="M236,34.4c0,0-3.9,3.1-3.9,6.1s1.3,6.8,1.3,11.8c0,11.3-9.3,17.9-9.3,17.9h23.3c0,0-8-5.4-8-18.9
				c0-5.1,1.3-7.6,1.5-10.5C241.2,37.8,236,34.4,236,34.4L236,34.4z"/>
			<path class="st2" d="M221.3,74.8c2.4-7.6,6.6-8.9,14.7-8.9c8.1,0,12.2,1.4,13.9,8.4c1.5,6.5,13.3,20.2-13.9,20.2
				S219.3,81.2,221.3,74.8L221.3,74.8z"/>
			<ellipse class="st2" cx="235.9" cy="89.5" rx="13" ry="11.5"/>
			<g>
				<path class="st7" d="M215.6,61.1c2.1,1.6,5.9,0.5,6.7,0.3c0.8-0.2,2.3-0.2,2.3-0.2s0.4-6.2-4.7-7s-6.8,3.6-6.8,3.6
					S213.4,59.5,215.6,61.1z"/>
				<g>
					<path class="st8" d="M219.1,54c-2.2-0.1-4,1.7-4.1,3.9c-0.1,2.2,1.6,4,3.8,4.1c2.2,0.1,4-1.7,4.1-3.9
						C223,55.9,221.3,54.1,219.1,54z"/>
					<path class="st9" d="M219.1,55.7c-1.2,0-2.3,1-2.4,2.2c0,1.3,0.9,2.3,2.2,2.3c1.2,0,2.3-1,2.4-2.2
						C221.3,56.8,220.3,55.8,219.1,55.7z"/>
					<path class="st7" d="M218,55.7c-0.6,0-1,0.4-1,1c0,0.5,0.4,1,0.9,1c0.5,0,1-0.4,1-1S218.5,55.7,218,55.7z"/>
				</g>
				<path class="st9" d="M218.7,62.3c-1.4,0-2.5-0.3-3.3-0.9c-2.2-1.7-2.5-3.4-2.6-3.5l0-0.1l0-0.1c0,0,1.5-3.9,5.8-3.9
					c0.4,0,0.8,0,1.3,0.1c5.3,0.8,5,7.3,5,7.3l0,0.3h-0.3c0,0-1.5,0-2.3,0.2l-0.2,0.1C221.4,61.9,220.1,62.3,218.7,62.3L218.7,62.3
					L218.7,62.3z M224.3,60.8c0-1.2-0.3-5.7-4.4-6.4c-0.4-0.1-0.8-0.1-1.2-0.1c-3.6,0-5,2.8-5.2,3.4c0.1,0.3,0.6,1.7,2.3,3
					c0.7,0.5,1.7,0.8,2.9,0.8c1.3,0,2.6-0.3,3.2-0.5l0.2-0.1C222.8,60.9,223.8,60.9,224.3,60.8L224.3,60.8z"/>
				<path class="st9" d="M213.7,59.6c3.1-7,8.5-4.1,9.8-2c0.9,1.3,1.1,3.7,1.1,3.7s0.4-6.1-4.7-7s-6.8,4-6.8,4
					C213.1,58.2,213.7,59.6,213.7,59.6z"/>
			</g>
			<g>
				<path class="st7" d="M256.5,61.1c-2.1,1.6-5.8,0.5-6.7,0.3s-2.3-0.2-2.3-0.2s-0.4-6.2,4.7-7s6.7,3.6,6.7,3.6
					S258.6,59.5,256.5,61.1z"/>
				<g>
					<path class="st8" d="M252.9,54c2.2-0.1,4,1.7,4.1,3.9c0.1,2.2-1.6,4-3.8,4.1c-2.2,0.1-4-1.7-4.1-3.9
						C249,55.9,250.7,54.1,252.9,54z"/>
					<path class="st9" d="M253,55.7c1.2,0,2.3,1,2.3,2.2c0,1.3-0.9,2.3-2.2,2.3c-1.2,0-2.3-1-2.4-2.2
						C250.7,56.8,251.7,55.8,253,55.7z"/>
					<path class="st7" d="M254.1,55.7c0.6,0,1,0.4,1,1c0,0.5-0.4,1-0.9,1c-0.6,0-1-0.4-1-1S253.5,55.7,254.1,55.7z"/>
				</g>
				<path class="st9" d="M253.4,62.3c-1.4,0-2.8-0.3-3.4-0.5l-0.2-0.1c-0.8-0.2-2.3-0.2-2.3-0.2h-0.3l0-0.3c0-0.1-0.4-6.5,5-7.3
					c0.4-0.1,0.9-0.1,1.3-0.1c4.3,0,5.8,3.9,5.8,3.9l0,0.1l0,0.1c0,0.1-0.4,1.8-2.6,3.5C255.9,61.9,254.8,62.3,253.4,62.3
					L253.4,62.3z M258.6,57.8c-0.2-0.6-1.6-3.4-5.2-3.4c-0.4,0-0.8,0-1.2,0.1c-4.2,0.7-4.4,5.2-4.4,6.4c0.5,0,1.4,0.1,2.1,0.2
					l0.2,0.1c0.6,0.2,1.9,0.5,3.2,0.5c1.2,0,2.2-0.3,2.9-0.8C258,59.5,258.5,58.1,258.6,57.8L258.6,57.8z"/>
				<path class="st9" d="M258.4,59.6c-3.1-7-8.5-4.1-9.9-2c-0.9,1.3-1.1,3.7-1.1,3.7s-0.4-6.1,4.7-7s6.7,4,6.7,4
					C258.9,58.2,258.4,59.6,258.4,59.6z"/>
			</g>
			<g>
				<path class="st9" d="M251.5,89c-0.3,0.8-0.7,1.4-1.3,2.1c-0.3,0.3-0.6,0.6-0.9,0.9c-0.3,0.3-0.7,0.5-1.1,0.7
					c-0.4,0.2-0.8,0.3-1.2,0.4c-0.2,0.1-0.4,0.1-0.7,0.1c-0.1,0-0.2,0-0.3,0h-0.3H245l-0.6-0.1c-0.5,0-0.9-0.2-1.3-0.3
					c-0.4-0.1-0.8-0.2-1.2-0.4c-0.4-0.2-0.8-0.3-1.1-0.6c-0.4-0.2-0.7-0.4-1.1-0.7l-0.5-0.4l-0.5-0.4c-0.3-0.2-0.6-0.6-0.9-0.9
					c-0.3-0.3-0.6-0.6-0.8-0.9c-0.6-0.6-1.1-1.2-1.6-1.9h1.2c-0.5,0.7-1,1.3-1.6,1.9c-0.3,0.3-0.6,0.6-0.8,0.9
					c-0.3,0.3-0.6,0.6-0.9,0.9c-0.2,0.1-0.3,0.3-0.5,0.4l-0.5,0.4c-0.3,0.2-0.7,0.5-1.1,0.7c-0.4,0.2-0.8,0.4-1.1,0.6
					c-0.4,0.2-0.8,0.3-1.2,0.4c-0.4,0.1-0.8,0.2-1.3,0.2c-0.4,0.1-0.8,0.1-1.3,0.1h-0.3c-0.2,0-0.2,0-0.3,0c-0.2,0-0.4,0-0.6-0.1
					c-0.4-0.1-0.9-0.2-1.2-0.4c-0.8-0.4-1.4-0.9-2-1.6c-0.6-0.6-1-1.3-1.3-2.1c0.4,0.7,1,1.3,1.6,1.8c0.3,0.3,0.6,0.5,0.9,0.7
					c0.3,0.2,0.7,0.3,1,0.5c0.4,0.1,0.7,0.2,1.1,0.2c0.2,0,0.4,0,0.6,0c0.1,0,0.3,0,0.3,0l0.3,0l0.6-0.1l0.6-0.1
					c0.4-0.1,0.7-0.2,1.1-0.3c0.3-0.1,0.7-0.3,1.1-0.4c0.3-0.2,0.7-0.3,1-0.5c0.3-0.2,0.6-0.4,0.9-0.6l0.5-0.4l0.4-0.4
					c1.1-1,2.1-2.3,3.1-3.6l0.6-0.8l0.6,0.8c0.5,0.6,1,1.2,1.5,1.8c0.3,0.3,0.5,0.6,0.8,0.9c0.3,0.3,0.5,0.5,0.8,0.8
					c0.3,0.3,0.6,0.5,0.9,0.8c0.3,0.2,0.6,0.5,0.9,0.7c0.3,0.2,0.7,0.4,1,0.6c0.3,0.2,0.7,0.3,1.1,0.4c0.4,0.1,0.7,0.2,1.1,0.3
					l0.5,0.1l0.6,0.1l0.3,0c0,0,0.2,0,0.2,0c0.2,0,0.4,0,0.6,0c0.4,0,0.7-0.1,1.1-0.2s0.7-0.3,1-0.5c0.3-0.2,0.7-0.4,1-0.7
					C250.5,90.3,251,89.7,251.5,89L251.5,89z"/>
				<rect x="235.2" y="73.8" class="st9" width="1.5" height="13.1"/>
				<g>
					<path class="st10" d="M235.9,82.8c0,0-8.2-2.1-8.2-7.3s8.2-4.1,8.2-4.1C235.9,71.4,235.9,82.8,235.9,82.8z"/>
					<path class="st11" d="M231.9,76.1c1.3,0.4,2.1,1.4,1.8,2.2c-0.3,0.8-1.5,1.1-2.8,0.7c-1.3-0.4-2.1-1.4-1.8-2.2
						C229.3,76,230.6,75.6,231.9,76.1z"/>
					<path class="st10" d="M235.9,82.8c0,0,8.2-2.1,8.2-7.3s-8.2-4.1-8.2-4.1C235.9,71.4,235.9,82.8,235.9,82.8z"/>
					<path class="st11" d="M239.9,76.1c-1.3,0.4-2.1,1.4-1.8,2.2c0.3,0.8,1.5,1.1,2.8,0.7c1.3-0.4,2.1-1.4,1.8-2.2
						C242.5,76,241.2,75.6,239.9,76.1z"/>
				</g>
			</g>
		</g>
	</g>
</g>
</svg>
