<?xml version="1.0" encoding="UTF-8"?>
<svg id="Ebene_2" data-name="Ebene 2" xmlns="http://www.w3.org/2000/svg" viewBox="0 0 299.29 257.05">
  <defs>
    <style>
      .cls-1 {
        fill: #e4a976;
      }

      .cls-1, .cls-2, .cls-3, .cls-4, .cls-5, .cls-6, .cls-7, .cls-8, .cls-9, .cls-10, .cls-11, .cls-12, .cls-13, .cls-14 {
        stroke-width: 0px;
      }

      .cls-2 {
        fill: #f89991;
      }

      .cls-3 {
        fill: #fed8b3;
      }

      .cls-4 {
        fill: #fde6c7;
      }

      .cls-5 {
        fill: #110e0e;
      }

      .cls-6 {
        fill: #fccd99;
      }

      .cls-7 {
        fill: #fbc2b5;
      }

      .cls-8 {
        fill: #492004;
      }

      .cls-9 {
        fill: #231d1d;
      }

      .cls-10 {
        fill: #93562c;
      }

      .cls-11 {
        fill: #f6aa9c;
      }

      .cls-12 {
        fill: #f0bb88;
      }

      .cls-13 {
        fill: #efefef;
      }

      .cls-14 {
        fill: #a26938;
      }
    </style>
  </defs>
  <g id="Golden_Retriever" data-name="Golden Retriever">
    <g>
      <g>
        <path class="cls-12" d="m80.67,189.35l.51,44.26s1.95,6.45,2.95,8.07c1,1.62,1.62,2.47,2.93,2.62s11.64-1.58,12.56,4.89c.92,6.47-6.97,5.67-6.97,5.67,0,0-1.76,1.5-8.7,1.5-17.88,0-17.41-11.02-18.68-20.27-.27-1.95.99-41.48.99-41.48l14.4-5.26Z"/>
        <path class="cls-14" d="m92.78,252.82c-.1-.29-.19-.61-.32-.92-.16-.3-.3-.62-.5-.91-.22-.28-.4-.59-.67-.83l-.38-.38-.42-.32c-.27-.23-.58-.37-.86-.55-.3-.13-.58-.29-.87-.38-.28-.11-.55-.19-.8-.25-1.01-.26-1.7-.25-1.7-.25,0,0,.69.05,1.66.38.24.08.5.18.76.31.27.11.53.28.8.43.25.19.54.35.77.59l.36.33.32.38c.23.24.37.54.54.81.16.28.25.59.38.86.09.29.15.58.22.85.07.27.07.54.1.79.08.48.02.9.02,1.19,0,.1,0,.19,0,.25.32-.21.47-.36.47-.36,0,0,.16.01.42.02-.02-.31,0-.72-.12-1.21-.06-.26-.08-.56-.18-.85Z"/>
      </g>
      <path class="cls-12" d="m119.14,157.01s-5.97,32.43-26.92,43.68c-14.74,7.91-12.17,34.05-12.17,34.05l-4.13-12.73-9.64-13.23,5.68-39.34,21.81-25.47,25.38,13.05Z"/>
      <g>
        <path class="cls-12" d="m266.7,218.6c.23,2.98.07,7.06-.01,8.15-.23,2.9.34,6.12,1.05,7.23.71,1.11,8.59,8.01,4.16,12.82s-8.79-1.81-8.79-1.81c0,0-3.09-.27-7.46-5.66-5.84-7.19-2.15-11.79-1-19.63.05-.33,5.06-1.26,7.2-3.04,2.98,2.62,2.17-.99,4.85,1.93Z"/>
        <path class="cls-14" d="m264.75,243.8c.16-.27.35-.53.51-.83.13-.31.29-.62.39-.96.08-.35.21-.68.22-1.04l.06-.53v-.53c0-.35-.09-.68-.13-1.01-.09-.32-.14-.63-.26-.91-.09-.29-.2-.54-.31-.78-.44-.94-.89-1.47-.89-1.47,0,0,.4.57.75,1.53.09.24.18.5.24.79.09.28.12.59.17.89.01.31.07.64.03.97l-.03.49-.09.49c-.04.33-.19.63-.28.94-.11.3-.29.57-.43.84-.17.26-.36.49-.52.71-.16.23-.38.39-.55.57-.33.36-.69.58-.91.76-.08.06-.15.11-.2.16.37.12.57.13.57.13,0,0,.09.14.25.34.23-.21.55-.46.86-.86.17-.21.38-.41.54-.68Z"/>
      </g>
      <path class="cls-12" d="m258.83,218.68s-1.38-2.92-4.61.66-5.56,11.23-5.56,11.23c0,0-1.22-2.22-1-4.14,0,0-3.77,2.41-4.14,4.13,0,0-2.71-2.61-1.75-12.24,0,0-3.66,2.7-3.62,4.1,0,0-4.56-11.18-5.8-24.24-1.24-13.06-1.62-31.43-1.62-31.43l20.28-2.69,7.8,54.62Z"/>
      <path class="cls-12" d="m252.03,157.01s5.07,17.62,9.04,26.28,5.55,15.46,5.75,17.34c.2,1.88-.29,22.75-.09,28.71s0,6.39,0,6.39l-11.92-4.4s-.58-25.13-1.32-27.22c-.74-2.09-14.24-34.38-14.24-34.38l12.77-12.72Z"/>
      <path class="cls-6" d="m144.17,85.23s-6.85-.54-21.41-3.73c-25.3-5.53-39.08,1.74-43.25,4.92s-10.99,15.15-16.36,19.52-15.3,10.93-18.08,29.81c-2.78,18.88-2.78,26.03-2.78,26.03,0,0,2.19-5.17,2.78-6.56s-.2,5.96-.79,9.14c-.6,3.18-1.99,6.56-1.99,6.56,0,0,2.98-1.59,4.77-3.78,1.79-2.19,3.38-4.37,3.38-4.37,0,0-2.38,12.32-5.96,18.08-3.58,5.76-13.04,14.51-13.64,17.49s.03,37.75.03,37.75l15.31-.77s-1.79-22.25,6.95-26.63c8.74-4.37,30.29-10.15,41.62-25.25,11.33-15.1,12.6-22.25,12.6-22.25,0,0,3.69,9.34,6.47,11.92,0,0-.99-7.15,0-9.14l.99-1.99s1.59,7.55,3.58,9.93c1.99,2.38,4.37,3.78,4.37,3.78,0,0-4.17-9.54-2.98-14.9,0,0-10.42,1.79-.58,5.36,9.84,3.58,48.25,17.09,72.69,16.79,24.44-.3,58.15,3.78,70.07-27.52,4.27-11.21.03-29.99-.33-37.85-.64-14.1-.34-14.54,1.82-25.63,3.08-15.82-.3-37.26-.3-37.26l22.35-12.22-24.44-12.52s-16.99-2.09-25.63,6.26c-8.64,8.35-12.1-1.36-17.82,7.36-9.35,14.24-26.82,25.29-42.83,31.4-15.87,6.05-16,10.47-30.61,10.27Z"/>
      <path class="cls-6" d="m41.89,20.11s-13.41,32.49,3.58,43.22c16.99,10.73,16.39,7.45,23.25,11.62,6.86,4.17,9.68,7.33,17.41,7.88s-18.01,21.92-18.01,21.92c0,0-13.11-3.58-21.46-5.07-8.35-1.49-45.01-11.92-42.62-42.92C6.43,25.77,41.89,20.11,41.89,20.11Z"/>
      <path class="cls-6" d="m222.36,186.96s-2.43,14-1.5,16.78c.92,2.77,1.98,5.32,1.68,7.86-.3,2.54-.08,4.28-.18,8.67-.1,4.39,1.99,11.91,1.99,11.91l4.13,2.08-1.73-47.3h-4.39Z"/>
      <g>
        <path class="cls-6" d="m46.25,208.77l.51,24.84s1.95,6.45,2.95,8.07c1,1.62,1.62,2.47,2.93,2.62s11.64-1.58,12.56,4.89c.92,6.47-6.97,5.67-6.97,5.67,0,0-1.76,1.5-8.7,1.5-17.88,0-17.41-11.02-18.68-20.27-.27-1.95,4.7-27.32,4.7-27.32h10.68Z"/>
        <path class="cls-14" d="m58.35,252.82c-.1-.29-.19-.61-.32-.92-.16-.3-.3-.62-.5-.91-.22-.28-.4-.59-.67-.83l-.38-.38-.42-.32c-.27-.23-.58-.37-.86-.55-.3-.13-.58-.29-.87-.38-.28-.11-.55-.19-.8-.25-1.01-.26-1.7-.25-1.7-.25,0,0,.69.05,1.66.38.24.08.5.18.76.31.27.11.53.28.8.43.25.19.54.35.77.59l.36.33.32.38c.23.24.37.54.54.81.16.28.25.59.38.86.09.29.15.58.22.85.07.27.07.54.1.79.08.48.02.9.02,1.19,0,.1,0,.19,0,.25.32-.21.47-.36.47-.36,0,0,.16.01.42.02-.02-.31,0-.72-.12-1.21-.06-.26-.08-.56-.18-.85Z"/>
      </g>
      <path class="cls-6" d="m161.26,177.77s2.09,11.33,9.09,16.84c0,0-4.55-8.35-3.13-15.05,1.11-5.28-5.96-1.79-5.96-1.79Z"/>
      <path class="cls-6" d="m164.84,179.85s2.09,11.33,9.09,16.84c0,0-4.55-8.35-3.13-15.05,1.11-5.28-5.96-1.79-5.96-1.79Z"/>
      <path class="cls-6" d="m167.23,174.94s2.09,11.33,9.09,16.84c0,0-4.55-8.35-3.13-15.05,1.11-5.28-5.96-1.79-5.96-1.79Z"/>
      <path class="cls-6" d="m262.83,85.89s.48,26.99-.9,18.86c-1.38-8.12,8.21,1.77,5.98,27.26,0,0-1.95-5.58-11.05-4.92-4.63.34,5.96-41.2,5.96-41.2Z"/>
      <path class="cls-6" d="m260.26,124.42s8.91,4.88,5.96,23.53c0,0-2.46-9.74-8.61-12.93-4.85-2.51,2.66-10.6,2.66-10.6Z"/>
      <path class="cls-6" d="m226.28,172.38s8.82.26,4.34,20.19c0,0-2.11-10.05-8.75-12.84-5.23-2.2,4.41-7.35,4.41-7.35Z"/>
      <path class="cls-6" d="m228.06,168.44s8,.84,5.28,19.52c0,0-2.58-9.71-8.78-12.82-4.88-2.45,3.5-6.7,3.5-6.7Z"/>
      <path class="cls-6" d="m14.62,93.56s-6.04,5.57-6.35,7.73c0,0,.31-22.29,5.7-29.73h4.47l-3.83,21.99Z"/>
      <path class="cls-6" d="m10.49,66.02s-8.03.41-6.32,19.21c0,0,3.1-9.56,9.45-12.33,5-2.18-3.13-6.88-3.13-6.88Z"/>
      <path class="cls-6" d="m19.7,85.23s-8,.84-5.28,19.52c0,0,2.58-9.71,8.78-12.82,4.88-2.45-3.5-6.7-3.5-6.7Z"/>
      <path class="cls-6" d="m26.18,83.42s-10.31,1.12-6.89,25.11c0,0,3.37-12.49,11.37-16.52,6.29-3.17-4.47-8.6-4.47-8.6Z"/>
      <path class="cls-6" d="m31.96,90s-8,.84-5.28,19.52c0,0,2.58-9.71,8.78-12.82,4.88-2.45-3.5-6.7-3.5-6.7Z"/>
      <path class="cls-6" d="m50.13,98.73s-7.92-1.39-10.45,17.31c0,0,5.16-8.62,11.97-9.91,5.36-1.01-1.51-7.4-1.51-7.4Z"/>
      <path class="cls-6" d="m56.62,109.74s-7.38-3.18-14.17,14.43c0,0,7.01-7.2,13.93-6.88,5.45.25.23-7.55.23-7.55Z"/>
      <path class="cls-6" d="m53.24,106.01s-7.38-3.18-14.17,14.43c0,0,7.01-7.2,13.93-6.88,5.45.25.23-7.55.23-7.55Z"/>
      <path class="cls-6" d="m43.39,91.31s-11.13.85-8.12,26.88c0,0,3.98-13.38,12.7-17.44,6.87-3.2-4.58-9.44-4.58-9.44Z"/>
      <path class="cls-6" d="m17.74,30.99S2.34,40.21.57,59c0,0,4.8-8.83,11.55-10.39,5.32-1.23,5.62-17.62,5.62-17.62Z"/>
      <path class="cls-6" d="m11.43,50.18s-7.83-1.84-11.43,16.69c0,0,5.64-8.32,12.52-9.21,5.41-.7-1.09-7.48-1.09-7.48Z"/>
      <path class="cls-6" d="m7.98,59.52S-.03,60.15,2.18,78.9c0,0,2.84-9.64,9.12-12.58,4.94-2.32-3.31-6.79-3.31-6.79Z"/>
      <path class="cls-6" d="m11.58,69.21s-7.58,11.9-5.26,23.59c0,0,2.57-11.73,9.71-16.16,5.63-3.49-4.45-7.43-4.45-7.43Z"/>
      <g>
        <path class="cls-6" d="m228.38,186.96v46.86s2.47,6.24,3.47,7.86c1,1.62,1.62,2.47,2.93,2.62s11.64-1.58,12.56,4.89c.92,6.47-6.97,5.67-6.97,5.67,0,0-2.17,2.22-9.1,2.2-9.26-.03-12.25-4.97-13.52-14.22-.27-1.95-.05-55.87-.05-55.87h10.68Z"/>
        <path class="cls-6" d="m217.7,242.14s-.96-3.08-4.66,0c-3.7,3.08-7.09,10.33-7.09,10.33,0,0-.89-2.37-.4-4.24,0,0-4.07,1.85-4.68,3.51,0,0-2.31-2.97,0-12.37,0,0-4.01,2.16-4.16,3.55,0,0-2.93-11.71-2.31-24.82.62-13.1,5.55-31.13,5.55-31.13h17.76v55.18Z"/>
        <path class="cls-6" d="m196.93,209.75s-4.16,4.78-4.47,6.94c0,0,.31-22.29,5.7-29.73h4.47l-5.7,22.79Z"/>
        <path class="cls-14" d="m240.49,252.82c-.1-.29-.19-.61-.32-.92-.16-.3-.3-.62-.5-.91-.22-.28-.4-.59-.67-.83l-.38-.38-.42-.32c-.27-.23-.58-.37-.86-.55-.3-.13-.58-.29-.87-.38-.28-.11-.55-.19-.8-.25-1.01-.26-1.7-.25-1.7-.25,0,0,.69.05,1.66.38.24.08.5.18.76.31.27.11.53.28.8.43.25.19.54.35.77.59l.36.33.32.38c.23.24.37.54.54.81.16.28.25.59.38.86.09.29.15.58.22.85.07.27.07.54.1.79.08.48.02.9.02,1.19,0,.1,0,.19,0,.25.32-.21.47-.36.47-.36,0,0,.16.01.42.02-.02-.31,0-.72-.12-1.21-.06-.26-.08-.56-.18-.85Z"/>
        <path class="cls-6" d="m190.21,177.84s-6.39,6-6.97,15.73c0,0,3.41-8.97,12.53-8.97,4.64,0-5.56-6.76-5.56-6.76Z"/>
        <path class="cls-6" d="m183.56,177.17s-5.63,8.08-3.64,17.62c0,0,1.77-8.77,7.19-11.08,4.27-1.82-3.56-6.55-3.56-6.55Z"/>
        <path class="cls-6" d="m194.68,181.42s-8.03.41-6.32,19.21c0,0,3.1-9.56,9.45-12.33,5-2.18-3.13-6.88-3.13-6.88Z"/>
        <path class="cls-6" d="m195.77,184.61s-7.58,11.9-5.26,23.59c0,0,2.57-11.73,9.71-16.16,5.63-3.49-4.45-7.43-4.45-7.43Z"/>
        <path class="cls-6" d="m183.8,174.57s-6.76,5.24-7.48,15.82c0,0,3.69-7.89,8.83-7.44,4.05.35-1.34-8.37-1.34-8.37Z"/>
      </g>
      <path class="cls-6" d="m31.93,224.05s-4.51,7.51-2.42,17.03c0,0,.84-9.56,9.61-12.04,4.47-1.26-7.19-4.99-7.19-4.99Z"/>
      <path class="cls-6" d="m32.4,203.28s-5.63,8.08-3.64,17.62c0,0,1.77-8.77,7.19-11.08,4.27-1.82-3.56-6.55-3.56-6.55Z"/>
      <path class="cls-6" d="m32.64,200.69s-6.76,5.24-7.48,15.82c0,0,3.69-7.89,8.83-7.44,4.05.35-1.34-8.37-1.34-8.37Z"/>
      <rect class="cls-6" x="194.31" y="164.81" width="34.31" height="28.76"/>
      <polygon class="cls-6" points="39.08 92.8 56.99 120.44 80.04 113.11 73.49 89.05 39.08 92.8"/>
      <polygon class="cls-6" points="13.86 73.36 13.35 91.31 32.63 85.23 13.86 73.36"/>
      <path class="cls-6" d="m260.26,158.4s-4.16,8.49-12.98,15.41c-3.75,2.94-6.11,6.71-6.11,6.71,0,0-.46-5.6-4.1-10.49-5.01-6.72,4.92-7.75,4.92-7.75l18.27-3.87Z"/>
      <g>
        <path class="cls-12" d="m209.21,64.21c-.92,18.34,11.55,27.61,22.37,44.32,10.16,15.69,18.69,39.42,18.69,39.42,0,0,27.62-43.2,22.08-86.12-3.04-23.52-9.05-42.66-26.1-42.66s-35.85,21.35-37.04,45.04Z"/>
        <g>
          <path class="cls-6" d="m216.57,31.92c0,19.39,13.3,35.11,29.7,35.11s29.7-15.72,29.7-35.11S262.68,0,246.28,0s-29.7,12.52-29.7,31.92Z"/>
          <g>
            <path class="cls-3" d="m236.92,18.5c2.27.57,4.15,2.47,4.6,4.26s-1.54,3.9-2.33,4.35c-.79.45-2.95-.31-3.96-1.54-1.01-1.23-3.98-2.32-6.9-1.07-3.69,1.58-3.04,5.86-5.29,5.74-2.24-.11-4.08-1.65-4.08-1.65,0,0,2.53-3.35,3.7-5.05,2.02-2.92,6.62-6.96,14.25-5.05Z"/>
            <g>
              <path class="cls-10" d="m225.12,27.68c0-1.03,2.98-4.59,7.21-3.73,3.7.76,4.48,2.92,4.49,4.21.02,1.3-2.05,3.98-5.78,3.58-3.96-.43-5.93-3.04-5.92-4.07Z"/>
              <path class="cls-13" d="m225.67,27.7s2.87-4.22,6.65-3.45c3.31.67,3.91,3.98,3.91,3.98,0,0-1.78,3.15-5.31,2.65-3.52-.51-5.24-3.18-5.24-3.18Z"/>
              <path class="cls-8" d="m233.7,24.75c-.4-.22-.86-.39-1.39-.5-1.05-.22-2.04-.04-2.91.32-.9.6-1.53,1.6-1.61,2.76-.09,1.21.43,2.32,1.29,3.05.54.22,1.15.4,1.83.5,1.03.15,1.91-.02,2.65-.33.84-.61,1.42-1.57,1.5-2.69.09-1.25-.45-2.39-1.36-3.11Z"/>
              <path class="cls-9" d="m233.9,27.6c-.09,1.28-1.21,2.24-2.49,2.15-1.28-.09-2.24-1.21-2.15-2.49.09-1.28,1.21-2.24,2.49-2.15,1.28.09,2.24,1.21,2.15,2.49Z"/>
              <path class="cls-13" d="m232.91,26.06c-.05.65-.62,1.14-1.27,1.09-.65-.05-1.14-.62-1.09-1.27.05-.65.62-1.14,1.27-1.09.65.05,1.14.62,1.09,1.27Z"/>
              <path class="cls-9" d="m231.28,31.1c-.13,0-.26-.02-.39-.04-3.57-.51-5.3-3.15-5.37-3.26l-.07-.1.07-.1c.11-.16,2.67-3.87,6.22-3.61.2.02.41.04.61.08,3.39.69,4.04,4.09,4.05,4.13v.06s-.02.06-.02.06c-.02.03-1.75,3.03-5.1,2.78Zm-5.38-3.4c.35.48,2.04,2.56,5.05,3,3.1.45,4.83-2.08,5.09-2.5-.11-.46-.86-3.18-3.75-3.77-.19-.04-.38-.06-.57-.08-3.02-.22-5.38,2.76-5.82,3.35Z"/>
            </g>
          </g>
          <g>
            <path class="cls-3" d="m255.74,18.5c-2.27.57-4.15,2.47-4.6,4.26-.45,1.8,1.54,3.9,2.33,4.35s2.95-.31,3.96-1.54c1.01-1.23,3.98-2.32,6.9-1.07,3.69,1.58,3.04,5.86,5.29,5.74s4.08-1.65,4.08-1.65c0,0-2.53-3.35-3.7-5.05-2.02-2.92-6.62-6.96-14.25-5.05Z"/>
            <g>
              <path class="cls-10" d="m267.53,27.68c0-1.03-2.98-4.59-7.21-3.73-3.7.76-4.48,2.92-4.49,4.21-.02,1.3,2.05,3.98,5.78,3.58,3.96-.43,5.93-3.04,5.92-4.07Z"/>
              <path class="cls-13" d="m266.99,27.7s-2.87-4.22-6.65-3.45c-3.31.67-3.91,3.98-3.91,3.98,0,0,1.78,3.15,5.31,2.65,3.52-.51,5.24-3.18,5.24-3.18Z"/>
              <path class="cls-8" d="m258.96,24.75c.4-.22.86-.39,1.39-.5,1.05-.22,2.04-.04,2.91.32.9.6,1.53,1.6,1.61,2.76.09,1.21-.43,2.32-1.29,3.05-.54.22-1.15.4-1.83.5-1.03.15-1.91-.02-2.65-.33-.84-.61-1.42-1.57-1.5-2.69-.09-1.25.45-2.39,1.36-3.11Z"/>
              <path class="cls-9" d="m258.76,27.6c.09,1.28,1.21,2.24,2.49,2.15,1.28-.09,2.24-1.21,2.15-2.49s-1.21-2.24-2.49-2.15c-1.28.09-2.24,1.21-2.15,2.49Z"/>
              <path class="cls-13" d="m259.74,26.06c.05.65.62,1.14,1.27,1.09.65-.05,1.14-.62,1.09-1.27-.05-.65-.62-1.14-1.27-1.09-.65.05-1.14.62-1.09,1.27Z"/>
              <path class="cls-9" d="m256.28,28.32l-.03-.06v-.06s.67-3.44,4.06-4.13c.2-.04.41-.07.61-.08,3.55-.26,6.11,3.45,6.22,3.61l.07.1-.07.1c-.07.11-1.81,2.75-5.37,3.26-.13.02-.26.03-.39.04-3.35.25-5.09-2.75-5.1-2.78Zm4.67-3.97c-.19.01-.38.04-.57.08-2.89.59-3.64,3.31-3.75,3.77.26.42,1.99,2.95,5.09,2.5,3.01-.43,4.69-2.51,5.05-3-.44-.59-2.8-3.57-5.82-3.35Z"/>
            </g>
          </g>
          <g>
            <path class="cls-9" d="m245.99,61.29s-7.37.6-12.38-.52c-5.01-1.12-9.53-5.52-9.53-5.52,0,0,3.23,5.71,4.71,8.39,1.29,2.34,3.99,7.66,17.19,7.66v-10.01Z"/>
            <path class="cls-9" d="m245.98,61.29s7.02.89,12.03-.23c5.01-1.12,9.98-5.19,9.98-5.19,0,0-3.33,5.08-4.81,7.77-1.29,2.34-3.99,7.66-17.19,7.66v-10.01Z"/>
            <g>
              <rect class="cls-9" x="235.02" y="60.92" width="21.85" height="8.29"/>
              <path class="cls-9" d="m245.95,80.05c-6.03,0-10.92-4.85-10.92-10.84h21.85c0,5.99-4.89,10.84-10.92,10.84Z"/>
              <path class="cls-7" d="m245.89,61.52s6.25,2.58,10.14,2.5c0,0,0,1.02-.86,2.07-.28.35-.44,7.54-.5,7.86-.14.87-.2,9.17-8.78,9.17h0c-8.58,0-8.64-8.3-8.78-9.17-.05-.33-.21-7.52-.5-7.86-.86-1.05-.86-2.07-.86-2.07,3.89.08,10.14-2.5,10.14-2.5Z"/>
              <path class="cls-2" d="m245.93,79.45h0c.44,0,.79-13.81.79-13.81,0-.67-.35-1.21-.79-1.21h0c-.44,0-.79.54-.79,1.21,0,0,.35,13.81.79,13.81Z"/>
              <path class="cls-2" d="m245.89,67.54c-4.18,0-7.68-1.05-9.31-2.59,3.89-.23,9.31-2.35,9.31-2.35,0,0,5.42,2.12,9.31,2.35-1.35,1.69-5.14,2.59-9.31,2.59Z"/>
            </g>
            <path class="cls-4" d="m245.95,62.12s6.15,7.24,13.2,2.9c5.83-3.58,7.47-5.52,3.24-15.62-.89-2.12-2.65-12.91-16.44-12.91v25.63Z"/>
            <path class="cls-4" d="m245.98,62.12s-6.15,7.24-13.2,2.9c-5.79-3.56-7.45-5.49-3.32-15.42.9-2.17,3.28-13.11,16.52-13.11v25.63Z"/>
            <g>
              <path class="cls-9" d="m237.79,60.09c0,.23.19.42.42.42s.42-.19.42-.42-.19-.42-.42-.42-.42.19-.42.42Z"/>
              <path class="cls-9" d="m235.85,56.55c0,.18.14.32.32.32s.32-.14.32-.32-.14-.32-.32-.32-.32.14-.32.32Z"/>
              <path class="cls-9" d="m235.43,60.94c0,.23.19.42.42.42s.42-.19.42-.42-.19-.42-.42-.42-.42.19-.42.42Z"/>
              <path class="cls-9" d="m241.19,59.19c0,.23.19.42.42.42s.42-.19.42-.42-.19-.42-.42-.42-.42.19-.42.42Z"/>
              <path class="cls-9" d="m240.22,61.96c0,.17.14.3.3.3s.3-.14.3-.3-.14-.3-.3-.3-.3.14-.3.3Z"/>
              <circle class="cls-9" cx="251.38" cy="61.56" r=".28"/>
              <path class="cls-9" d="m253.43,58.05c0,.23.19.42.42.42s.42-.19.42-.42-.19-.42-.42-.42-.42.19-.42.42Z"/>
              <path class="cls-9" d="m253.85,61.7c0,.23.19.42.42.42s.42-.19.42-.42-.19-.42-.42-.42-.42.19-.42.42Z"/>
              <path class="cls-9" d="m256.53,59.4c0,.23.19.42.42.42s.42-.19.42-.42-.19-.42-.42-.42-.42.19-.42.42Z"/>
              <path class="cls-9" d="m257.03,56.25c0,.19.15.34.34.34s.34-.15.34-.34-.15-.34-.34-.34-.34.15-.34.34Z"/>
            </g>
            <g>
              <path class="cls-9" d="m245.95,40.71s-10.26-1.51-10.26,5.71,10.26,10.18,10.26,10.18v-15.88Z"/>
              <path class="cls-5" d="m237.39,48.21c-.35,1.12.65,2.49,2.24,3.07,1.58.58,3.15.14,3.5-.98s-.65-2.49-2.24-3.07c-1.58-.58-3.15-.14-3.5.98Z"/>
              <path class="cls-9" d="m245.95,40.71s10.26-1.51,10.26,5.71-10.26,10.18-10.26,10.18v-15.88Z"/>
              <path class="cls-5" d="m254.5,48.21c.35,1.12-.65,2.49-2.24,3.07-1.58.58-3.15.14-3.5-.98s.65-2.49,2.24-3.07c1.58-.58,3.15-.14,3.5.98Z"/>
            </g>
            <path class="cls-9" d="m232.74,65.09c.55.28,1.12.47,1.7.64.3.06.58.15.88.18.3.04.59.09.89.09.3.02.59.04.89.02.29-.01.59,0,.88-.06.29-.05.58-.05.87-.14l.85-.21.82-.31c.28-.08.53-.24.79-.36.26-.14.53-.24.77-.41l.74-.48c.25-.15.47-.35.7-.53l.69-.55,1.27-1.24.41-.39.41.39,1.27,1.23.69.55c.23.18.45.38.7.53l.74.48c.24.18.51.28.77.41.26.12.52.28.79.36l.82.31.85.21c.28.09.58.08.87.14.29.06.58.05.88.06.3.02.59,0,.89-.02.3,0,.59-.06.89-.09.3-.03.59-.12.88-.18.58-.17,1.15-.36,1.7-.64-.48.38-1.03.67-1.6.92-.29.1-.58.23-.88.31-.3.08-.6.18-.91.23-.31.06-.62.11-.94.12-.32.02-.63.05-.95.03-.32-.02-.64,0-.95-.07l-.94-.16-.92-.27c-.31-.08-.59-.24-.89-.36-.29-.14-.59-.24-.86-.42l-.82-.48c-.28-.15-.52-.36-.77-.55l-.75-.58c-.46-.42-.92-.86-1.37-1.29h.81l-1.37,1.29-.75.58c-.25.19-.49.4-.77.55l-.82.48c-.26.18-.57.28-.86.42-.29.12-.57.28-.89.36l-.92.27-.94.17c-.31.07-.63.05-.95.07-.32.03-.63,0-.95-.03-.32,0-.63-.06-.94-.12-.31-.05-.61-.14-.91-.23-.3-.08-.59-.21-.88-.31-.57-.25-1.12-.54-1.6-.92Z"/>
          </g>
          <path class="cls-11" d="m254.67,73.96s-.01.45-.08,1.23c-.09.77-.23,1.9-.74,3.17-.13.31-.26.64-.45.96-.16.33-.37.65-.61.97-.45.65-1.07,1.22-1.77,1.73-.38.21-.75.44-1.16.62-.42.14-.83.34-1.27.43-.44.08-.88.21-1.34.25l-1.36.09-1.35-.09c-.45-.04-.9-.17-1.35-.25-.45-.1-.85-.29-1.27-.44-.4-.18-.78-.41-1.16-.63-.7-.51-1.32-1.08-1.77-1.73-.24-.31-.44-.63-.61-.97-.19-.32-.32-.65-.45-.96-.51-1.26-.65-2.39-.74-3.17-.07-.78-.08-1.23-.08-1.23,0,0,.07.44.19,1.21.13.77.38,1.86.92,3.06.14.3.28.61.47.91.17.31.38.61.62.89.45.6,1.06,1.1,1.71,1.57.36.19.71.4,1.09.57.4.12.78.31,1.2.39.42.07.82.18,1.26.22l1.32.07,1.3-.07c.43-.03.85-.15,1.27-.22.42-.08.8-.27,1.2-.39.38-.17.73-.38,1.09-.57.65-.47,1.26-.97,1.71-1.57.24-.29.45-.58.62-.9.2-.3.33-.61.47-.91.54-1.2.79-2.29.92-3.06.12-.77.19-1.21.19-1.21Z"/>
          <path class="cls-1" d="m259.04,2.79s15.18,8.2,15.98,23.18c.9,16.91-6.34,22.45-3.88,30.9,4.07,13.97,22.98,17.76,22.98,17.76,0,0-.84-13.11,1.86-20.31,3.72-9.91,5.28-20.53-.62-27.16-5.9-6.63-13.54-26.47-36.32-24.36Z"/>
          <path class="cls-1" d="m232.92,3.09s-12.32,9.62-13.58,20.63.36,17.08-2.11,25.53c-4.07,13.97-20.65,18.29-20.65,18.29,0,0,1.12-6.13-1.26-13.43-2.39-7.3-5.9-19.04,0-25.67,5.9-6.63,14.82-27.46,37.6-25.35Z"/>
        </g>
      </g>
    </g>
  </g>
</svg>