<?xml version="1.0" encoding="UTF-8"?>
<svg xmlns="http://www.w3.org/2000/svg" viewBox="0 0 498.57 304.49">
  <defs>
    <style>
      .cls-1 {
        fill: #ffd166;
      }

      .cls-1, .cls-2, .cls-3, .cls-4, .cls-5, .cls-6, .cls-7, .cls-8, .cls-9, .cls-10, .cls-11, .cls-12, .cls-13 {
        stroke-width: 0px;
      }

      .cls-2 {
        fill: #fa8e2f;
      }

      .cls-3 {
        fill: #d66412;
      }

      .cls-4 {
        fill: #c25202;
      }

      .cls-14 {
        isolation: isolate;
      }

      .cls-5 {
        fill: #bd9f93;
      }

      .cls-5, .cls-6, .cls-9, .cls-10 {
        mix-blend-mode: multiply;
      }

      .cls-5, .cls-9 {
        opacity: .6;
      }

      .cls-6 {
        fill: #fad5a3;
      }

      .cls-7 {
        fill: #ffcf5f;
        opacity: .5;
      }

      .cls-8 {
        fill: #fa9b2f;
      }

      .cls-9, .cls-10 {
        fill: #dbb9ab;
      }

      .cls-10 {
        opacity: .4;
      }

      .cls-11 {
        fill: #ab4700;
      }

      .cls-12 {
        fill: #fab73d;
      }

      .cls-13 {
        fill: #fae5be;
      }
    </style>
  </defs>
  <g class="cls-14">
    <g id="Ebene_2" data-name="Ebene 2">
      <g>
        <ellipse class="cls-8" cx="249.29" cy="54.01" rx="178.76" ry="27.97"/>
        <path class="cls-1" d="m70.53,54.01c0-15.45,80.03-27.97,178.76-27.97s177.27,12.3,178.69,27.56l17.29-.05c-1.34-19.97-88.56-36.08-195.99-36.08S53.27,33.82,53.27,54.01c0,.22.02.43.04.65l17.31-.05c-.03-.2-.1-.4-.1-.6Z"/>
        <g>
          <path class="cls-4" d="m165.42,24.25c-1.89,1.31-4.64.98-6.17-.73-10.55-11.86-23.54-17.27-30.08-12.12-6.54,5.15-4.32,19.05,4.73,32.09,1.31,1.89.98,4.64-.73,6.17-11.86,10.55-17.27,23.54-12.12,30.08s19.05,4.32,32.09-4.73c1.89-1.31,4.64-.98,6.17.73,10.55,11.86,23.54,17.27,30.08,12.12,6.54-5.15,4.32-19.05-4.73-32.09-1.31-1.89-.98-4.64.73-6.17,11.86-10.55,17.27-23.54,12.12-30.08-5.15-6.54-19.05-4.32-32.09,4.73Z"/>
          <path class="cls-5" d="m124.87,20.5c7.94,1.61,12.86,9.95,20.47,12.72,5.92,2.16,12.45.64,18.72-.06s13.51-.12,17.45,4.81c3.09,3.88,1.84,9.15,1.58,14.11-.26,4.96-2.14,10.05-6.07,13.1-4,3.1-9.56,3.61-14.49,2.43-4.92-1.18-9.34-3.87-13.55-6.68-5.75-3.84-11.29-8.01-16.58-12.47-4.35-3.66-8.64-7.69-10.9-12.91-2.25-5.22-.69-11.07,3.37-15.04Z"/>
          <path class="cls-4" d="m297.84,16.85c-1.32,1.88-4.02,2.53-6.04,1.45-14-7.47-28.07-8.05-32.42-.96-4.35,7.09,2.54,19.37,15.54,28.47,1.88,1.32,2.53,4.02,1.45,6.04-7.47,14-8.05,28.07-.96,32.42,7.09,4.35,19.37-2.54,28.47-15.54,1.32-1.88,4.02-2.53,6.04-1.45,14,7.47,28.07,8.05,32.42.96,4.35-7.09-2.54-19.37-15.54-28.47-1.88-1.32-2.53-4.02-1.45-6.04,7.47-14,8.05-28.07.96-32.42-7.09-4.35-19.37,2.54-28.47,15.54Z"/>
          <g>
            <path class="cls-11" d="m225.56,42.38c-1.83-1.38-2.39-4.1-1.23-6.09,7.96-13.73,9.03-27.77,2.1-32.36-6.93-4.6-19.44,1.86-28.99,14.54-1.38,1.83-4.1,2.39-6.09,1.23-13.73-7.96-27.77-9.03-32.36-2.1-4.6,6.93,1.86,19.44,14.54,28.99,1.83,1.38,2.39,4.1,1.23,6.09-7.96,13.73-9.03,27.77-2.1,32.36s19.44-1.86,28.99-14.54c1.38-1.83,4.1-2.39,6.09-1.23,13.73,7.96,27.77,9.03,32.36,2.1s-1.86-19.44-14.54-28.99Z"/>
            <path class="cls-9" d="m241.47,67.46c-3.38,2.99-7.72,4.88-12.21,5.28-5.13.46-10.41-1.04-14.55-4.12-1.8-1.34-3.57-3.04-5.81-3.13-1.53-.06-3,.67-4.13,1.7-.71.64-1.3,1.4-1.85,2.18,1.44-.87,3.33-.96,4.82-.1,13.73,7.96,27.77,9.03,32.36,2.1.77-1.16,1.2-2.48,1.37-3.91Z"/>
            <path class="cls-9" d="m179.59,86.39c-1.56-1.56-2.86-3.38-3.76-5.39-1.95-4.35-2.1-9.49-.39-13.94,1.57-4.09,4.55-7.46,6.69-11.27,2.14-3.82,3.4-8.66,1.3-12.5-2.51-4.58-8.43-5.7-13.02-8.18-6.51-3.52-10.73-10.77-10.91-18.14-.17.21-.36.41-.51.64-4.6,6.93,1.86,19.44,14.54,28.99,1.83,1.38,2.39,4.1,1.23,6.09-7.96,13.73-9.03,27.77-2.1,32.36,1.94,1.28,4.32,1.68,6.94,1.34Z"/>
          </g>
          <g>
            <path class="cls-11" d="m240.53,51.28c1.71-1.53,2.03-4.29.72-6.17-9.08-13.02-11.33-26.91-4.8-32.07,6.53-5.16,19.53.22,30.11,12.06,1.53,1.71,4.29,2.03,6.17.72,13.02-9.08,26.91-11.33,32.07-4.8,5.16,6.53-.22,19.53-12.06,30.11-1.71,1.53-2.03,4.29-.72,6.17,9.08,13.02,11.33,26.91,4.8,32.07-6.53,5.16-19.53-.22-30.11-12.06-1.53-1.71-4.29-2.03-6.17-.72-13.02,9.08-26.91,11.33-32.07,4.8-5.16-6.53.22-19.53,12.06-30.11Z"/>
            <path class="cls-9" d="m226.78,77.61c3.61,2.7,8.1,4.22,12.61,4.24,5.15.03,10.29-1.91,14.15-5.32,1.68-1.48,3.31-3.33,5.53-3.61,1.52-.19,3.04.42,4.26,1.34.76.58,1.41,1.28,2.03,2.02-1.51-.74-3.4-.67-4.81.31-13.02,9.08-26.91,11.33-32.07,4.8-.86-1.09-1.4-2.37-1.7-3.78Z"/>
            <path class="cls-9" d="m290.03,91.28c1.42-1.68,2.56-3.6,3.3-5.68,1.58-4.5,1.29-9.63-.78-13.93-1.91-3.94-5.15-7.05-7.61-10.68-2.45-3.63-4.11-8.35-2.34-12.35,2.12-4.77,7.92-6.38,12.29-9.24,6.19-4.06,9.79-11.63,9.36-18.99.19.2.39.38.56.59,5.16,6.53-.22,19.53-12.06,30.11-1.71,1.53-2.03,4.29-.72,6.17,9.08,13.02,11.33,26.91,4.8,32.07-1.82,1.44-4.16,2.03-6.8,1.92Z"/>
          </g>
          <g>
            <path class="cls-11" d="m136.84,38.42c-2.29.12-4.46-1.62-4.85-3.88-2.7-15.64-10.88-27.1-19.15-26.18-8.27.92-13.73,13.89-12.92,29.75.12,2.29-1.62,4.46-3.88,4.85-15.64,2.7-27.1,10.88-26.18,19.15.92,8.27,13.89,13.73,29.75,12.92,2.29-.12,4.46,1.62,4.85,3.88,2.7,15.64,10.88,27.1,19.15,26.18,8.27-.92,13.73-13.89,12.92-29.75-.12-2.29,1.62-4.46,3.88-4.85,15.64-2.7,27.1-10.88,26.18-19.15-.92-8.27-13.89-13.73-29.75-12.92Z"/>
            <path class="cls-9" d="m165.13,47.46c-.67,4.46-2.79,8.7-5.98,11.89-3.64,3.64-8.66,5.88-13.8,6.17-2.24.13-4.69-.04-6.47,1.32-1.21.93-1.87,2.44-2.08,3.95-.13.95-.1,1.9-.02,2.86.55-1.59,1.94-2.87,3.63-3.16,15.64-2.7,27.1-10.88,26.18-19.15-.15-1.38-.67-2.67-1.45-3.88Z"/>
            <path class="cls-9" d="m129.79,101.67c-2.2-.19-4.36-.76-6.34-1.72-4.29-2.09-7.69-5.94-9.24-10.45-1.42-4.14-1.29-8.64-2.1-12.94-.81-4.3-2.95-8.82-7.02-10.42-4.86-1.91-10.12,1.03-15.24,2.07-7.25,1.47-15.14-1.38-20.01-6.91,0,.27-.01.54.02.82.92,8.27,13.89,13.73,29.75,12.92,2.29-.12,4.46,1.62,4.85,3.88,2.7,15.64,10.88,27.1,19.15,26.18,2.31-.26,4.39-1.48,6.18-3.42Z"/>
          </g>
          <path class="cls-10" d="m133.68,47.11c-3.19,2.53-4.89,6.44-6.7,10.09-1.8,3.65-4.05,7.42-7.74,9.14-2.85,1.33-6.16,1.22-9.28.78-3.12-.44-6.22-1.18-9.37-1.03-3.14.15-6.44,1.37-8.16,4.01,19.86,7.07,40.84,10.98,61.91,10.59,2.24-.04,4.68-.21,6.32-1.74,1.52-1.42,1.93-3.74,1.51-5.78-.42-2.04-1.55-3.85-2.74-5.56-6.77-9.68-14.83-16.01-25.75-20.51Z"/>
          <g>
            <path class="cls-11" d="m349.46,78.94c.27-2.28,2.34-4.13,4.64-4.13,15.87-.04,28.54-6.18,29.02-14.49.48-8.31-11.4-15.86-27.16-17.72-2.28-.27-4.13-2.34-4.13-4.64-.04-15.87-6.18-28.54-14.49-29.02-8.31-.48-15.86,11.4-17.72,27.16-.27,2.28-2.34,4.13-4.64,4.13-15.87.04-28.54,6.18-29.02,14.49-.48,8.31,11.4,15.86,27.16,17.72,2.28.27,4.13,2.34,4.13,4.64.04,15.87,6.18,28.54,14.49,29.02,8.31.48,15.86-11.4,17.72-27.16Z"/>
            <path class="cls-9" d="m335.81,105.31c-4.28-1.41-8.11-4.21-10.72-7.89-2.98-4.2-4.35-9.52-3.77-14.64.25-2.22.83-4.62-.22-6.6-.71-1.35-2.09-2.25-3.55-2.72-.91-.29-1.86-.42-2.82-.5,1.47.81,2.5,2.4,2.51,4.11.04,15.87,6.18,28.54,14.49,29.02,1.39.08,2.75-.21,4.07-.78Z"/>
            <path class="cls-9" d="m288.29,61.39c.56-2.13,1.48-4.17,2.76-5.96,2.78-3.88,7.14-6.59,11.85-7.36,4.32-.7,8.73.17,13.11.1,4.38-.07,9.19-1.43,11.45-5.18,2.69-4.47.68-10.15.51-15.37-.24-7.4,3.9-14.69,10.17-18.56-.27-.04-.53-.11-.81-.12-8.31-.48-15.86,11.4-17.72,27.16-.27,2.28-2.34,4.13-4.64,4.13-15.87.04-28.54,6.18-29.02,14.49-.13,2.32.73,4.57,2.33,6.67Z"/>
          </g>
          <g>
            <path class="cls-4" d="m245.65,87.62c.27-2.28,2.34-4.13,4.64-4.13,15.87-.04,28.54-6.18,29.02-14.49.48-8.31-11.4-15.86-27.16-17.72-2.28-.27-4.13-2.34-4.13-4.64-.04-15.87-6.18-28.54-14.49-29.02-8.31-.48-15.86,11.4-17.72,27.16-.27,2.28-2.34,4.13-4.64,4.13-15.87.04-28.54,6.18-29.02,14.49-.48,8.31,11.4,15.86,27.16,17.72,2.28.27,4.13,2.34,4.13,4.64.04,15.87,6.18,28.54,14.49,29.02,8.31.48,15.86-11.4,17.72-27.16Z"/>
            <path class="cls-9" d="m232,114c-4.28-1.41-8.11-4.21-10.72-7.89-2.98-4.2-4.35-9.52-3.77-14.64.25-2.22.83-4.62-.22-6.6-.71-1.35-2.09-2.25-3.55-2.72-.91-.29-1.86-.42-2.82-.5,1.47.81,2.5,2.4,2.51,4.11.04,15.87,6.18,28.54,14.49,29.02,1.39.08,2.75-.21,4.07-.78Z"/>
            <path class="cls-5" d="m184.47,70.07c.56-2.13,1.48-4.17,2.76-5.96,2.78-3.88,7.14-6.59,11.85-7.36,4.32-.7,8.73.17,13.11.1,4.38-.07,9.19-1.43,11.45-5.18,2.69-4.47.68-10.15.51-15.37-.24-7.4,3.9-14.69,10.17-18.56-.27-.04-.53-.11-.81-.12-8.31-.48-15.86,11.4-17.72,27.16-.27,2.28-2.34,4.13-4.64,4.13-15.87.04-28.54,6.18-29.02,14.49-.13,2.32.73,4.57,2.33,6.67Z"/>
          </g>
          <path class="cls-10" d="m256.92,61.43c-3.75.57-7.17,2.44-10.35,4.51-3.18,2.07-6.22,4.38-9.64,6.01-8.02,3.82-17.91,3.43-25.61-1.02-6.21-3.59-10.89-9.52-17.33-12.68l-2.83,1.33c-3.38,5.15-3.48,12.03-1.1,17.71,2.38,5.68,6.99,10.22,12.24,13.43,8.52,5.21,18.92,7.18,28.81,5.78,9.89-1.4,19.24-6.11,26.5-12.97,5.27-4.98,9.4-11.7,9.75-18.95-2.55-2.81-6.7-3.74-10.45-3.16Z"/>
          <g>
            <path class="cls-4" d="m382.67,34.55c-1.89,1.3-4.65.95-6.16-.77-10.48-11.92-23.44-17.41-30.01-12.3-6.57,5.11-4.44,19.02,4.54,32.11,1.3,1.89.95,4.65-.77,6.16-11.92,10.48-17.41,23.44-12.3,30.01s19.02,4.44,32.11-4.54c1.89-1.3,4.65-.95,6.16.77,10.48,11.92,23.44,17.41,30.01,12.3,6.57-5.11,4.44-19.02-4.54-32.11-1.3-1.89-.95-4.65.77-6.16,11.92-10.48,17.41-23.44,12.3-30.01-5.11-6.57-19.02-4.44-32.11,4.54Z"/>
            <path class="cls-9" d="m411.52,27.46c1.76,4.15,2.17,8.87,1.12,13.26-1.2,5.01-4.3,9.54-8.54,12.48-1.84,1.28-4.02,2.42-4.82,4.51-.55,1.43-.32,3.06.29,4.46.38.88.91,1.67,1.48,2.45-.36-1.64.15-3.46,1.44-4.6,11.92-10.48,17.41-23.44,12.3-30.01-.85-1.1-1.97-1.93-3.27-2.55Z"/>
            <path class="cls-5" d="m409.74,92.15c-1.97.98-4.11,1.63-6.3,1.85-4.75.46-9.66-1.04-13.34-4.08-3.37-2.79-5.62-6.69-8.56-9.93-2.94-3.25-7.13-5.98-11.44-5.21-5.14.92-8.08,6.17-11.9,9.73-5.41,5.05-13.63,6.74-20.67,4.57.15.23.27.47.44.69,5.11,6.57,19.02,4.44,32.11-4.54,1.89-1.3,4.65-.95,6.17.77,10.48,11.92,23.44,17.41,30.01,12.3,1.83-1.43,2.96-3.56,3.48-6.15Z"/>
          </g>
          <path class="cls-10" d="m287.8,49.47c6.45,9.34,8.99,5.9,18.95,5,14.57-1.32,19.31,3.97,24.84,6.97,5.62,3.06,8.19-.49,13.62-.99,8.06-.73,9.77-1.97,11.74-6.61,4.67,4,4.06,14.14.99,19.48-3.07,5.33-8.63,8.75-14.31,11.12-12.3,5.12-26.91,6.1-38.69-.12-4.64-2.45-8.73-5.96-11.86-10.18-2.6-3.5-3.37-20.75-5.27-24.67Z"/>
          <g>
            <path class="cls-3" d="m201.09,67.47c-1.94-1.22-2.72-3.89-1.74-5.97,6.79-14.35,6.7-28.42-.59-32.43-7.29-4.01-19.22,3.46-27.69,16.89-1.22,1.94-3.89,2.72-5.97,1.73-14.35-6.79-28.42-6.7-32.43.59-4.01,7.29,3.46,19.22,16.89,27.69,1.94,1.22,2.72,3.89,1.74,5.97-6.79,14.35-6.7,28.42.59,32.43,7.29,4.01,19.22-3.46,27.69-16.89,1.22-1.94,3.89-2.72,5.97-1.74,14.35,6.79,28.42,6.7,32.43-.59,4.01-7.29-3.46-19.22-16.89-27.69Z"/>
            <path class="cls-9" d="m219.02,91.14c-3.12,3.26-7.29,5.51-11.73,6.28-5.08.88-10.46-.17-14.84-2.9-1.9-1.18-3.81-2.73-6.05-2.64-1.53.06-2.93.92-3.98,2.03-.66.7-1.18,1.5-1.66,2.33,1.36-.98,3.24-1.23,4.79-.5,14.35,6.79,28.42,6.7,32.43-.59.67-1.22.99-2.57,1.05-4.01Z"/>
            <path class="cls-9" d="m158.92,115.14c-1.68-1.42-3.13-3.13-4.19-5.06-2.31-4.18-2.88-9.28-1.54-13.86,1.22-4.2,3.91-7.81,5.73-11.79,1.82-3.98,2.67-8.91.25-12.57-2.88-4.36-8.87-4.98-13.65-7.07-6.78-2.97-11.58-9.85-12.38-17.17-.15.23-.33.44-.46.68-4.01,7.29,3.46,19.22,16.89,27.69,1.94,1.22,2.72,3.89,1.74,5.97-6.79,14.35-6.7,28.42.59,32.43,2.04,1.12,4.44,1.31,7.02.76Z"/>
          </g>
          <g>
            <path class="cls-3" d="m297.64,58.2c-2.26.42-4.64-1.01-5.33-3.2-4.77-15.14-14.4-25.4-22.48-23.38-8.07,2.02-11.75,15.6-8.83,31.21.42,2.26-1.01,4.64-3.2,5.33-15.14,4.77-25.4,14.4-23.38,22.48s15.6,11.75,31.21,8.83c2.26-.42,4.64,1.01,5.33,3.2,4.77,15.14,14.4,25.4,22.48,23.38,8.07-2.02,11.75-15.6,8.83-31.21-.42-2.26,1.01-4.64,3.2-5.33,15.14-4.77,25.4-14.4,23.38-22.48-2.02-8.07-15.6-11.75-31.21-8.83Z"/>
            <path class="cls-9" d="m326.89,63.38c-.07,4.51-1.6,8.99-4.34,12.58-3.12,4.1-7.79,6.99-12.85,7.96-2.2.42-4.66.59-6.23,2.18-1.08,1.08-1.53,2.67-1.54,4.19,0,.96.16,1.9.36,2.84.33-1.65,1.54-3.1,3.18-3.62,15.14-4.77,25.4-14.4,23.38-22.48-.34-1.35-1.02-2.56-1.96-3.65Z"/>
            <path class="cls-9" d="m299.12,121.83c-2.2.1-4.42-.17-6.51-.86-4.53-1.5-8.42-4.85-10.55-9.12-1.96-3.92-2.44-8.39-3.81-12.54-1.37-4.16-4.1-8.35-8.35-9.39-5.07-1.24-9.89,2.38-14.82,4.09-6.99,2.43-15.19.65-20.75-4.18.04.27.06.54.13.81,2.02,8.07,15.6,11.75,31.21,8.83,2.26-.42,4.64,1.01,5.33,3.2,4.77,15.14,14.4,25.4,22.48,23.38,2.25-.56,4.15-2.05,5.67-4.21Z"/>
          </g>
          <g>
            <path class="cls-3" d="m392.77,50.7c-2.26.42-4.64-1.01-5.33-3.2-4.77-15.14-14.4-25.4-22.48-23.38s-11.75,15.6-8.83,31.21c.42,2.26-1.01,4.64-3.2,5.33-15.14,4.77-25.4,14.4-23.38,22.48s15.6,11.75,31.21,8.83c2.26-.42,4.64,1.01,5.33,3.2,4.77,15.14,14.4,25.4,22.48,23.38,8.07-2.02,11.75-15.6,8.83-31.21-.42-2.26,1.01-4.64,3.2-5.33,15.14-4.77,25.4-14.4,23.38-22.48-2.02-8.07-15.6-11.75-31.21-8.83Z"/>
            <path class="cls-9" d="m422.02,55.88c-.07,4.51-1.6,8.99-4.34,12.58-3.12,4.1-7.79,6.99-12.85,7.96-2.2.42-4.66.59-6.23,2.18-1.08,1.08-1.53,2.67-1.54,4.19,0,.96.16,1.9.36,2.84.33-1.65,1.54-3.1,3.18-3.62,15.14-4.77,25.4-14.4,23.38-22.48-.34-1.35-1.02-2.56-1.96-3.65Z"/>
            <path class="cls-9" d="m394.25,114.33c-2.2.1-4.42-.17-6.51-.86-4.53-1.5-8.42-4.85-10.55-9.12-1.96-3.92-2.44-8.39-3.81-12.54-1.37-4.16-4.1-8.35-8.35-9.39-5.07-1.24-9.89,2.38-14.82,4.09-6.99,2.43-15.19.65-20.75-4.18.04.27.06.54.12.81,2.02,8.07,15.6,11.75,31.21,8.83,2.26-.42,4.64,1.01,5.33,3.2,4.77,15.14,14.4,25.4,22.48,23.38,2.25-.56,4.15-2.05,5.67-4.21Z"/>
          </g>
        </g>
        <path class="cls-12" d="m498.12,236.48h.02l-.12-.4c-.1-.41-.22-.83-.36-1.24l-52.35-180.84h0c0,20.18-87.76,36.55-196.02,36.55S53.27,74.19,53.27,54.01h0S.93,234.8.93,234.8c-.15.45-.28.89-.39,1.34l-.11.39h.02c-.28,1.26-.44,2.52-.44,3.79,0,35.44,111.61,64.17,249.29,64.17s249.29-28.73,249.29-64.17c0-1.29-.17-2.57-.46-3.84Z"/>
        <path class="cls-2" d="m498.14,236.48l-.12-.4c-.1-.41-.22-.83-.36-1.24l-5.18-17.88c-21.54,19.58-81.67,55.88-234.44,61.52-177.39,6.55-238.94-39.61-254.01-54.43l-3.11,10.74c-.15.45-.28.89-.39,1.34l-.11.39h.02c-.28,1.26-.44,2.52-.44,3.79,0,35.44,111.61,64.17,249.29,64.17s249.29-28.73,249.29-64.17c0-1.29-.17-2.57-.46-3.84h.02Z"/>
        <path class="cls-7" d="m249.29,90.55c-108.26,0-196.02-16.36-196.02-36.55h0s-34.27,118.39-34.27,118.39c29.77,36.35,93.05,55.22,161.7,43.9,86.46-14.26,149.52-71.15,143.96-128.55-23.2,1.8-48.65,2.8-75.36,2.8Z"/>
        <path class="cls-6" d="m498.12,236.48h.02l-.12-.4c-.1-.41-.22-.83-.36-1.24l-52.35-180.84h0c0,7.52-12.19,14.51-33.09,20.32,3.97,49.02-19.65,98.05-55.65,131.79-37.15,34.82-86.06,54.9-135.78,65.87-59.79,13.18-122.24,13.93-182.38,2.57,44.16,17.99,122.09,29.94,210.87,29.94,137.68,0,249.29-28.73,249.29-64.17,0-1.29-.17-2.57-.46-3.84Z"/>
        <path class="cls-6" d="m498.12,236.48h.02l-.12-.4c-.1-.41-.22-.83-.36-1.24l-52.35-180.84h0c0,5.29-6.05,10.32-16.9,14.87,9.69,50.31,32.24,161.23,40.51,201.83,18.92-9.04,29.66-19.39,29.66-30.38,0-1.29-.17-2.57-.46-3.84Z"/>
        <path class="cls-1" d="m427.98,53.59c.01.14.07.28.07.41,0,15.45-80.03,27.97-178.76,27.97s-176.61-12.2-178.66-27.37l-17.31.05c1.86,19.88,88.88,35.9,195.98,35.9s196.02-16.36,196.02-36.55c0-.16-.02-.31-.03-.46l-17.29.05Z"/>
        <path class="cls-13" d="m346.9,198.11c-1.06-.76-2.16-1.44-3.26-2.08.96-.84,1.91-1.72,2.79-2.67,11.41-12.26,11.52-28.36,1.21-35.94-10.33-7.58-27.2-4.17-38.64,7.57-4.63,4.77-7.64,10.2-8.91,15.54-33.85,1.78-67.76,1.78-101.61,0-1.27-5.34-4.28-10.78-8.91-15.54-11.44-11.73-28.31-15.14-38.64-7.57-10.3,7.57-10.2,23.68,1.21,35.94.89.95,1.83,1.83,2.79,2.67-1.11.64-2.2,1.33-3.26,2.08-13.62,9.7-17.91,25.24-8.61,34.94,9.27,9.7,28.64,9.43,42.3-.82,5.53-4.13,9.28-9.21,11.16-14.39,35.15,1.84,70.37,1.84,105.52,0,1.88,5.17,5.63,10.26,11.16,14.39,13.66,10.25,33.03,10.52,42.3.82,9.29-9.7,5.01-25.24-8.61-34.94Z"/>
      </g>
    </g>
  </g>
</svg>