<?xml version="1.0" encoding="UTF-8"?>
<svg xmlns="http://www.w3.org/2000/svg" viewBox="0 0 487.73 294.64">
  <defs>
    <style>
      .cls-1 {
        fill: #dce3cc;
      }

      .cls-1, .cls-2, .cls-3, .cls-4, .cls-5, .cls-6, .cls-7 {
        stroke-width: 0px;
      }

      .cls-8 {
        isolation: isolate;
      }

      .cls-2 {
        fill: #ff6431;
      }

      .cls-3 {
        fill: #e65829;
      }

      .cls-4 {
        opacity: .4;
      }

      .cls-4, .cls-5 {
        fill: #f0976e;
      }

      .cls-6 {
        fill: #b8fffc;
      }

      .cls-7 {
        fill: #e8653a;
        mix-blend-mode: multiply;
        opacity: .2;
      }
    </style>
  </defs>
  <g class="cls-8">
    <g id="Ebene_2" data-name="Ebene 2">
      <g>
        <path class="cls-2" d="m486.48,233.06c-19.02-49.34-82.03-205.36-82.03-205.36l-321.45.83S.64,234.6.61,234.72c-.12.42-.61,1.6-.61,2.51.15,24.72,109.18,57.41,243.87,57.41s243.87-36.33,243.87-57.41c0-1.78-.93-3.34-1.25-4.17Z"/>
        <path class="cls-4" d="m13.49,253.32c13.98,8.78,38.18,17.5,69.5,24.66L146.15,30.03l-13.37-1.63-33.1.09L13.49,253.32Z"/>
        <path class="cls-7" d="m243.87,294.64c134.68,0,243.87-36.33,243.87-57.41,0-1.78-.93-3.34-1.25-4.17-19.02-49.34-82.03-205.36-82.03-205.36l-32.66.08c-13.3,69.68-47.99,135.28-98.68,184.97-34.26,33.58-75.64,59.72-120.45,76.82,28.17,3.19,58.95,5.07,91.2,5.07Z"/>
        <path class="cls-7" d="m404.45,27.7l-25.82.07c22.51,77.25,42.73,173.1,53.88,241.43,34.51-10.71,55.22-22.78,55.22-31.96,0-1.78-.93-3.34-1.25-4.17-19.02-49.34-82.03-205.36-82.03-205.36Z"/>
        <ellipse class="cls-5" cx="243.87" cy="30.03" rx="161.06" ry="30.03"/>
        <ellipse class="cls-3" cx="243.87" cy="30.03" rx="146.88" ry="22.98"/>
        <path class="cls-6" d="m105.88,37.92c20.58,8.8,74.59,15.09,137.99,15.09s117.41-6.28,137.99-15.09c-20.58-8.8-74.59-15.09-137.99-15.09s-117.41,6.28-137.99,15.09Z"/>
        <path class="cls-1" d="m330.84,143.24c-2.17-10.69-12.66-17.57-23.47-16.02-9.37,1.37-16.56,8.69-17.84,17.67-30.22,2.92-60.64,2.58-90.71-1-1.05-9-8.06-16.48-17.36-18.04-10.74-1.79-21.33,4.88-23.77,15.51-1.13,5.11,0,10.22,2.85,14.41-4.27,2.73-7.53,6.87-8.66,11.98-2.45,10.61,5.76,21.52,18.46,23.65,11.61,1.96,22.14-4.29,24.71-13.66,32.29,3.82,64.93,4.19,97.37,1.08,2.3,9.43,12.66,15.92,24.34,14.22,12.79-1.84,21.36-12.59,19.2-23.27-.99-5.14-4.15-9.35-8.35-12.18,2.97-4.13,4.24-9.22,3.24-14.36Z"/>
      </g>
    </g>
  </g>
</svg>