<?xml version="1.0" encoding="UTF-8"?>
<svg xmlns="http://www.w3.org/2000/svg" viewBox="0 0 240.06 319.85">
  <defs>
    <style>
      .cls-1 {
        fill: #ffd166;
      }

      .cls-1, .cls-2, .cls-3, .cls-4, .cls-5, .cls-6 {
        stroke-width: 0px;
      }

      .cls-2 {
        fill: #fa8e2f;
      }

      .cls-7 {
        isolation: isolate;
      }

      .cls-3 {
        fill: #98ab6d;
        mix-blend-mode: multiply;
        opacity: .3;
      }

      .cls-4 {
        fill: #a7a6ad;
      }

      .cls-5 {
        fill: #66802b;
      }

      .cls-6 {
        fill: #c0bfc7;
      }
    </style>
  </defs>
  <g class="cls-7">
    <g id="Ebene_2" data-name="Ebene 2">
      <g>
        <path class="cls-6" d="m0,26.05v267.74c0,14.39,53.74,26.05,120.03,26.05s120.03-11.66,120.03-26.05V26.05H0Z"/>
        <path class="cls-5" d="m0,59.64v198.02c77.31,30.53,175.21,25.76,240.06.36V60.23c-67.22,26.61-172.62,23.45-240.06-.59Z"/>
        <g>
          <path class="cls-2" d="m226.44,162.18c3.77,24.77-43.72,52.35-106.4,52.27-62.69.07-110.17-27.5-106.4-52.27,3.72-25,51.23-38.73,106.4-38.88,55.18.15,102.68,13.88,106.4,38.88Z"/>
          <path class="cls-1" d="m120.28,218.13c-.16,0-.32,0-.48,0-43.5,0-84.43-13.62-101.9-33.92-6.3-7.32-9.03-15.13-7.9-22.57,4.58-30.78,62.13-41.87,110.02-42,47.91.13,105.46,11.21,110.04,42.01,1.13,7.44-1.6,15.24-7.9,22.56-17.47,20.3-58.39,33.92-101.89,33.92Zm-.25-7.34h.26c47.89,0,82.86-15.74,96.31-31.37,3.39-3.94,7.22-10.04,6.21-16.69h0c-3.11-20.91-45.38-35.61-102.79-35.77-57.39.16-99.66,14.86-102.77,35.76-1.01,6.66,2.82,12.75,6.21,16.69,13.44,15.63,48.43,31.37,96.32,31.37h.24Z"/>
          <path class="cls-1" d="m189.07,157.43c-.02-9.13-7.43-16.51-16.56-16.5-7.88.01-14.45,5.55-16.09,12.94l-72.82.14c-1.67-7.38-8.26-12.89-16.14-12.88-9.13.02-16.51,7.43-16.5,16.56,0,4.39,1.74,8.36,4.53,11.31-2.78,2.96-4.5,6.94-4.49,11.33.02,9.13,7.43,16.51,16.56,16.5,8.36-.02,15.24-6.24,16.33-14.29l72.35-.13c1.12,8.05,8.02,14.25,16.38,14.23,9.13-.02,16.51-7.43,16.5-16.56,0-4.39-1.74-8.36-4.53-11.31,2.78-2.96,4.49-6.94,4.49-11.33Z"/>
        </g>
        <path class="cls-3" d="m174.34,31.43c9.73,97.31-3.35,214.89-38.5,288.19,58.82-1.68,104.22-12.6,104.22-25.82V26.05h-70.51l4.79,5.38Z"/>
        <ellipse class="cls-4" cx="120.03" cy="26.05" rx="120.03" ry="26.05"/>
        <ellipse class="cls-6" cx="120.03" cy="26.05" rx="100.96" ry="19.72"/>
        <ellipse class="cls-4" cx="120.03" cy="26.05" rx="74.09" ry="14.47"/>
        <path class="cls-6" d="m166.8,26.05c0,5.05-20.94,9.14-46.77,9.14s-46.77-4.09-46.77-9.14,20.94-9.14,46.77-9.14,46.77,4.09,46.77,9.14Z"/>
      </g>
    </g>
  </g>
</svg>