<?xml version="1.0" encoding="UTF-8"?>
<svg xmlns="http://www.w3.org/2000/svg" viewBox="0 0 510.32 382.44">
  <defs>
    <style>
      .cls-1 {
        fill: #60bcde;
      }

      .cls-1, .cls-2, .cls-3, .cls-4, .cls-5, .cls-6, .cls-7, .cls-8 {
        stroke-width: 0px;
      }

      .cls-2 {
        opacity: .3;
      }

      .cls-2, .cls-3 {
        fill: #2da1cc;
      }

      .cls-9 {
        isolation: isolate;
      }

      .cls-4 {
        fill: #046487;
      }

      .cls-5 {
        fill: #eb830e;
      }

      .cls-6, .cls-7 {
        fill: #0b7fab;
      }

      .cls-7 {
        mix-blend-mode: multiply;
        opacity: .2;
      }

      .cls-8 {
        fill: #eb9534;
      }
    </style>
  </defs>
  <g class="cls-9">
    <g id="Ebene_2" data-name="Ebene 2">
      <g>
        <path class="cls-6" d="m482.03,242.27l-453.91.39S0,316.38,0,320.07c0,30.56,114.24,62.37,255.16,62.37s255.16-31.81,255.16-62.37c0-4.21-28.29-77.8-28.29-77.8Z"/>
        <path class="cls-2" d="m250.33,242.47l-222.21.19s-10.6,27.8-18.79,50.11c33.65,32.97,85.52,41.11,133.11,38.43,54.42-3.07,107.43-26.83,145.93-65.41-12.23-8.47-24.94-16.27-38.04-23.32Z"/>
        <path class="cls-7" d="m510.32,320.07c0-4.21-28.29-77.8-28.29-77.8l-46.1.04c-41.54,82.26-159.62,121.05-244.02,137.96,20.23,1.4,41.42,2.17,63.25,2.17,140.92,0,255.16-31.81,255.16-62.37Z"/>
        <path class="cls-7" d="m510.32,320.07c0-4.21-28.29-77.8-28.29-77.8l-52.73.05-4.39,22.1c7.59,34.63,2.81,71.68-12.55,103.59,59.63-12.11,97.95-30.23,97.95-47.93Z"/>
        <path class="cls-3" d="m482.51,243.98c4.59,25.79-101.79,47.44-227.35,47.44s-231.88-21.63-227.35-47.44c4.7-26.81,101.77-37.86,227.33-37.86s223.16,14.21,227.37,37.86Z"/>
        <path class="cls-7" d="m414.24,216.17c-12.24,25.93-13.33,51.45-13.33,51.45l25.97,7.73c36.18-8.42,57.75-19.45,55.63-31.36-2.11-11.84-27.6-21.31-68.27-27.82Z"/>
        <path class="cls-3" d="m251.98,88.16c78.74,0,142.58,9.46,142.6,21.13h13.77c-.02-15.25-70.02-27.6-156.37-27.6s-156.35,12.36-156.37,27.6h13.77c.02-11.67,63.86-21.13,142.6-21.13Z"/>
        <ellipse class="cls-4" cx="251.98" cy="109.29" rx="142.6" ry="21.13"/>
        <g>
          <path class="cls-8" d="m355.57,14.32c-11.23-15.5-32.89-18.96-48.39-7.73-13.38,9.7-17.76,27.17-11.49,41.74l-123.63,89.58c-11.89-10.5-29.86-11.78-43.24-2.08-15.5,11.23-18.96,32.89-7.73,48.39,5.4,7.45,13.21,12.08,21.58,13.67-1.09,8.45.88,17.32,6.27,24.76,11.23,15.5,32.89,18.96,48.39,7.73,14.19-10.28,18.25-29.3,10.22-44.34l122.82-88.99c11.79,12.31,31.12,14.38,45.31,4.1,15.5-11.23,18.96-32.89,7.73-48.39-5.4-7.45-13.21-12.08-21.58-13.67,1.09-8.45-.88-17.32-6.27-24.76Z"/>
          <path class="cls-5" d="m330.44,97.08l-122.88,88.96c8.03,15.03,3.97,34.05-10.22,44.34-12.33,8.93-28.55,8.54-40.33.21,10.48,3.86,22.62,2.6,32.34-4.44,14.19-10.28,18.25-29.3,10.22-44.34l126.11-92.42c.27,2.61,3.89,7.08,4.75,7.68Zm45-48.56c11.23,15.5,7.77,37.16-7.73,48.39-9.73,7.05-21.89,8.29-32.37,4.4,11.78,8.36,28.01,8.77,40.36-.17,15.5-11.23,18.96-32.89,7.73-48.39-4.16-5.75-9.78-9.8-15.97-12.09,2.99,2.12,5.71,4.73,7.98,7.86Zm-27.85-38.44c5.4,7.45,7.28,17.93,6.19,26.38,2.8.53,5.52,1.44,8.12,2.64,1.06-9.18-1.27-17.81-6.32-24.79-4.19-5.78-9.83-9.88-16.05-12.17,3.02,2.14,5.77,4.77,8.06,7.94Z"/>
          <path class="cls-5" d="m184.08,162.46c10.22-8.78,20.78-17.05,31.45-25.17,5.3-4.11,10.72-8.04,16.06-12.08l16.2-11.87,16.34-11.68c5.52-3.8,10.95-7.72,16.53-11.44,11.08-7.55,22.29-14.93,33.89-21.78-9.96,9.07-20.31,17.62-30.82,25.95-5.21,4.22-10.58,8.24-15.89,12.35l-16.16,11.98c-5.47,3.88-10.92,7.79-16.45,11.6-5.56,3.75-11.07,7.58-16.73,11.19-11.24,7.34-22.64,14.43-34.42,20.95Zm-31.09,17.55c1.74-1.98,3.67-3.7,5.75-5.23,2.09-1.52,4.33-2.86,6.74-4,2.42-1.14,4.97-2.09,7.78-3.05-2.84-.89-5.93-.87-8.87-.23-2.95.64-5.8,1.89-8.27,3.71-4.92,3.58-8.41,9.58-7.95,15.56,1.54-2.54,3.07-4.76,4.81-6.75Zm174.88-127.51c1.55-2.08,3.28-3.93,5.17-5.6,1.9-1.66,3.95-3.15,6.21-4.41,2.27-1.26,4.69-2.3,7.44-3.27-2.79-.89-5.87-.75-8.74.06-2.87.81-5.59,2.29-7.84,4.29-4.49,3.96-7.33,10.05-6.52,15.87,1.38-2.57,2.73-4.85,4.28-6.94Z"/>
        </g>
        <path class="cls-6" d="m398.1,99.44h-.03c6.62,3.06,10.28,6.38,10.28,9.85,0,15.25-70.01,27.61-156.37,27.61s-156.37-12.36-156.37-27.61c0-3.03,2.8-5.94,7.9-8.66h-.04c-37.65,15.43-60.06,130.19-60.06,141.64,0,19.35,93.38,36.71,208.58,36.71s208.58-17.35,208.58-36.71c0-6.71-24.83-127.4-62.46-142.83Z"/>
        <path class="cls-2" d="m251.98,136.9c-86.36,0-156.37-12.36-156.37-27.61,0-3.03,2.8-5.94,7.9-8.66h-.04c-24.8,10.17-42.99,63.43-52.51,101.87,42.7,17.26,99.68,12.79,145.86-3.43,36.02-12.65,68.57-34.7,94.13-63.03-12.45.56-25.5.86-38.95.86Z"/>
        <path class="cls-7" d="m398.1,99.44h-.03c6.62,3.06,10.28,6.38,10.28,9.85,0,7.04-14.96,13.47-39.54,18.34-27.48,42.24-65.15,77.9-109.27,102.31-46.49,25.73-99.77,38.8-152.88,38.31,37.56,6.54,88.81,10.72,145.32,10.72,115.2,0,208.58-17.35,208.58-36.71,0-6.71-24.83-127.4-62.46-142.83Z"/>
        <path class="cls-7" d="m398.1,99.44h-.03c6.62,3.06,10.28,6.38,10.28,9.85,0,4.88-7.19,9.45-19.75,13.43,13.61,46.85,17.83,96.42,12.31,144.9,36.89-6.73,59.65-15.8,59.65-25.35,0-6.71-24.83-127.4-62.46-142.83Z"/>
        <path class="cls-3" d="m394.58,109.28s0,0,0,0c0,11.67-63.84,21.13-142.6,21.13s-142.6-9.46-142.6-21.13c0,0,0,0,0,0h-13.77s0,0,0,0c0,15.25,70.01,27.61,156.37,27.61s156.37-12.36,156.37-27.61c0,0,0,0,0,0h-13.77Z"/>
        <path class="cls-1" d="m158.39,179.18c-4.72,6.09-12.2,8.08-16.71,4.46-4.51-3.62-4.34-11.49.38-17.58,4.72-6.09,12.2-8.08,16.71-4.46,4.51,3.62,4.34,11.49-.38,17.58Zm23.82,3.85c-4.02-4.15-11.87-3.27-17.52,1.96-5.65,5.23-6.97,12.84-2.95,16.99,4.02,4.15,11.87,3.27,17.52-1.96,5.65-5.23,6.97-12.84,2.95-16.99Zm-1.63,32.26c-3.41-4.63-11.47-4.97-18-.77-6.53,4.2-9.05,11.36-5.64,15.98,3.41,4.63,11.47,4.97,18,.77,6.53-4.2,9.05-11.36,5.64-15.98Zm-51.06-49.42c-4.8-3.19-11.96-.35-15.99,6.35-4.03,6.7-3.4,14.72,1.41,17.91,4.8,3.19,11.96.35,15.99-6.35,4.03-6.7,3.4-14.72-1.41-17.91Zm22.41,60.85c-1.24-5.46-.56-10.62,1.36-15.02,2.22-5.11,3.22-12.07-3.16-17.78-6.93-6.2-13.6-4.46-18.24-1.56-4.18,2.61-9.37,3.86-15.08,3.36-4.4-.39-8.12.65-10.47,3.28-5.9,6.59-.91,20.67,11.13,31.45,12.05,10.77,26.59,14.16,32.49,7.57,2.45-2.73,3.01-6.76,1.98-11.3Z"/>
      </g>
    </g>
  </g>
</svg>