<?xml version="1.0" encoding="UTF-8"?>
<svg xmlns="http://www.w3.org/2000/svg" viewBox="0 0 355.88 484.37">
  <defs>
    <style>
      .cls-1 {
        isolation: isolate;
      }

      .cls-2 {
        fill: #ff6431;
      }

      .cls-2, .cls-3, .cls-4, .cls-5, .cls-6, .cls-7, .cls-8 {
        stroke-width: 0px;
      }

      .cls-3 {
        fill: #e65829;
      }

      .cls-4 {
        fill: #f0976e;
      }

      .cls-5 {
        fill: #f0d6ca;
        mix-blend-mode: screen;
        opacity: .2;
      }

      .cls-6 {
        fill: #fab73d;
      }

      .cls-7 {
        fill: #fae5be;
      }

      .cls-8 {
        fill: #d4491c;
      }
    </style>
  </defs>
  <g class="cls-1">
    <g id="Ebene_2" data-name="Ebene 2">
      <g>
        <polygon class="cls-2" points="297.89 484.37 0 442.3 6.23 29.88 304.12 71.94 297.89 484.37"/>
        <polygon class="cls-8" points="234.83 293.48 68.54 270 72.13 39.18 238.42 62.66 234.83 293.48"/>
        <polygon class="cls-8" points="232.5 447.8 66.21 424.32 66.81 391.25 233.1 414.73 232.5 447.8"/>
        <polygon class="cls-3" points="297.89 484.37 349.64 454.43 355.88 42 304.12 71.94 297.89 484.37"/>
        <polygon class="cls-8" points="311.47 319.29 343.4 300.65 344.98 196.11 313.05 214.75 311.47 319.29"/>
        <polygon class="cls-4" points="6.23 29.88 57.73 0 355.88 42 304.12 71.94 6.23 29.88"/>
        <polygon class="cls-2" points="290.6 32.8 124.3 9.38 72.13 39.18 238.42 62.66 290.6 32.8"/>
        <ellipse class="cls-6" cx="153.58" cy="253.64" rx="131.06" ry="132.92" transform="translate(-140.38 214.79) rotate(-51.28)"/>
        <path class="cls-7" d="m250.1,211.87c-3.41-13.28-17.5-21.52-31.46-18.42-12.06,2.68-20.07,12.95-19.84,24.25l-111.44,24.77c-5.29-10.18-17.42-15.97-29.48-13.29-13.97,3.11-22.53,16.39-19.12,29.66,1.64,6.38,5.76,11.58,11.13,14.93-3.16,5.25-4.31,11.62-2.67,18,3.41,13.28,17.5,21.52,31.47,18.42,12.79-2.84,21.02-14.22,19.7-26.31l110.71-24.61c4.7,11.34,17.56,18.03,30.35,15.18,13.97-3.1,22.53-16.39,19.12-29.66-1.64-6.38-5.76-11.58-11.13-14.93,3.16-5.25,4.31-11.62,2.67-18Z"/>
        <path class="cls-5" d="m6.23,29.87L1.32,355.02c48.66-22.86,106.58-80.43,138.88-122.57,31-40.44,57.48-112.12,71.29-173.59L6.23,29.87Z"/>
        <polygon class="cls-8" points="312.4 204.36 343.86 186.25 344.05 173.51 312.59 191.82 312.4 204.36"/>
      </g>
    </g>
  </g>
</svg>