<?xml version="1.0" encoding="UTF-8"?>
<svg xmlns="http://www.w3.org/2000/svg" viewBox="0 0 393.9 297.67">
  <defs>
    <style>
      .cls-1 {
        fill: #7a3300;
      }

      .cls-1, .cls-2, .cls-3, .cls-4, .cls-5, .cls-6, .cls-7, .cls-8, .cls-9, .cls-10 {
        stroke-width: 0px;
      }

      .cls-11 {
        isolation: isolate;
      }

      .cls-2 {
        fill: #046487;
      }

      .cls-3 {
        fill: #b5e3ea;
      }

      .cls-4 {
        fill: #dbb9ab;
      }

      .cls-4, .cls-5 {
        opacity: .6;
      }

      .cls-4, .cls-5, .cls-7 {
        mix-blend-mode: multiply;
      }

      .cls-5 {
        fill: #ebb87f;
      }

      .cls-6, .cls-7 {
        fill: #0b7fab;
      }

      .cls-7 {
        opacity: .2;
      }

      .cls-8 {
        fill: #eb9534;
      }

      .cls-9 {
        fill: #ab4700;
      }

      .cls-10 {
        fill: #f0f0f0;
        mix-blend-mode: screen;
        opacity: .3;
      }
    </style>
  </defs>
  <g class="cls-11">
    <g id="Ebene_2" data-name="Ebene 2">
      <g>
        <path class="cls-3" d="m381.32,288.16c-13.13,12.74-362.11,12.63-370.53,0-9.43-14.15,0-216.84,0-216.84h370.53s8.95,208.16,0,216.84Z"/>
        <path class="cls-7" d="m381.32,288.16s.02-.02.02-.03c-.36-.28-.73-.53-1.13-.76-8.29-4.74-88.19-3.3-181.58-3.55-80.17-.21-181.01-4.33-188.14,3.8.1.19.19.4.29.55,8.42,12.63,357.4,12.74,370.53,0Z"/>
        <path class="cls-7" d="m8.79,121.74c124.34,13.2,249.96,14.22,374.49,3-.98-30.72-1.96-53.42-1.96-53.42H10.79s-.99,21.24-2,50.43Z"/>
        <path class="cls-6" d="m225.26,29.21c0-16.13-13.08-29.21-29.21-29.21s-29.21,13.08-29.21,29.21c0,0-163.42-3.16-165,0-2.9,5.79-1.97,81.32,0,82.11,7.93,3.17,378,5.21,388.42,0,5.53-2.76,4.11-80.28,0-82.11-7.11-3.16-165,0-165,0Zm-29.21,12.5c-6.9,0-12.5-5.6-12.5-12.5s5.6-12.5,12.5-12.5,12.5,5.6,12.5,12.5-5.6,12.5-12.5,12.5Z"/>
        <g>
          <g>
            <path class="cls-1" d="m152.94,286.6c7.31,2.34,15.13-1.68,17.47-8.99,2.02-6.31-.71-13-6.19-16.22l18.69-58.3c6.34.57,12.45-3.28,14.47-9.59,2.34-7.31-1.68-15.13-8.99-17.48-3.51-1.13-7.14-.77-10.22.7-1.65-2.99-4.39-5.39-7.91-6.51-7.31-2.34-15.13,1.68-17.48,8.99-2.15,6.69,1.06,13.8,7.22,16.76l-18.57,57.92c-6.73-1.18-13.47,2.74-15.62,9.43-2.34,7.31,1.68,15.13,8.99,17.47,3.51,1.13,7.14.77,10.22-.7,1.65,2.99,4.39,5.39,7.91,6.51Z"/>
            <path class="cls-4" d="m134.81,280.79c3.51,1.13,7.14.77,10.22-.7,1.65,2.99,4.39,5.39,7.91,6.51,5.38,1.72,11.02,0,14.57-3.95h0c-6.1,3.73-18.39,5.04-21.39-5.44-12.52,6.21-27.14-7.14-14-21.67h0c-2.89,1.66-5.2,4.34-6.3,7.77-2.34,7.31,1.68,15.13,8.99,17.47Z"/>
            <path class="cls-4" d="m162.54,195.87c-5.62-3.34-9.89-10.15-6.72-17.91,2.28-5.59,6.97-7.88,11.94-8.29-6.51-.83-12.9,3.06-14.98,9.53-2.15,6.69,1.06,13.8,7.22,16.76l-18.56,57.9c1.06.24,2.14.52,2.57.72,5.57-20.57,12.95-38.13,18.52-58.71Z"/>
          </g>
          <g>
            <path class="cls-8" d="m343.17,226.71c4.36-6.32,2.77-14.97-3.55-19.33-5.46-3.76-12.65-3.08-17.31,1.24l-50.4-34.76c2.38-5.9.46-12.86-4.99-16.63-6.32-4.36-14.97-2.77-19.33,3.55-2.09,3.04-2.8,6.61-2.28,9.99-3.34.72-6.43,2.65-8.52,5.68-4.36,6.32-2.77,14.97,3.55,19.33,5.78,3.99,13.52,2.98,18.13-2.06l50.07,34.53c-3.08,6.1-1.27,13.69,4.51,17.68,6.32,4.36,14.97,2.77,19.33-3.55,2.09-3.04,2.8-6.61,2.28-9.99,3.34-.72,6.43-2.65,8.52-5.68Z"/>
            <path class="cls-5" d="m332.36,242.38c2.09-3.04,2.8-6.61,2.28-9.99,3.34-.72,6.43-2.65,8.52-5.68,3.21-4.65,3.18-10.55.44-15.09h0c1.8,6.92-.5,19.07-11.4,18.9,2.32,13.78-14.69,23.91-24.79,7.13h0c.75,3.25,2.65,6.24,5.62,8.28,6.32,4.36,14.97,2.77,19.33-3.55Z"/>
            <path class="cls-5" d="m259.09,191.27c-4.83,4.41-12.58,6.53-19.09,1.25-4.69-3.8-5.53-8.95-4.48-13.83-2.68,6-.81,13.23,4.79,17.09,5.78,3.99,13.52,2.98,18.13-2.06l50.05,34.52c.54-.94,1.12-1.9,1.43-2.25-18.08-11.29-32.76-23.43-50.84-34.72Z"/>
          </g>
          <g>
            <path class="cls-1" d="m308.16,205.79c-.62-7.65-7.33-13.34-14.98-12.72-6.61.54-11.74,5.62-12.62,11.92l-61.02,4.97c-1.89-6.07-7.78-10.25-14.39-9.71-7.65.62-13.34,7.33-12.72,14.98.3,3.68,2.01,6.89,4.55,9.18-2.13,2.67-3.3,6.12-3,9.79.62,7.65,7.33,13.34,14.98,12.72,7-.57,12.35-6.25,12.73-13.07l60.62-4.94c1.48,6.67,7.68,11.41,14.68,10.84,7.65-.62,13.34-7.33,12.72-14.98-.3-3.68-2.01-6.89-4.55-9.18,2.13-2.67,3.3-6.12,3-9.79Z"/>
            <path class="cls-4" d="m309.71,224.76c-.3-3.68-2.01-6.89-4.55-9.18,2.13-2.67,3.3-6.12,3-9.79-.46-5.63-4.21-10.19-9.21-11.96h0c5.78,4.22,11.68,15.08,3.13,21.84,10.52,9.21,3.76,27.81-14.69,21.21h0c2.64,2.04,6,3.15,9.59,2.86,7.65-.62,13.34-7.33,12.72-14.98Z"/>
            <path class="cls-4" d="m220.63,231.54c-.95,6.47-5.61,13.01-13.99,13.04-6.03.02-9.95-3.43-12.22-7.87,1.72,6.34,7.75,10.76,14.53,10.2,7-.57,12.35-6.25,12.73-13.07l60.6-4.94c-.18-1.07-.34-2.18-.32-2.65-21.14,2.7-40.19,2.58-61.33,5.29Z"/>
          </g>
          <g>
            <path class="cls-1" d="m127.62,255.05c6.15-4.59,7.42-13.29,2.83-19.45-3.96-5.31-10.99-6.97-16.8-4.37l-36.6-49.08c4.14-4.83,4.56-12.04.6-17.35-4.59-6.15-13.3-7.42-19.45-2.83-2.96,2.2-4.77,5.36-5.36,8.73-3.4-.39-6.94.45-9.9,2.65-6.15,4.59-7.42,13.3-2.83,19.45,4.2,5.63,11.85,7.16,17.83,3.85l36.36,48.75c-4.87,4.79-5.59,12.56-1.39,18.19,4.59,6.15,13.29,7.42,19.45,2.83,2.96-2.2,4.77-5.36,5.36-8.73,3.4.39,6.94-.45,9.9-2.65Z"/>
            <path class="cls-4" d="m112.36,266.43c2.96-2.2,4.77-5.36,5.36-8.73,3.4.39,6.94-.45,9.9-2.65,4.53-3.38,6.4-8.98,5.25-14.15h0c-.51,7.14-6.58,17.9-16.85,14.25-2.22,13.8-21.57,17.94-25.77-1.19h0c-.33,3.32.51,6.76,2.67,9.64,4.59,6.15,13.29,7.42,19.45,2.83Z"/>
            <path class="cls-4" d="m59.34,194.53c-5.99,2.63-14.01,2.15-18.48-4.93-3.22-5.1-2.37-10.25.19-14.53-4.46,4.82-5,12.28-.94,17.73,4.2,5.63,11.85,7.16,17.83,3.85l36.35,48.74c.81-.72,1.67-1.44,2.08-1.68-13.51-16.49-23.52-32.69-37.03-49.18Z"/>
          </g>
          <g>
            <path class="cls-9" d="m352.72,248.46c.86-7.63-4.63-14.5-12.26-15.36-6.59-.74-12.6,3.26-14.68,9.27l-60.84-6.83c-.69-6.32-5.67-11.56-12.25-12.29-7.63-.86-14.5,4.63-15.36,12.26-.41,3.66.65,7.15,2.7,9.88-2.61,2.21-4.42,5.37-4.83,9.04-.86,7.63,4.63,14.5,12.26,15.36,6.98.78,13.32-3.76,15-10.38l60.44,6.79c.17,6.83,5.34,12.67,12.33,13.45,7.63.86,14.5-4.63,15.36-12.26.41-3.66-.65-7.15-2.7-9.88,2.61-2.21,4.42-5.37,4.83-9.04Z"/>
            <path class="cls-4" d="m350.6,267.37c.41-3.66-.65-7.15-2.7-9.88,2.61-2.21,4.42-5.37,4.83-9.04.63-5.61-2.18-10.81-6.74-13.51h0c4.86,5.25,8.57,17.04-1.12,22.04,8.55,11.05-1.65,28.01-18.49,17.99h0c2.2,2.51,5.29,4.25,8.86,4.65,7.63.86,14.5-4.63,15.36-12.26Z"/>
            <path class="cls-4" d="m261.88,256.93c-2.17,6.17-8,11.69-16.23,10.12-5.93-1.14-9.1-5.28-10.48-10.07.47,6.55,5.54,12.04,12.3,12.8,6.98.78,13.32-3.76,15-10.38l60.42,6.79c.03-1.08.09-2.2.2-2.66-21.27-1.41-39.94-5.18-61.21-6.59Z"/>
          </g>
          <g>
            <path class="cls-9" d="m211.64,231.74c3.01-7.06-.28-15.22-7.34-18.23-6.1-2.6-13.01-.49-16.72,4.68l-56.33-23.98c1.15-6.26-2.12-12.7-8.22-15.29-7.06-3.01-15.22.28-18.23,7.34-1.44,3.39-1.42,7.03-.24,10.24-3.13,1.37-5.77,3.88-7.22,7.27-3.01,7.06.28,15.22,7.34,18.23,6.47,2.75,13.84.22,17.35-5.65l55.96,23.82c-1.8,6.59,1.49,13.67,7.95,16.42,7.06,3.01,15.22-.28,18.23-7.34,1.44-3.39,1.42-7.03.24-10.24,3.13-1.37,5.77-3.88,7.22-7.27Z"/>
            <path class="cls-4" d="m204.18,249.25c1.44-3.39,1.42-7.03.24-10.24,3.13-1.37,5.77-3.88,7.22-7.27,2.21-5.19,1.01-10.98-2.59-14.87h0c3.15,6.42,3.33,18.78-7.39,20.79,5.03,13.04-9.61,26.36-22.87,11.94h0c1.39,3.03,3.85,5.58,7.16,6.99,7.06,3.01,15.22-.28,18.23-7.34Z"/>
            <path class="cls-4" d="m122.18,213.82c-3.85,5.29-11.02,8.91-18.45,5.04-5.35-2.79-7.21-7.67-7.15-12.65-1.43,6.41,1.86,13.13,8.12,15.79,6.47,2.75,13.84.22,17.35-5.65l55.94,23.81c.34-1.03.71-2.09.95-2.49-19.97-7.44-36.78-16.41-56.75-23.85Z"/>
          </g>
          <g>
            <path class="cls-8" d="m177.34,221.35c-1.8-7.46-9.31-12.05-16.77-10.25-6.44,1.55-10.73,7.36-10.63,13.72l-59.52,14.35c-2.81-5.71-9.27-8.92-15.72-7.37-7.46,1.8-12.05,9.31-10.25,16.77.86,3.58,3.05,6.5,5.92,8.36-1.7,2.97-2.32,6.56-1.45,10.14,1.8,7.46,9.31,12.05,16.77,10.25,6.83-1.65,11.24-8.08,10.56-14.88l59.13-14.26c2.49,6.36,9.35,10.08,16.18,8.43,7.46-1.8,12.05-9.31,10.25-16.77-.86-3.58-3.05-6.5-5.92-8.36,1.7-2.97,2.32-6.56,1.45-10.14Z"/>
            <path class="cls-5" d="m181.8,239.86c-.86-3.58-3.05-6.5-5.92-8.36,1.7-2.97,2.32-6.56,1.45-10.14-1.32-5.49-5.74-9.41-10.95-10.39h0c6.36,3.27,13.87,13.09,6.47,21.1,11.81,7.47,8.01,26.89-11.23,23.22h0c2.92,1.61,6.42,2.19,9.92,1.34,7.46-1.8,12.05-9.31,10.25-16.77Z"/>
            <path class="cls-5" d="m94.84,260.33c.07,6.54-3.53,13.72-11.8,15.05-5.96.96-10.36-1.86-13.29-5.89,2.68,6,9.32,9.43,15.93,7.83,6.83-1.65,11.24-8.08,10.56-14.88l59.1-14.25c-.34-1.03-.67-2.1-.72-2.57-20.47,5.94-39.31,8.77-59.78,14.71Z"/>
          </g>
        </g>
        <path class="cls-7" d="m374.24,53.37H19.66c-.61,0-1.11-.5-1.11-1.11s.5-1.11,1.11-1.11h354.58c.61,0,1.11.5,1.11,1.11s-.5,1.11-1.11,1.11Zm1.11,14.68c0-.61-.5-1.11-1.11-1.11H19.66c-.61,0-1.11.5-1.11,1.11s.5,1.11,1.11,1.11h354.58c.61,0,1.11-.5,1.11-1.11Zm0,15.79c0-.61-.5-1.11-1.11-1.11H19.66c-.61,0-1.11.5-1.11,1.11s.5,1.11,1.11,1.11h354.58c.61,0,1.11-.5,1.11-1.11Zm0,15.79c0-.61-.5-1.11-1.11-1.11H19.66c-.61,0-1.11.5-1.11,1.11s.5,1.11,1.11,1.11h354.58c.61,0,1.11-.5,1.11-1.11Z"/>
        <path class="cls-2" d="m195.74,43.66c-7.75,0-14.06-6.31-14.06-14.06s6.31-14.06,14.06-14.06,14.06,6.31,14.06,14.06-6.31,14.06-14.06,14.06Zm0-23.68c-5.31,0-9.63,4.32-9.63,9.63s4.32,9.63,9.63,9.63,9.63-4.32,9.63-9.63-4.32-9.63-9.63-9.63Z"/>
        <path class="cls-7" d="m.91,104.61c.27,4.04.58,6.57.93,6.71,7.93,3.17,378,5.21,388.42,0,5.53-2.76,4.11-80.28,0-82.11-2.5-1.11-23.75-1.44-50.21-1.4C236.15,82.02,118.05,108.98.91,104.61Z"/>
        <path class="cls-10" d="m19.28,201.49c-2.73,9.29-4.47,19.51-.83,28.48,4.34,10.68,15.29,17.13,26.11,21.11,32.86,12.09,69.23,8.39,103.81,2.95,35.23-5.54,71.31-13.18,100.63-33.48,8.79-6.09,17.1-13.6,21.19-23.47,4.09-9.88,2.95-22.52-5.01-29.64-7.72-6.91-19.32-7-29.57-5.42-19.43,3.01-37.82,10.55-56.45,16.84-18.63,6.29-38.22,11.42-57.77,9.35-7.38-.78-15.27-2.99-19.66-8.99-4.44-6.07-4.09-14.31-6.49-21.44-2.57-7.61-8.53-14-15.94-17.09-32.48-13.55-53.11,37.26-60.03,60.8Z"/>
      </g>
    </g>
  </g>
</svg>